{"glyphs":{"0":{"ha":694,"x_min":82,"x_max":614,"o":"m 155 53 q 138 68 155 53 q 102 129 121 83 q 82 231 82 174 q 104 341 82 288 q 163 431 125 393 q 367 512 243 512 q 548 443 480 512 q 614 286 614 375 q 576 131 614 196 q 474 27 539 65 q 346 -11 410 -11 q 235 6 281 -11 q 155 53 190 22 m 153 205 q 175 120 153 160 q 321 42 218 42 q 493 138 423 42 q 539 284 539 201 q 490 415 539 368 q 367 463 441 463 q 194 353 264 463 q 153 205 153 288 z "},"1":{"ha":694,"x_min":176,"x_max":529,"o":"m 325 -4 l 193 -7 q 179 -2 182 -7 q 176 16 176 4 q 180 34 176 28 q 197 39 184 39 q 246 39 228 39 q 264 40 263 39 q 266 45 265 40 q 272 83 266 49 q 296 222 279 116 q 337 475 336 464 q 337 490 338 486 q 329 493 336 493 l 253 493 q 237 504 238 493 q 236 517 236 507 q 253 539 236 539 l 385 536 l 512 539 q 527 534 524 539 q 529 516 529 529 q 525 498 529 504 q 508 493 522 493 l 451 493 l 442 493 q 440 491 440 493 q 439 489 440 490 q 436 473 439 488 q 419 362 434 457 q 374 43 370 46 q 388 39 378 39 l 461 39 q 477 28 476 39 q 478 15 478 25 q 461 -7 478 -7 l 325 -4 z "},"2":{"ha":694,"x_min":71,"x_max":625,"o":"m 96 -4 q 71 15 71 -4 q 89 42 71 27 q 186 113 108 60 q 306 203 264 166 q 406 370 406 292 q 376 459 406 424 q 293 494 346 494 q 137 393 221 494 q 123 382 127 382 q 107 391 118 382 q 96 406 96 399 q 108 427 96 412 q 143 464 120 443 q 194 504 166 485 q 340 551 261 551 q 464 509 418 551 q 510 389 510 466 q 267 124 510 270 q 231 103 253 116 q 201 85 208 90 l 547 85 q 571 119 552 85 q 593 153 591 153 q 612 148 598 153 q 625 139 625 142 q 615 114 625 135 q 570 18 576 35 q 560 -2 563 0 q 549 -4 556 -4 l 96 -4 z "},"3":{"ha":694,"x_min":74,"x_max":581,"o":"m 289 101 l 211 97 q 191 101 197 97 q 185 119 185 105 q 190 139 185 134 q 226 153 196 144 q 291 177 257 162 q 356 212 326 192 q 407 256 386 232 q 450 369 450 307 q 420 462 450 430 q 349 494 390 494 q 278 487 308 494 q 232 469 249 479 q 201 452 214 460 q 183 445 187 445 q 172 456 179 445 q 164 473 164 467 q 183 490 164 479 q 231 513 202 502 q 359 542 302 542 q 455 525 416 542 q 516 474 493 508 q 539 405 539 439 q 534 353 539 372 q 523 320 530 335 q 505 290 516 306 q 484 264 494 275 q 460 241 474 253 q 437 222 446 229 q 413 206 427 215 q 394 194 399 197 q 372 182 375 183 q 432 167 415 173 q 581 -29 581 118 q 554 -135 581 -84 q 483 -222 527 -186 q 271 -301 388 -301 q 104 -249 164 -301 q 74 -202 74 -222 q 117 -182 74 -182 q 176 -199 161 -182 q 280 -258 227 -258 q 379 -228 333 -258 q 452 -149 424 -198 q 480 -48 480 -100 q 430 65 480 28 q 289 101 379 101 z "},"4":{"ha":694,"x_min":60,"x_max":636,"o":"m 469 -6 l 435 -267 q 420 -286 432 -283 q 355 -299 368 -299 q 327 -274 327 -299 q 348 -156 327 -269 q 373 -25 370 -43 q 375 -6 376 -7 q 364 -4 373 -4 l 89 -4 q 60 11 60 -4 q 121 122 60 42 q 146 150 128 132 q 179 187 163 168 q 227 240 195 206 q 279 296 258 274 q 339 359 299 317 q 393 415 379 400 q 434 457 407 430 q 542 549 523 549 q 561 525 561 549 q 560 511 561 516 l 490 100 q 502 79 484 79 l 622 79 q 636 61 636 79 l 636 14 q 632 -1 636 3 q 615 -4 628 -4 q 506 -4 544 -4 q 469 -6 469 -4 m 168 115 q 150 88 150 97 q 176 79 150 79 l 380 79 q 396 83 392 79 q 403 103 400 86 l 451 404 q 450 413 453 413 q 442 407 448 413 l 168 115 z "},"5":{"ha":694,"x_min":76,"x_max":603,"o":"m 92 -299 q 76 -279 76 -299 q 90 -258 76 -258 q 366 -132 288 -244 q 403 -7 403 -80 q 304 148 403 78 q 239 191 268 174 q 197 217 210 208 q 167 248 167 237 q 182 301 167 259 q 221 408 197 343 q 253 497 245 473 q 263 525 261 522 q 269 528 266 527 q 282 529 274 529 l 518 508 l 536 508 q 549 514 546 508 q 554 526 552 520 q 559 536 557 531 q 563 544 561 540 q 573 553 567 553 q 591 549 579 553 q 603 540 603 545 q 585 487 603 534 q 566 436 567 440 q 563 430 564 431 q 561 425 563 428 q 558 420 559 421 q 555 417 557 419 q 550 414 553 415 q 534 413 541 413 q 497 417 528 413 q 411 429 466 421 q 319 442 356 437 q 276 436 281 446 q 245 361 261 405 q 229 310 229 316 q 244 299 229 307 q 282 278 259 291 q 335 247 306 265 q 392 205 363 230 q 444 153 420 181 q 497 13 497 90 q 357 -217 497 -123 q 180 -289 280 -268 q 92 -299 134 -299 z "},"6":{"ha":694,"x_min":72,"x_max":624,"o":"m 606 930 q 624 900 624 930 q 610 887 624 893 q 433 781 495 842 q 320 654 371 721 q 248 545 269 588 q 225 494 226 502 q 252 499 232 495 q 283 505 272 503 q 349 510 315 510 q 526 446 460 510 q 592 265 592 382 q 507 62 592 138 q 308 -11 424 -11 q 80 176 116 -11 q 72 268 72 214 q 88 386 72 322 q 129 504 103 449 q 191 610 155 558 q 428 846 289 754 q 549 913 503 896 q 606 930 595 930 m 488 274 q 325 472 488 472 q 260 463 300 472 q 213 445 219 453 q 177 353 189 412 q 165 257 165 294 q 168 201 165 221 q 178 156 171 180 q 197 112 185 133 q 226 75 209 92 q 323 38 262 38 q 443 110 397 38 q 488 274 488 180 z "},"7":{"ha":694,"x_min":86,"x_max":639,"o":"m 114 380 q 86 397 86 380 q 94 426 86 403 q 128 541 122 506 q 139 585 134 577 q 153 593 143 593 q 180 576 180 593 l 178 551 q 244 550 188 550 l 617 550 q 639 533 639 550 q 499 287 639 516 q 333 12 359 58 q 285 -72 307 -33 q 203 -234 222 -183 q 180 -290 184 -285 q 164 -296 176 -296 q 136 -287 152 -296 q 121 -264 121 -277 q 175 -135 121 -233 q 293 60 229 -38 q 436 279 357 159 q 547 454 547 447 q 532 461 547 461 l 264 461 q 150 451 166 461 l 132 396 q 130 392 132 395 q 128 388 129 389 q 125 385 127 387 q 114 380 122 380 z "},"8":{"ha":694,"x_min":93,"x_max":588,"o":"m 109 96 q 93 171 93 133 q 101 238 93 210 q 121 289 108 266 q 150 334 133 312 q 183 372 166 356 q 218 404 200 389 q 249 429 235 419 q 274 447 262 439 q 288 457 285 455 q 272 472 286 459 q 244 499 258 486 q 213 536 231 513 q 182 582 195 559 q 150 691 150 637 q 168 786 150 744 q 218 859 186 828 q 383 922 286 922 q 534 872 480 922 q 588 732 588 822 q 503 559 588 646 q 441 506 474 531 q 406 478 408 481 q 422 462 407 476 q 453 432 438 447 q 489 391 468 417 q 524 338 509 365 q 560 218 560 275 q 539 121 560 161 q 485 52 519 80 q 303 -8 410 -8 q 109 96 153 -8 m 219 339 q 210 326 219 339 q 189 276 201 312 q 176 201 176 239 q 188 132 176 164 q 219 79 200 100 q 310 35 261 35 q 394 57 358 35 q 450 116 430 80 q 469 188 469 153 q 455 258 469 223 q 419 321 440 293 q 375 375 398 350 q 313 433 331 425 q 265 396 293 427 q 219 339 237 365 m 232 739 q 245 677 232 712 q 278 614 259 643 q 319 560 298 585 q 376 503 361 509 q 422 540 394 509 q 469 598 451 572 q 511 728 511 661 q 474 839 511 795 q 374 882 436 882 q 268 836 306 882 q 232 739 232 794 z "},"9":{"ha":694,"x_min":54,"x_max":622,"o":"m 54 -257 q 75 -243 54 -249 q 121 -228 96 -236 q 191 -192 145 -219 q 277 -129 236 -164 q 426 22 356 -63 q 451 61 445 44 q 435 55 446 60 q 314 31 378 31 q 172 95 225 31 q 118 267 118 160 q 143 383 118 329 q 208 474 167 437 q 411 551 294 551 q 525 517 477 551 q 622 282 622 447 q 568 71 622 173 q 426 -104 513 -32 q 158 -261 314 -199 q 71 -289 87 -289 q 54 -257 54 -289 m 243 388 q 234 371 243 388 q 217 316 225 353 q 208 241 208 278 q 217 175 208 204 q 242 123 225 145 q 344 76 278 76 q 453 95 410 76 q 494 141 475 104 q 533 318 533 220 q 499 461 533 416 q 419 507 465 507 q 340 491 373 507 q 284 449 308 475 q 243 388 260 422 z "}," ":{"ha":278,"x_min":0,"x_max":0,"o":""},"!":{"ha":306,"x_min":86,"x_max":303,"o":"m 138 208 q 171 504 138 239 q 213 882 203 768 q 257 917 215 917 l 264 917 q 303 889 303 917 q 300 871 303 884 q 180 208 253 661 q 165 199 179 199 l 154 199 q 138 208 138 199 m 109 9 q 86 57 86 33 q 109 105 86 81 q 153 129 131 129 q 197 106 175 129 q 219 62 219 82 q 212 26 219 42 q 196 3 205 11 q 109 9 151 -36 z "},"\"":{"ha":362,"x_min":38,"x_max":325,"o":"m 218 710 q 224 814 218 726 q 232 919 230 902 q 280 960 237 960 q 313 949 302 960 q 325 926 325 938 q 320 893 325 913 q 291 795 315 873 q 266 714 267 716 q 264 706 266 712 q 261 698 262 700 q 259 693 260 696 q 254 689 257 690 q 239 686 246 686 q 218 710 218 686 m 38 710 q 44 814 38 726 q 52 919 50 902 q 100 960 57 960 q 133 949 121 960 q 144 926 144 938 q 140 893 144 913 q 111 795 135 873 q 86 714 86 716 q 83 706 85 712 q 81 698 81 700 q 78 693 80 696 q 74 689 76 690 q 58 686 66 686 q 38 710 38 686 z "},"#":{"ha":614,"x_min":38,"x_max":576,"o":"m 38 475 q 52 494 38 494 l 183 494 q 197 496 195 494 q 208 562 199 498 q 223 673 217 625 q 237 738 231 733 q 258 743 243 743 q 277 743 273 743 q 286 741 280 742 q 296 729 296 737 q 289 677 296 720 q 273 578 282 635 q 263 510 264 522 q 262 497 261 499 q 271 494 263 494 q 362 494 330 494 q 396 495 395 494 q 398 501 397 496 q 415 614 398 505 q 433 728 432 723 q 436 735 435 734 q 454 743 440 743 q 472 743 467 743 q 483 741 477 742 q 494 729 494 738 q 488 674 494 720 q 473 575 481 629 q 463 509 465 520 q 462 496 461 498 q 469 494 463 494 l 551 494 q 571 489 566 494 q 576 471 576 484 q 573 452 576 457 q 554 445 568 445 l 464 445 q 452 443 454 445 q 449 432 450 441 l 425 275 q 425 264 423 267 q 435 262 426 262 l 557 262 q 573 257 569 262 q 576 236 576 251 q 572 216 576 220 q 553 211 567 211 l 426 211 q 418 210 419 211 q 415 201 416 208 l 388 3 q 376 -15 385 -12 q 351 -18 367 -18 q 329 -15 335 -18 q 323 -2 323 -13 q 339 108 323 9 q 353 209 354 208 q 345 211 352 211 l 228 211 q 218 210 220 211 q 202 103 216 208 q 185 -6 188 -1 q 181 -12 183 -10 q 155 -18 176 -18 q 128 -13 135 -18 q 122 0 122 -8 q 128 48 122 8 q 142 136 134 87 q 151 196 149 184 q 150 210 152 208 q 139 211 149 211 l 58 211 q 41 217 45 211 q 38 235 38 223 l 38 240 q 57 262 38 262 l 153 262 q 162 264 160 262 q 163 265 163 265 q 164 267 164 266 q 164 269 164 269 q 165 273 164 270 q 174 346 165 275 q 184 429 183 418 q 185 442 186 440 q 176 445 183 445 l 52 445 q 38 467 38 445 l 38 475 m 242 381 q 239 365 242 381 q 231 316 237 348 q 225 276 226 283 q 225 267 224 268 q 236 265 226 265 l 350 265 q 361 267 359 265 q 375 346 363 268 q 388 433 386 423 q 388 445 390 442 q 378 447 387 447 l 265 447 q 253 445 256 447 q 249 429 251 444 q 242 381 247 414 z "},"$":{"ha":694,"x_min":65,"x_max":612,"o":"m 321 -3 q 308 -19 308 -3 l 289 -190 q 276 -201 287 -201 l 250 -201 q 243 -186 241 -201 l 268 -18 q 270 -8 270 -13 l 270 -2 q 265 4 270 3 q 257 5 260 4 q 234 10 253 6 q 185 29 216 14 q 133 64 155 45 q 96 103 112 82 q 65 178 65 144 q 84 205 65 192 q 111 218 102 218 q 127 205 121 218 q 145 168 134 192 q 233 50 183 78 q 273 38 270 35 q 278 50 277 41 l 322 375 q 324 396 325 390 q 284 425 323 401 q 215 472 244 449 q 118 653 118 550 q 229 839 118 777 q 372 875 294 875 q 386 885 385 875 l 393 935 q 406 951 395 951 l 425 951 q 433 935 435 951 l 426 883 q 431 871 425 872 q 585 767 530 855 q 612 697 612 723 q 583 650 612 650 q 555 663 569 650 q 538 690 541 676 q 532 724 535 703 q 517 781 525 769 q 432 836 481 828 q 419 833 419 838 l 375 493 q 378 469 372 474 q 456 417 443 428 q 553 318 524 369 q 582 203 582 266 q 547 92 582 139 q 321 -3 478 -3 m 379 835 q 377 840 379 840 l 374 840 q 256 793 309 838 q 200 674 200 747 q 236 577 200 625 q 321 502 273 528 q 332 499 329 497 q 336 511 335 502 l 379 835 m 368 374 q 363 375 364 376 q 341 212 362 375 q 319 40 319 49 q 327 31 319 31 l 340 31 q 452 78 408 33 q 496 189 496 124 q 459 300 496 253 q 368 374 422 348 z "},"%":{"ha":912,"x_min":65,"x_max":847,"o":"m 494 678 l 460 680 q 456 680 458 680 q 453 679 453 680 q 451 678 452 679 q 450 676 450 678 q 450 674 450 674 q 450 669 450 673 q 450 664 450 666 l 450 645 q 447 591 450 621 q 423 512 445 561 q 369 426 401 464 q 294 366 336 389 q 207 343 251 343 q 130 365 163 343 q 65 503 65 408 q 89 604 65 555 q 135 682 112 653 q 184 735 158 712 q 315 786 243 786 q 410 748 372 786 q 487 710 449 710 q 621 749 555 710 q 701 813 663 775 q 751 864 746 858 q 772 882 767 882 q 787 875 776 882 q 799 862 799 867 q 760 799 799 857 q 188 -52 219 -3 q 155 -61 182 -61 q 128 -46 128 -61 q 241 122 128 -40 q 642 714 650 706 q 632 711 640 715 q 494 678 562 678 m 401 640 q 333 733 401 733 q 270 709 304 733 q 208 647 236 685 q 161 561 180 610 q 142 476 142 512 q 149 420 142 441 q 213 372 165 372 q 317 424 268 372 q 401 640 401 511 m 528 5 q 511 16 528 5 q 479 63 495 27 q 463 140 463 99 q 476 222 463 181 q 514 300 489 263 q 570 366 538 336 q 708 429 638 429 q 813 387 778 429 q 847 273 847 345 q 813 134 847 202 q 722 25 778 66 q 613 -17 665 -17 q 528 5 561 -17 m 729 375 q 605 288 669 375 q 539 108 539 199 q 556 41 539 67 q 608 14 573 14 q 676 35 642 14 q 737 91 710 56 q 799 273 799 171 q 729 375 799 375 z "},"&":{"ha":962,"x_min":44,"x_max":967,"o":"m 740 428 l 742 385 q 680 168 742 276 q 467 -1 606 39 q 349 -15 415 -15 q 223 7 283 -15 q 125 70 164 30 q 44 279 44 153 q 106 448 44 373 q 148 489 124 470 q 173 510 172 509 q 162 525 173 512 q 140 552 151 537 q 111 651 111 594 q 127 750 111 707 q 171 825 142 792 q 342 897 233 897 q 437 881 399 897 q 491 850 476 864 q 506 814 506 836 q 475 739 506 769 q 444 747 461 725 q 308 810 395 810 q 236 789 270 810 q 182 732 202 767 q 162 654 162 697 q 186 574 162 610 q 240 537 210 537 l 317 545 q 347 524 347 545 q 330 492 347 507 q 268 460 294 460 q 203 479 241 460 q 152 434 178 474 q 128 328 128 397 q 166 199 128 258 q 267 109 203 139 q 408 78 330 78 q 616 160 536 78 q 692 368 692 237 q 687 421 692 392 q 678 453 683 451 q 527 492 572 492 q 458 472 481 492 q 435 417 435 452 q 506 346 435 360 q 524 342 518 343 q 558 324 558 337 q 543 299 558 310 q 511 288 527 288 q 474 294 495 288 q 437 313 454 300 q 412 341 421 326 q 396 402 396 370 q 412 469 396 435 q 454 524 428 503 q 586 568 510 568 q 684 546 627 568 q 857 503 792 503 q 910 523 890 503 q 930 576 930 544 q 818 660 930 660 q 799 674 799 660 q 816 712 799 697 q 856 726 834 726 q 898 718 878 726 q 930 696 918 709 q 951 665 942 682 q 967 590 967 633 q 944 509 967 546 q 880 450 922 471 q 805 429 839 429 q 759 432 772 429 q 743 434 746 435 q 740 428 740 434 z "},"'":{"ha":182,"x_min":38,"x_max":144,"o":"m 38 710 q 44 814 38 726 q 52 919 50 902 q 100 960 57 960 q 133 949 121 960 q 144 926 144 938 q 140 893 144 913 q 111 795 135 873 q 86 714 86 716 q 83 706 85 712 q 81 698 81 700 q 78 693 80 696 q 74 689 76 690 q 58 686 66 686 q 38 710 38 686 z "},"(":{"ha":387,"x_min":52,"x_max":336,"o":"m 331 -175 q 304 -199 331 -199 q 196 -65 282 -199 q 64 262 98 88 q 52 392 52 330 q 60 511 52 454 q 83 614 69 568 q 117 704 98 661 q 156 782 136 748 q 199 845 177 816 q 239 896 220 875 q 274 931 258 917 q 312 961 304 961 q 327 954 319 961 q 336 942 336 948 q 329 929 336 937 q 311 907 322 921 q 285 874 300 893 q 254 828 270 854 q 221 771 237 802 q 190 700 205 740 q 164 617 175 660 q 139 433 139 523 q 147 276 139 342 q 169 159 156 210 q 200 61 182 107 q 235 -19 217 15 q 270 -81 253 -52 q 300 -127 287 -110 q 331 -175 331 -168 z "},")":{"ha":387,"x_min":52,"x_max":336,"o":"m 57 938 q 83 961 57 961 q 191 828 106 961 q 323 500 290 674 q 336 370 336 432 q 327 251 336 308 q 304 148 319 194 q 271 58 290 101 q 231 -19 252 15 q 189 -83 210 -54 q 148 -133 168 -113 q 114 -169 129 -154 q 76 -199 83 -199 q 60 -192 68 -199 q 52 -180 52 -185 q 58 -166 52 -175 q 76 -144 65 -158 q 103 -111 88 -131 q 134 -65 117 -92 q 166 -8 150 -39 q 198 63 183 23 q 224 145 212 102 q 249 335 249 239 q 238 504 249 430 q 211 634 228 579 q 173 738 194 689 q 132 819 153 786 q 95 878 112 853 q 67 918 78 903 q 57 938 57 933 z "},"*":{"ha":543,"x_min":38,"x_max":506,"o":"m 83 579 q 73 579 83 579 q 51 590 64 579 q 38 619 38 602 q 72 668 38 654 q 142 694 88 675 q 213 720 197 713 q 233 730 229 726 q 235 736 237 733 q 226 745 233 740 q 213 754 218 750 q 158 789 208 758 q 91 839 107 821 q 75 876 75 857 q 86 907 75 895 q 114 920 97 920 q 159 903 144 920 q 190 862 174 886 q 223 808 205 839 q 246 770 242 777 q 252 761 250 764 q 255 755 255 757 q 258 753 256 754 q 259 751 259 752 q 260 752 259 751 q 262 754 262 754 q 264 759 262 755 q 269 771 266 763 q 283 812 272 778 q 322 910 312 895 q 367 942 343 942 q 402 928 390 942 q 414 897 414 914 q 401 861 414 880 q 345 804 388 842 q 296 760 302 767 q 287 751 290 754 q 284 747 285 748 q 281 744 282 746 q 279 741 279 742 q 278 739 279 740 q 279 737 278 737 q 281 735 280 736 q 286 734 283 734 q 372 730 299 731 q 463 722 445 728 q 506 675 506 708 q 491 643 506 654 q 460 631 477 631 q 417 642 443 631 q 352 674 390 654 q 305 698 314 694 q 290 705 295 703 q 284 708 286 707 q 280 709 282 709 q 277 709 278 710 q 277 706 277 708 q 290 652 276 697 q 319 543 319 563 q 315 511 319 523 q 277 479 305 479 q 237 497 250 479 q 223 532 223 515 q 228 573 223 548 q 238 628 232 597 q 247 674 245 659 q 250 699 250 689 q 246 708 250 708 q 231 697 241 708 q 178 643 220 687 q 119 589 136 599 q 83 579 101 579 z "},"+":{"ha":732,"x_min":39,"x_max":693,"o":"m 67 257 q 44 265 48 257 q 39 288 39 274 q 40 307 39 302 q 43 317 40 312 q 68 327 48 327 l 304 327 q 326 331 321 327 q 331 349 331 336 l 331 593 q 339 614 331 609 q 360 618 347 618 q 378 617 373 618 q 390 614 384 616 q 401 586 401 608 l 401 360 q 408 330 401 334 q 421 327 414 327 l 667 327 q 688 319 684 327 q 693 292 693 311 q 687 265 693 273 q 660 257 682 257 l 421 257 q 401 248 402 257 q 401 241 401 245 l 401 -7 q 394 -30 401 -26 q 365 -35 383 -35 q 339 -30 347 -35 q 331 -5 331 -25 l 331 236 q 326 254 331 251 q 312 257 322 257 l 67 257 z "},",":{"ha":271,"x_min":5,"x_max":219,"o":"m 35 -210 q 30 -210 35 -210 q 15 -197 25 -210 q 5 -179 5 -184 q 14 -166 5 -173 q 66 -122 54 -135 q 87 -100 79 -110 q 108 -76 96 -91 q 132 -19 132 -44 q 118 23 132 5 q 90 56 104 41 q 57 95 57 89 q 87 122 57 106 q 130 138 118 138 q 152 133 142 138 q 174 117 162 127 q 196 94 185 107 q 219 30 219 62 q 201 -36 219 -3 q 157 -99 183 -69 q 104 -154 131 -128 q 35 -210 45 -210 z "},"-":{"ha":372,"x_min":38,"x_max":328,"o":"m 314 282 q 180 276 298 281 q 49 271 61 271 q 38 284 38 271 q 46 317 38 297 q 66 339 55 338 q 195 344 76 340 q 321 349 314 349 q 328 334 328 349 q 314 282 328 284 z "},".":{"ha":292,"x_min":79,"x_max":213,"o":"m 102 9 q 79 57 79 33 q 102 105 79 81 q 146 129 124 129 q 190 106 168 129 q 213 62 213 82 q 206 26 213 42 q 189 3 199 11 q 102 9 144 -36 z "},"/":{"ha":564,"x_min":7,"x_max":555,"o":"m 7 -311 q 36 -225 7 -299 l 476 956 q 499 981 484 980 q 531 982 506 982 q 555 967 555 982 q 535 900 555 950 l 99 -282 q 83 -319 88 -312 q 42 -328 77 -328 q 7 -311 7 -328 z "},":":{"ha":290,"x_min":79,"x_max":253,"o":"m 142 391 q 119 439 119 414 q 142 487 119 463 q 187 511 165 511 q 231 488 209 511 q 253 444 253 464 q 246 408 253 424 q 229 385 239 393 q 142 391 184 346 m 102 9 q 79 57 79 33 q 102 105 79 81 q 146 129 124 129 q 190 106 168 129 q 213 62 213 82 q 206 26 213 42 q 189 3 199 11 q 102 9 144 -36 z "},";":{"ha":271,"x_min":5,"x_max":240,"o":"m 130 391 q 107 439 107 414 q 130 487 107 463 q 174 511 152 511 q 218 488 196 511 q 240 444 240 464 q 233 408 240 424 q 217 385 227 393 q 130 391 172 346 m 35 -210 q 30 -210 35 -210 q 15 -197 25 -210 q 5 -179 5 -184 q 14 -166 5 -173 q 66 -122 54 -135 q 87 -100 79 -110 q 108 -76 96 -91 q 132 -19 132 -44 q 118 23 132 5 q 90 56 104 41 q 57 95 57 89 q 87 122 57 106 q 130 138 118 138 q 152 133 142 138 q 174 117 162 127 q 196 94 185 107 q 219 30 219 62 q 201 -36 219 -3 q 157 -99 183 -69 q 104 -154 131 -128 q 35 -210 45 -210 z "},"<":{"ha":732,"x_min":53,"x_max":681,"o":"m 650 533 q 681 494 681 533 q 655 468 681 477 l 218 314 q 162 289 171 297 q 188 278 166 285 q 218 268 211 271 l 663 113 q 681 93 681 107 q 671 65 681 78 q 650 53 662 53 q 616 60 637 53 q 431 127 595 67 q 75 257 266 188 q 57 269 61 262 q 53 289 53 277 q 54 306 53 301 q 76 325 57 317 q 490 476 356 427 q 650 533 644 533 z "},"=":{"ha":732,"x_min":39,"x_max":693,"o":"m 43 157 q 42 161 43 157 q 40 170 40 165 q 39 185 39 175 q 40 199 39 194 q 43 210 40 204 q 68 219 48 219 l 667 219 q 688 211 684 219 q 693 184 693 203 q 687 157 693 165 q 660 149 682 149 l 67 149 q 43 157 46 149 m 39 389 q 39 402 39 393 q 40 415 39 411 q 43 425 40 420 q 68 435 48 435 l 667 435 q 688 427 684 435 q 693 400 693 419 q 687 373 693 381 q 660 365 682 365 l 67 365 q 39 389 40 365 z "},">":{"ha":732,"x_min":53,"x_max":681,"o":"m 70 113 l 515 268 q 571 289 568 286 q 515 314 564 296 l 76 468 q 53 494 53 476 q 82 533 53 533 q 230 481 88 533 q 655 325 372 428 q 676 312 671 319 q 681 291 681 306 q 676 270 681 277 q 657 257 671 262 q 301 127 466 188 q 86 53 96 53 q 67 60 76 53 q 53 90 53 72 q 70 113 53 108 z "},"?":{"ha":519,"x_min":107,"x_max":475,"o":"m 149 825 q 128 869 128 825 l 128 883 q 144 907 128 904 q 259 917 185 917 q 377 888 333 917 q 447 806 420 860 q 475 708 475 752 q 471 642 475 665 q 458 601 468 620 q 303 426 431 550 q 263 387 271 394 q 240 364 255 379 q 215 340 225 350 q 193 316 205 330 q 168 271 168 288 q 174 241 168 255 q 188 219 180 228 q 201 203 195 210 q 207 192 207 195 q 198 180 207 189 q 184 171 189 171 q 168 181 179 171 q 144 207 156 191 q 113 285 113 247 q 136 359 113 324 q 190 426 159 395 q 253 488 222 458 q 306 538 284 517 q 352 585 327 558 q 393 633 378 612 q 431 712 431 681 q 415 770 431 743 q 333 825 388 818 q 260 829 305 829 l 149 825 m 130 9 q 107 57 107 33 q 130 105 107 81 q 174 129 152 129 q 218 106 196 129 q 240 62 240 82 q 233 26 240 42 q 217 3 227 11 q 130 9 172 -36 z "},"@":{"ha":1104,"x_min":65,"x_max":1039,"o":"m 521 158 q 364 74 436 74 q 316 92 336 74 q 279 193 279 125 q 379 408 279 278 q 558 541 458 509 q 617 553 594 553 q 649 551 639 553 q 666 547 660 549 q 675 545 673 545 q 689 562 676 546 q 710 583 702 578 q 732 588 718 588 q 771 565 771 588 q 767 545 771 555 q 667 317 721 446 q 614 160 614 189 q 617 129 614 133 q 637 121 625 121 q 765 155 695 121 q 887 241 835 189 q 989 468 989 343 q 855 727 989 650 q 654 773 774 773 q 391 705 514 773 q 196 522 270 639 q 121 251 121 400 q 152 100 121 169 q 234 -16 182 31 q 494 -113 343 -113 q 832 -10 685 -113 q 906 49 876 21 q 945 78 936 78 q 961 67 953 78 q 968 50 968 56 q 960 35 968 43 q 750 -110 873 -60 q 490 -161 628 -161 q 283 -113 380 -161 q 127 29 187 -65 q 65 260 65 126 q 249 660 65 491 q 506 802 360 762 q 645 821 578 821 q 767 810 712 821 q 873 773 822 799 q 960 708 923 747 q 1039 478 1039 623 q 918 204 1039 318 q 751 104 852 142 q 568 71 660 71 q 515 105 515 71 q 521 158 515 128 m 421 352 q 412 335 421 352 q 392 279 403 318 q 380 210 380 240 q 396 162 380 180 q 435 144 411 144 q 490 176 460 144 q 544 254 519 208 q 590 350 569 300 q 623 437 611 399 q 635 486 635 474 q 622 507 635 498 q 594 515 610 515 q 556 503 578 515 q 510 468 533 490 q 463 416 486 447 q 421 352 440 385 z "},"A":{"ha":956,"x_min":24,"x_max":932,"o":"m 149 -4 l 46 -8 q 28 -3 32 -8 q 24 18 24 2 q 29 38 24 35 q 53 42 35 42 l 97 42 q 205 221 108 55 q 581 850 514 752 q 601 873 588 861 q 648 933 634 907 q 675 958 661 958 q 697 933 694 958 q 721 784 701 908 q 759 557 742 661 q 798 331 777 453 q 856 42 844 66 l 912 42 q 928 37 924 42 q 932 18 932 32 q 928 -3 932 3 q 912 -8 924 -8 l 787 -4 l 632 -8 q 614 -3 618 -8 q 610 19 610 3 q 615 38 610 35 q 639 42 621 42 l 717 42 l 717 53 q 698 220 717 85 q 677 367 679 354 q 674 383 676 380 q 663 386 672 386 l 394 386 q 378 384 382 386 q 369 373 374 381 q 338 315 365 365 q 295 233 312 266 q 254 155 278 201 q 199 42 204 61 l 290 42 q 306 37 302 42 q 310 18 310 32 q 306 -3 310 3 q 290 -8 302 -8 l 149 -4 m 560 720 q 539 681 560 720 q 466 554 517 643 q 407 449 415 464 q 399 431 399 434 q 419 428 399 428 l 651 428 q 665 431 665 428 q 636 620 665 445 q 605 796 607 796 q 560 720 604 796 z "},"B":{"ha":793,"x_min":24,"x_max":735,"o":"m 190 -4 l 47 -8 q 28 -3 33 -8 q 24 19 24 3 q 29 38 24 35 q 53 42 35 42 l 108 42 q 115 86 108 42 q 131 195 121 129 q 154 344 141 261 q 178 511 166 427 q 199 669 190 595 q 222 872 222 837 l 222 879 l 128 879 q 110 883 114 879 q 105 908 105 887 q 122 928 105 928 l 194 926 q 296 924 267 924 l 449 928 q 712 802 660 928 q 728 723 728 765 q 716 651 728 682 q 688 596 705 619 q 647 553 671 574 q 600 520 622 533 q 551 496 578 507 q 475 469 514 480 q 587 441 548 459 q 652 404 626 423 q 694 361 677 385 q 735 229 735 308 q 329 -8 735 -8 l 190 -4 m 259 256 q 247 166 259 256 q 235 66 235 77 q 241 52 235 55 q 329 46 256 46 q 451 58 402 46 q 536 95 500 70 q 612 251 612 146 q 511 416 612 367 q 364 445 451 445 l 321 445 q 304 444 310 445 q 294 443 298 444 q 289 441 290 443 q 259 256 284 435 m 328 482 l 399 480 q 439 488 423 480 q 476 505 456 495 q 515 528 496 516 q 552 558 534 541 q 583 595 570 576 q 610 696 610 639 q 554 830 610 780 q 404 881 498 881 l 382 881 q 354 874 361 881 q 293 506 341 863 q 292 490 292 499 q 306 482 292 482 l 328 482 z "},"C":{"ha":952,"x_min":44,"x_max":908,"o":"m 801 612 l 833 747 q 782 795 822 766 q 709 844 742 825 q 565 889 630 889 q 450 868 499 889 q 359 811 400 847 q 284 727 319 775 q 227 625 250 679 q 178 412 178 510 q 204 244 178 315 q 275 128 230 174 q 510 32 370 32 q 711 91 617 32 q 761 135 757 119 q 783 205 770 161 q 796 251 795 249 q 833 267 803 277 q 860 249 860 261 q 814 85 860 238 q 703 19 806 59 q 500 -24 595 -24 q 153 102 275 -24 q 44 404 44 213 q 197 784 44 628 q 421 918 292 881 q 562 936 486 936 q 716 903 637 936 q 844 820 795 870 q 847 830 845 823 q 851 844 849 838 q 854 858 852 851 q 864 872 859 872 q 892 867 877 872 q 908 853 908 862 q 897 791 908 847 l 880 704 q 867 641 873 672 q 860 605 861 610 q 857 597 859 600 q 852 594 855 595 q 842 593 848 593 l 838 593 q 813 599 824 593 q 801 612 801 605 z "},"D":{"ha":1030,"x_min":22,"x_max":979,"o":"m 176 -4 l 42 -10 q 26 -5 29 -10 q 22 15 22 0 q 28 35 22 30 q 50 39 35 39 l 107 39 q 164 405 117 72 q 228 868 212 739 q 225 879 228 872 l 129 877 q 112 880 118 877 q 107 898 107 884 q 111 918 107 911 q 129 924 115 924 q 294 922 129 924 l 478 925 q 886 770 757 925 q 979 465 979 657 q 769 68 979 197 q 474 -10 643 -10 l 176 -4 m 263 242 q 258 206 263 242 q 247 124 253 171 q 242 62 242 77 q 248 43 242 46 q 329 39 254 39 q 470 51 404 39 q 584 83 535 63 q 672 131 632 102 q 739 190 712 159 q 787 257 766 221 q 819 326 807 293 q 837 394 830 359 q 849 512 849 451 q 834 628 849 572 q 786 730 819 684 q 706 809 754 777 q 439 878 606 878 q 356 872 356 878 q 337 751 354 867 q 307 549 320 635 q 283 388 294 463 q 263 242 273 313 z "},"E":{"ha":804,"x_min":24,"x_max":781,"o":"m 190 -4 l 47 -8 q 28 -3 33 -8 q 24 19 24 3 q 29 38 24 35 q 53 42 35 42 l 108 42 q 120 114 109 44 q 142 259 131 184 q 169 436 154 333 q 196 621 184 538 q 223 869 223 821 l 222 879 l 142 879 q 119 887 121 879 q 117 904 117 895 q 135 928 117 928 l 201 926 q 296 924 267 924 q 586 928 296 924 q 714 942 712 928 q 736 963 714 963 q 758 959 751 963 q 764 946 764 955 q 759 884 764 936 q 751 767 753 832 q 746 754 751 757 q 726 751 741 751 q 705 755 711 751 q 700 764 700 759 q 708 873 700 770 q 350 882 648 882 q 315 675 337 844 q 293 501 293 506 q 293 495 293 496 q 310 493 294 493 l 537 493 q 598 508 596 493 l 614 585 q 639 594 615 594 q 663 582 663 594 q 652 527 663 573 q 620 357 622 384 q 614 327 617 330 q 596 323 609 323 l 590 323 q 568 335 568 323 l 585 432 q 566 445 585 443 q 519 447 548 447 l 310 447 q 291 446 294 447 q 285 430 288 445 q 260 256 282 416 q 232 54 237 96 q 237 46 232 46 l 681 56 q 704 116 686 61 q 727 183 723 172 q 736 199 731 195 q 752 203 741 203 q 771 198 762 203 q 781 184 781 192 q 773 153 781 176 q 749 87 765 131 q 726 21 733 43 q 713 -4 719 0 q 694 -8 706 -8 l 190 -4 z "},"F":{"ha":751,"x_min":24,"x_max":728,"o":"m 190 -4 l 44 -8 q 27 -3 31 -8 q 24 18 24 2 q 28 38 24 35 q 50 42 33 42 l 108 42 q 120 114 109 44 q 142 259 131 184 q 169 436 154 333 q 196 621 184 538 q 223 869 223 821 l 222 879 l 147 879 q 122 886 127 879 q 117 904 117 893 q 138 928 117 928 l 202 926 q 296 924 267 924 l 586 928 q 670 930 662 928 q 677 936 677 933 q 678 940 677 939 q 679 948 678 941 q 699 963 681 963 q 723 960 718 963 q 728 948 728 957 q 725 917 728 940 q 716 803 718 848 q 710 755 715 759 q 693 751 705 751 q 675 753 680 751 q 668 758 670 754 q 665 777 665 763 q 672 873 665 790 q 350 882 619 882 q 318 682 343 858 q 293 500 293 506 q 295 494 293 494 q 310 493 296 493 l 526 493 q 588 508 584 493 l 598 568 q 623 581 600 581 q 647 568 647 581 q 639 519 647 559 q 627 459 631 478 q 621 418 624 440 q 614 374 617 395 q 611 350 612 354 q 596 337 609 337 q 579 338 583 337 q 571 339 576 338 q 561 349 561 341 q 565 378 562 357 q 571 415 569 399 q 574 434 574 430 q 570 440 574 437 q 508 447 562 447 l 310 447 q 291 446 294 447 q 285 430 288 445 q 260 254 282 416 q 232 50 237 92 q 239 42 230 42 l 332 42 q 346 37 343 42 q 349 22 349 33 q 348 8 349 12 q 348 1 348 5 q 345 -5 347 -3 q 332 -8 341 -8 l 190 -4 z "},"G":{"ha":1001,"x_min":44,"x_max":964,"o":"m 842 647 q 865 790 861 743 q 783 838 853 806 q 585 899 649 899 q 470 877 522 899 q 375 818 418 855 q 297 730 333 781 q 237 623 261 680 q 185 401 185 504 q 210 229 185 299 q 279 113 236 159 q 503 15 371 15 q 706 76 632 15 q 725 99 723 89 q 750 286 746 179 l 750 295 q 742 301 750 301 l 621 301 q 608 326 608 301 q 622 351 608 351 l 806 347 l 951 351 q 964 335 964 351 l 964 321 q 951 301 964 301 l 872 301 q 858 199 867 284 q 848 104 849 114 q 822 76 847 94 q 755 39 798 59 q 661 1 712 19 q 428 -40 541 -40 q 168 56 280 -40 q 44 370 44 163 q 118 655 44 521 q 308 862 189 784 q 582 942 430 942 q 871 858 733 942 q 874 875 873 864 q 877 893 876 886 q 896 910 879 910 q 929 893 932 910 q 904 712 912 782 q 895 638 896 643 q 866 626 890 626 q 842 647 842 626 z "},"H":{"ha":1104,"x_min":24,"x_max":1081,"o":"m 189 -4 l 44 -8 q 27 -3 31 -8 q 24 18 24 3 q 28 37 24 32 q 50 42 33 42 l 124 42 q 192 450 137 76 q 246 853 246 824 q 237 883 246 883 l 147 883 q 135 888 138 883 q 132 909 132 893 q 137 929 132 925 q 157 933 142 933 l 310 929 l 450 933 q 469 928 465 933 q 474 906 474 922 q 468 887 474 890 q 445 883 463 883 l 376 883 q 338 680 365 859 q 313 496 312 502 q 327 490 315 490 l 796 490 q 811 503 809 490 q 853 841 853 805 q 851 881 853 878 q 844 883 850 883 l 757 883 q 739 904 739 883 q 745 929 739 925 q 767 933 751 933 l 918 929 l 1057 933 q 1076 928 1072 933 q 1081 906 1081 922 q 1075 887 1081 890 q 1052 883 1069 883 l 983 883 q 892 260 962 843 q 869 54 869 66 q 877 42 869 42 l 956 42 q 971 37 967 42 q 975 18 975 32 q 971 -3 975 3 q 956 -8 967 -8 l 797 -4 l 665 -8 q 646 -3 651 -8 q 642 19 642 3 q 647 38 642 35 q 671 42 653 42 l 742 42 q 749 74 745 52 q 755 113 752 96 q 761 155 758 130 q 768 202 765 181 q 776 257 771 223 q 784 313 781 290 q 793 375 787 337 q 800 427 798 412 q 802 444 802 441 q 790 449 801 449 l 321 449 q 306 446 309 449 q 301 431 303 444 q 257 74 257 106 q 264 42 257 42 l 346 42 q 361 37 358 42 q 365 18 365 32 q 361 -3 365 3 q 346 -8 358 -8 l 189 -4 z "},"I":{"ha":524,"x_min":24,"x_max":500,"o":"m 204 -4 l 47 -8 q 28 -3 33 -8 q 24 19 24 3 q 29 38 24 35 q 53 42 35 42 l 133 42 q 201 448 146 80 q 256 850 256 816 q 247 883 256 883 l 154 883 q 135 904 135 883 q 141 929 135 925 q 162 933 147 933 q 325 929 162 933 l 476 933 q 496 928 491 933 q 500 906 500 922 q 495 887 500 890 q 471 883 489 883 l 393 883 q 326 484 378 851 q 274 56 274 118 q 280 42 274 42 l 372 42 q 388 37 384 42 q 392 18 392 32 q 388 -3 392 3 q 372 -8 384 -8 l 204 -4 z "},"J":{"ha":507,"x_min":-85,"x_max":483,"o":"m 322 929 l 460 933 q 479 928 474 933 q 483 906 483 922 q 478 887 483 890 q 454 883 472 883 l 386 883 q 342 620 373 856 q 288 199 292 227 q 282 147 285 171 q 276 107 278 123 q 269 63 274 92 q 259 15 264 34 q 247 -30 254 -3 q 230 -78 239 -57 q 209 -122 221 -99 q 95 -258 173 -193 q -7 -299 46 -299 q -66 -286 -46 -299 q -85 -258 -85 -273 q -71 -224 -85 -243 q -40 -195 -58 -206 q 12 -168 -1 -168 q 48 -183 25 -168 q 85 -197 71 -197 q 133 -122 118 -197 q 143 -53 139 -92 q 154 64 146 -13 q 190 355 162 141 q 236 712 217 569 q 256 863 256 855 q 255 875 256 872 q 246 883 255 883 l 149 883 q 126 888 134 883 q 119 908 119 892 q 126 929 119 925 q 149 933 133 933 l 322 929 z "},"K":{"ha":911,"x_min":24,"x_max":887,"o":"m 161 -4 l 44 -8 q 27 -3 31 -8 q 24 17 24 3 q 30 37 24 32 q 53 42 35 42 l 96 42 q 167 450 110 76 q 225 854 225 825 q 217 883 225 883 l 138 883 q 117 908 117 883 q 124 929 117 925 q 147 933 131 933 l 289 929 q 418 933 289 929 q 435 928 432 933 q 439 906 439 923 q 434 887 439 890 q 413 883 430 883 l 361 883 q 300 600 343 867 q 284 493 286 511 q 299 474 283 474 l 367 474 q 495 625 377 474 q 649 827 613 775 q 686 881 686 878 q 671 883 686 883 l 639 883 q 617 888 624 883 q 611 908 611 892 q 617 929 611 925 q 636 933 623 933 l 738 929 l 849 933 q 868 928 863 933 q 872 906 872 922 q 867 887 872 890 q 843 883 861 883 l 765 883 q 463 522 661 743 q 442 497 442 499 q 463 475 442 494 q 530 401 485 455 q 608 303 574 348 q 699 179 641 258 q 773 77 756 100 q 829 42 799 42 l 871 42 q 885 37 882 42 q 887 22 887 33 q 887 8 887 12 q 886 1 887 5 q 884 -5 886 -3 q 871 -8 880 -8 l 710 -4 l 598 -8 q 581 -3 585 -8 q 578 18 578 2 q 583 38 578 35 q 607 42 589 42 l 618 42 q 642 47 642 42 q 626 72 642 52 q 356 440 365 440 l 288 440 q 275 431 277 440 q 254 290 269 384 q 223 53 223 82 l 225 42 l 318 42 q 334 37 330 42 q 337 18 337 32 q 334 -3 337 3 q 318 -8 330 -8 l 161 -4 z "},"L":{"ha":814,"x_min":24,"x_max":790,"o":"m 185 -4 l 46 -8 q 28 -3 32 -8 q 24 18 24 2 q 29 38 24 34 q 52 42 35 42 l 121 42 q 178 467 130 93 q 227 869 227 841 l 227 883 l 144 883 q 125 888 130 883 q 121 909 121 893 q 125 929 121 925 q 147 933 130 933 l 289 929 q 442 933 289 929 q 464 929 459 933 q 469 909 469 924 q 463 889 469 895 q 440 883 457 883 l 358 883 q 301 454 350 824 q 251 72 251 85 q 256 53 251 59 q 303 47 261 47 q 441 49 345 47 q 692 58 688 54 q 703 85 695 62 l 739 194 q 757 207 744 209 q 790 188 790 203 q 783 163 790 185 q 745 38 756 76 q 729 -5 734 -1 q 712 -8 724 -8 l 185 -4 z "},"M":{"ha":1226,"x_min":24,"x_max":1203,"o":"m 147 -4 l 47 -8 q 28 -3 33 -8 q 24 19 24 3 q 29 38 24 35 q 53 42 35 42 l 117 42 q 181 331 132 114 q 300 877 300 865 q 270 883 300 883 l 205 883 q 190 888 194 883 q 186 907 186 893 q 190 928 186 922 q 205 933 194 933 l 351 929 l 417 933 q 443 926 438 933 q 449 912 448 919 l 589 205 q 600 180 595 180 q 614 199 606 180 q 664 303 623 218 q 715 410 704 388 q 760 502 725 431 q 812 608 794 573 q 859 701 829 643 q 980 924 966 913 q 1000 929 987 929 l 1061 929 l 1179 933 q 1198 928 1194 933 q 1203 906 1203 922 q 1197 887 1203 890 q 1174 883 1192 883 l 1114 883 q 1063 429 1099 760 q 1025 42 1027 97 l 1128 42 q 1145 37 1140 42 q 1150 18 1150 33 q 1146 -3 1150 3 q 1131 -8 1142 -8 l 961 -4 l 828 -8 q 809 -3 813 -8 q 804 19 804 3 q 810 38 804 35 q 833 42 815 42 l 886 42 q 933 318 905 66 q 992 842 975 675 q 912 690 977 813 q 823 519 847 566 q 688 248 734 347 q 629 132 641 149 q 607 104 617 114 q 553 45 570 66 q 522 17 532 17 q 494 50 499 17 q 407 522 468 219 q 345 839 347 826 q 271 526 301 676 q 183 42 189 123 l 270 42 q 285 37 281 42 q 289 18 289 32 q 285 -3 289 3 q 270 -8 281 -8 l 147 -4 z "},"N":{"ha":1144,"x_min":24,"x_max":1121,"o":"m 168 -4 l 47 -8 q 28 -3 33 -8 q 24 19 24 3 q 29 38 24 35 q 53 42 35 42 l 118 42 q 203 530 149 230 q 257 842 257 830 q 257 856 257 854 q 255 858 256 857 q 253 862 255 859 q 248 872 251 865 q 221 883 242 883 l 138 883 q 123 888 126 883 q 121 905 121 892 q 121 923 121 918 q 138 933 123 933 l 296 929 l 358 933 q 390 914 378 933 l 846 221 q 864 205 857 205 q 896 374 872 226 q 961 871 961 781 l 961 883 l 857 883 q 841 888 845 883 q 838 907 838 893 q 841 928 838 922 q 857 933 845 933 l 981 929 l 1097 933 q 1116 928 1112 933 q 1121 906 1121 922 q 1115 887 1121 890 q 1092 883 1109 883 l 1036 883 q 926 239 1021 834 q 907 68 913 153 q 897 -26 902 -18 q 882 -33 892 -33 q 868 -31 873 -33 q 858 -22 863 -28 q 850 -12 853 -17 q 842 1 847 -8 q 672 262 783 99 l 317 782 q 301 799 305 798 q 296 796 298 801 q 295 788 295 791 q 286 734 294 785 q 268 615 278 683 q 245 460 257 547 q 222 296 232 373 q 197 58 197 112 l 199 42 l 315 42 q 331 37 327 42 q 335 18 335 32 q 331 -3 335 3 q 315 -8 327 -8 l 168 -4 z "},"O":{"ha":1019,"x_min":44,"x_max":975,"o":"m 127 110 q 108 134 127 110 q 67 230 89 159 q 44 386 44 301 q 65 546 44 471 q 123 681 86 621 q 210 789 160 740 q 317 871 259 838 q 564 939 437 939 q 784 881 690 939 q 926 721 877 824 q 975 483 975 618 q 826 119 975 271 q 600 -16 730 21 q 465 -35 534 -35 q 334 -20 395 -35 q 220 28 273 -5 q 127 110 166 61 m 195 518 q 180 406 180 457 q 186 315 180 355 q 203 236 192 275 q 233 163 215 197 q 276 100 251 129 q 332 51 301 71 q 488 7 397 7 q 745 179 637 7 q 829 403 804 275 q 840 507 840 463 q 836 587 840 552 q 821 660 831 623 q 795 730 810 696 q 758 793 781 764 q 709 845 736 823 q 569 892 650 892 q 300 736 422 892 q 195 518 225 639 z "},"P":{"ha":791,"x_min":24,"x_max":747,"o":"m 190 -4 l 47 -8 q 28 -3 33 -8 q 24 19 24 3 q 29 38 24 35 q 53 42 35 42 l 108 42 q 223 869 223 835 l 222 879 l 144 879 q 120 887 122 879 q 117 904 117 896 q 135 928 117 928 l 197 926 q 289 924 260 924 q 451 930 289 924 q 671 862 593 930 q 747 689 747 795 q 663 492 747 562 q 404 415 572 415 l 299 418 q 282 416 286 418 q 276 404 279 415 q 232 50 266 357 q 239 42 230 42 l 332 42 q 346 37 343 42 q 349 22 349 33 q 348 8 349 12 q 348 1 348 5 q 345 -5 347 -3 q 332 -8 341 -8 l 190 -4 m 285 462 q 285 459 285 462 q 292 455 285 457 q 335 453 300 453 q 414 460 370 453 q 497 485 457 468 q 567 529 537 503 q 632 684 632 586 q 574 835 632 782 q 404 889 516 889 q 346 885 356 889 q 301 584 317 702 q 285 462 285 467 z "},"Q":{"ha":996,"x_min":18,"x_max":1015,"o":"m 1007 -199 q 1015 -218 1015 -199 q 975 -237 1015 -223 q 781 -279 859 -279 q 619 -267 703 -279 q 465 -237 534 -254 q 336 -201 395 -219 q 237 -171 277 -183 q 190 -158 197 -158 q 130 -174 169 -158 q 68 -189 90 -189 q 32 -178 46 -189 q 18 -149 18 -168 q 162 -87 18 -87 l 261 -95 q 308 -81 277 -95 q 391 -41 338 -68 q 445 -13 444 -14 q 426 -9 445 -11 q 382 -1 407 -6 q 316 18 357 4 q 241 51 275 32 q 169 104 207 70 q 105 180 131 138 q 44 424 44 277 q 153 733 44 585 q 325 883 220 824 q 553 942 430 942 q 844 820 731 942 q 951 521 951 702 q 808 148 951 299 q 573 6 712 47 q 483 -30 531 -7 q 391 -76 436 -53 q 347 -103 347 -100 q 455 -136 347 -107 q 868 -214 749 -214 q 974 -206 942 -214 q 1007 -199 1005 -199 m 172 398 q 192 263 172 326 q 243 156 211 199 q 320 84 276 114 q 511 28 403 28 q 574 55 537 28 q 638 110 612 82 q 691 170 665 137 q 741 247 718 203 q 783 336 765 290 q 822 536 822 438 q 802 697 822 633 q 743 804 781 761 q 535 893 665 893 q 374 828 459 893 q 233 654 292 766 q 172 398 172 538 z "},"R":{"ha":868,"x_min":24,"x_max":830,"o":"m 190 -4 l 47 -8 q 28 -4 32 -8 q 24 16 24 1 q 30 37 24 32 q 53 42 35 42 l 105 42 q 170 464 131 193 q 221 879 221 822 l 131 879 q 108 887 110 879 q 105 904 105 895 q 128 928 105 928 q 282 924 128 928 l 479 933 q 623 905 558 933 q 726 823 688 876 q 764 704 764 771 q 508 452 764 516 q 502 450 504 450 q 519 444 505 449 q 583 421 556 432 q 743 189 743 357 l 739 53 q 740 42 739 49 l 803 42 q 825 37 820 42 q 830 12 830 32 q 820 -8 830 -8 l 612 -4 q 604 18 597 -4 q 626 236 626 147 q 575 353 626 301 q 442 422 523 406 q 345 429 407 429 l 304 429 q 272 400 277 429 q 232 50 236 149 q 239 42 232 42 l 313 42 q 330 37 325 42 q 335 18 335 33 q 331 -3 335 3 q 315 -8 327 -8 l 190 -4 m 318 471 l 415 467 q 532 510 472 467 q 637 692 637 587 q 404 889 637 889 q 339 885 351 889 l 289 503 q 288 485 288 494 q 292 474 288 476 q 308 471 297 471 l 318 471 z "},"S":{"ha":701,"x_min":52,"x_max":657,"o":"m 156 800 q 175 832 156 800 q 259 898 193 863 q 412 933 325 933 q 598 857 499 933 q 603 879 600 863 q 607 898 606 895 q 609 904 608 902 q 611 907 609 905 q 614 911 613 910 q 624 914 619 915 q 635 913 629 913 q 645 911 641 912 q 657 900 657 909 q 612 664 657 890 q 594 647 609 647 q 563 667 563 647 l 573 709 q 583 760 583 752 q 574 781 582 768 q 548 810 565 793 q 509 844 531 828 q 387 882 457 882 q 270 833 316 882 q 225 703 225 784 q 304 569 225 620 q 390 524 344 544 q 448 497 435 503 q 484 478 461 491 q 520 457 508 466 q 553 434 533 449 q 583 407 572 420 q 607 375 594 394 q 627 338 620 357 q 643 249 643 291 q 633 174 643 207 q 607 115 624 141 q 568 66 590 89 q 518 28 545 44 q 463 0 492 12 q 253 -14 371 -36 q 127 28 174 2 q 52 93 52 71 q 67 188 52 100 q 84 281 83 277 q 96 285 86 285 q 120 281 106 285 q 135 271 135 277 l 111 140 q 195 75 111 121 q 364 26 284 26 q 495 74 445 26 q 545 193 545 121 q 491 301 545 257 q 391 363 450 334 q 297 410 332 392 q 230 452 261 428 q 173 503 198 475 q 119 650 119 564 q 156 800 119 737 z "},"T":{"ha":946,"x_min":24,"x_max":922,"o":"m 54 739 q 24 758 24 739 q 31 782 24 760 q 76 911 66 881 q 88 946 85 942 q 92 952 90 950 q 99 956 94 955 q 117 957 105 957 q 136 936 136 957 l 136 930 q 279 922 155 922 l 732 922 q 872 933 870 922 q 878 951 873 946 q 897 957 882 957 q 917 953 911 957 q 922 938 922 949 l 910 754 q 903 742 910 745 q 884 739 896 739 q 868 740 872 739 q 862 745 864 741 q 860 760 860 749 l 868 869 q 724 875 856 875 l 576 875 q 563 851 566 875 q 499 408 548 757 q 450 51 450 60 q 457 42 450 42 l 546 42 q 562 37 558 42 q 565 18 565 32 q 562 -3 565 3 q 546 -8 558 -8 l 379 -4 l 222 -8 q 205 -3 208 -8 q 201 18 201 2 q 206 38 201 35 q 228 42 211 42 l 304 42 q 379 466 322 77 q 436 861 436 855 l 436 869 q 432 875 436 875 l 242 875 q 114 863 118 875 l 81 765 q 70 744 75 750 q 54 739 66 739 z "},"U":{"ha":1054,"x_min":79,"x_max":1030,"o":"m 893 922 l 1007 926 q 1026 921 1022 926 q 1030 899 1030 915 q 1025 880 1030 883 q 1001 877 1019 877 l 960 877 q 944 790 953 846 q 921 656 934 733 q 898 520 908 579 q 868 351 888 460 q 812 82 832 151 q 785 5 792 13 q 766 -3 778 -3 q 742 17 743 -3 q 737 58 740 32 q 730 105 733 105 q 723 104 727 105 q 713 99 720 102 q 701 92 707 95 q 685 83 695 89 q 372 -14 519 -14 q 155 70 233 -14 q 101 210 101 126 q 147 558 101 276 q 193 873 193 840 l 193 877 l 105 877 q 81 885 84 877 q 79 905 79 892 q 85 922 79 918 q 105 926 90 926 l 236 922 l 378 926 q 395 921 392 926 q 399 899 399 916 q 394 880 399 883 q 372 877 390 877 l 327 877 q 293 723 318 859 q 247 439 268 587 q 225 249 225 290 q 236 178 225 208 q 263 129 247 148 q 302 97 279 111 q 345 76 325 83 q 389 65 365 69 q 462 60 419 60 q 568 82 505 60 q 674 131 632 104 q 727 217 711 158 q 767 420 743 277 q 800 609 792 562 q 838 877 828 774 l 746 877 q 720 885 723 877 q 717 905 717 893 q 724 922 717 918 q 746 926 730 926 l 893 922 z "},"V":{"ha":925,"x_min":24,"x_max":901,"o":"m 796 922 l 877 926 q 896 921 891 926 q 901 900 901 916 q 895 880 901 884 q 870 877 889 877 q 848 876 851 877 q 842 868 844 875 l 406 121 q 375 81 400 112 q 331 21 350 51 q 280 -28 298 -28 q 256 -12 261 -28 q 234 126 251 4 q 168 549 218 248 q 107 877 119 850 l 53 877 q 27 885 30 877 q 24 905 24 893 q 31 922 24 918 q 53 926 37 926 l 180 922 l 327 926 q 346 921 341 926 q 350 899 350 915 q 344 880 350 883 q 321 877 339 877 l 244 877 q 243 860 243 877 q 286 541 243 844 q 339 181 329 238 q 353 125 350 125 q 377 159 356 125 q 593 547 453 281 l 757 860 q 760 865 758 862 q 763 874 763 872 q 753 877 763 877 l 660 877 q 634 885 637 877 q 631 905 631 893 q 637 922 631 918 q 659 926 643 926 l 796 922 z "},"W":{"ha":1402,"x_min":24,"x_max":1379,"o":"m 1333 877 l 1322 876 q 1319 876 1320 876 q 1316 875 1317 875 q 1313 873 1314 874 q 1311 870 1312 871 q 1308 867 1310 870 q 1306 863 1307 864 q 1303 857 1305 861 q 1291 833 1301 852 q 1236 725 1281 813 q 1165 588 1191 636 q 1030 337 1094 449 l 908 121 q 878 80 903 111 q 827 11 853 49 q 783 -28 802 -28 q 759 -12 764 -28 q 724 207 754 4 q 677 500 693 410 q 661 590 662 590 q 651 576 660 590 l 397 121 q 367 81 392 111 q 322 20 342 50 q 273 -28 291 -28 q 251 -12 256 -28 q 229 123 245 4 q 164 544 213 241 q 105 877 116 847 l 53 877 q 27 885 30 877 q 24 905 24 893 q 31 922 24 918 q 53 926 37 926 l 180 922 l 318 926 q 337 921 333 926 q 342 899 342 915 q 336 880 342 883 q 313 877 331 877 l 239 877 q 237 862 237 877 q 275 569 237 847 q 342 131 333 131 q 393 212 344 131 q 545 483 443 293 q 648 680 647 674 q 638 774 648 686 q 624 877 628 862 l 565 877 q 539 885 543 877 q 536 905 536 893 q 543 922 536 918 q 565 926 550 926 l 683 922 l 860 926 q 880 921 874 926 q 885 900 885 916 q 879 880 885 884 q 854 877 872 877 l 754 877 q 753 860 753 872 q 769 703 753 847 q 839 140 818 283 q 847 115 843 115 q 882 173 850 115 q 1048 493 915 230 q 1207 809 1181 755 q 1234 865 1233 862 q 1238 874 1238 872 q 1228 877 1238 877 l 1139 877 q 1113 885 1116 877 q 1110 905 1110 893 q 1116 922 1110 918 q 1138 926 1122 926 l 1271 922 l 1354 926 q 1374 921 1369 926 q 1379 900 1379 916 q 1373 880 1379 884 q 1349 877 1367 877 l 1333 877 z "},"X":{"ha":918,"x_min":24,"x_max":895,"o":"m 138 -4 l 50 -8 q 30 -4 35 -8 q 24 17 24 1 q 30 37 24 33 q 50 42 36 42 l 86 42 q 227 214 97 46 q 389 422 356 382 q 423 466 422 462 q 419 479 424 470 l 246 832 q 219 877 226 873 l 160 877 q 134 885 137 877 q 131 905 131 893 q 137 922 131 918 q 160 926 144 926 l 292 922 l 433 926 q 453 921 448 926 q 457 899 457 915 q 451 880 457 883 q 428 877 446 877 l 358 877 q 361 870 358 875 q 366 854 363 865 q 414 742 369 844 q 507 546 499 546 q 610 687 512 546 q 738 875 738 867 l 738 877 l 674 877 q 650 880 656 877 q 645 899 645 883 q 649 921 645 915 q 668 926 653 926 l 763 922 l 868 926 q 889 922 883 926 q 895 901 895 917 q 889 881 895 885 q 868 877 883 877 l 829 877 q 602 595 807 860 l 533 507 q 529 499 529 502 q 540 477 529 496 q 613 340 551 457 q 779 42 765 54 l 844 42 q 866 37 859 42 q 873 17 873 33 q 867 -4 873 0 q 844 -8 860 -8 l 706 -4 l 545 -8 q 525 -3 530 -8 q 521 19 521 3 q 526 38 521 35 q 550 42 532 42 l 615 42 l 629 43 q 627 49 629 44 q 617 72 625 53 q 579 156 609 92 q 508 303 548 220 q 458 405 467 386 q 447 424 449 424 q 415 386 445 424 q 283 204 385 348 q 179 43 180 60 q 193 42 182 42 l 250 42 q 273 38 268 42 q 279 19 279 35 q 275 -3 279 3 q 256 -8 270 -8 l 138 -4 z "},"Y":{"ha":851,"x_min":24,"x_max":828,"o":"m 318 -4 l 185 -8 q 168 -3 171 -8 q 164 18 164 3 q 169 37 164 32 q 190 42 173 42 l 251 42 q 279 176 258 51 q 303 322 299 301 q 312 373 307 343 q 317 418 317 402 q 223 636 317 422 q 115 883 130 850 l 53 883 q 31 888 38 883 q 24 908 24 892 q 31 929 24 925 q 53 933 37 933 l 193 929 l 317 933 q 335 928 331 933 q 339 906 339 922 q 334 887 339 890 q 311 883 329 883 l 256 883 q 257 877 256 882 q 269 838 259 871 q 342 649 279 805 q 408 490 406 493 q 414 490 410 488 q 423 500 418 493 q 434 518 427 507 q 477 581 441 528 q 541 676 513 634 q 600 766 569 718 q 665 883 665 867 l 596 883 q 572 887 578 883 q 567 906 567 890 q 571 928 567 922 q 590 933 576 933 l 699 929 l 806 933 q 824 929 820 933 q 828 908 828 925 q 823 887 828 891 q 806 883 819 883 l 753 883 q 618 704 736 866 q 446 460 500 542 q 435 429 438 446 l 388 144 q 374 51 374 60 q 375 42 374 42 l 464 42 q 479 37 476 42 q 483 18 483 32 q 479 -3 483 3 q 464 -8 476 -8 l 318 -4 z "},"Z":{"ha":832,"x_min":44,"x_max":794,"o":"m 689 -8 l 60 -4 q 47 1 51 -4 q 44 18 44 6 q 173 210 44 29 q 452 602 301 391 q 618 834 604 813 q 634 858 632 856 q 636 861 636 861 q 637 863 636 862 q 637 866 638 865 q 636 867 637 866 q 634 869 636 868 q 631 869 633 869 q 625 869 628 869 l 257 869 q 199 857 202 869 q 192 819 197 844 q 184 775 188 794 q 180 752 181 756 q 178 745 179 747 q 165 736 175 738 l 158 736 q 125 750 125 736 q 132 785 125 754 q 155 916 152 883 q 160 951 158 949 q 165 956 161 954 q 189 957 170 957 q 208 946 208 957 l 208 933 q 283 922 208 922 l 767 922 q 788 917 781 922 q 794 897 794 912 q 681 724 794 888 q 562 554 567 561 q 548 534 557 546 q 519 492 540 522 q 447 387 498 461 q 361 264 395 313 q 294 166 327 215 q 224 58 225 67 q 235 48 223 48 l 661 53 q 684 71 677 53 q 715 197 690 90 q 744 208 718 208 q 769 190 769 208 q 748 105 769 184 q 723 9 727 26 q 689 -8 719 -8 z "},"[":{"ha":411,"x_min":107,"x_max":360,"o":"m 107 -179 l 107 942 q 111 958 107 954 q 128 963 115 963 l 340 963 q 356 959 352 963 q 360 946 360 956 l 360 926 q 356 908 360 912 q 340 904 353 904 l 192 904 q 179 903 181 904 q 178 892 178 901 l 178 -129 q 179 -140 178 -139 q 192 -142 181 -142 l 340 -142 q 356 -145 353 -142 q 360 -164 360 -149 l 360 -180 q 356 -196 360 -191 q 340 -200 353 -200 l 129 -200 q 111 -197 115 -200 q 107 -179 107 -194 z "},"\\":{"ha":564,"x_min":8,"x_max":557,"o":"m 557 -311 q 524 -328 557 -328 q 484 -322 491 -328 q 473 -302 478 -317 q 467 -287 467 -288 q 465 -282 466 -283 l 29 900 q 8 966 8 950 q 33 982 8 982 q 65 981 58 982 q 77 977 72 981 q 87 956 83 972 l 528 -225 q 557 -311 557 -299 z "},"]":{"ha":411,"x_min":52,"x_max":304,"o":"m 52 -164 q 55 -145 52 -149 q 71 -142 58 -142 l 219 -142 q 232 -140 230 -142 q 233 -129 233 -139 l 233 892 q 232 903 233 901 q 219 904 230 904 l 71 904 q 55 908 58 904 q 52 926 52 912 l 52 943 q 55 958 52 954 q 71 963 58 963 l 282 963 q 300 959 296 963 q 304 943 304 956 l 304 -178 q 299 -198 304 -197 q 286 -200 293 -200 l 71 -200 q 55 -197 59 -200 q 52 -183 52 -193 l 52 -164 z "},"^":{"ha":558,"x_min":65,"x_max":498,"o":"m 143 428 q 100 424 117 424 q 65 429 82 424 l 271 879 l 272 881 q 282 882 276 882 q 292 881 288 882 l 293 879 l 498 429 q 463 424 481 424 q 419 428 444 424 l 418 428 l 279 743 l 146 428 l 143 428 z "},"_":{"ha":569,"x_min":31,"x_max":539,"o":"m 31 -57 q 36 -36 31 -42 q 54 -31 41 -31 l 519 -31 q 535 -36 532 -31 q 539 -50 539 -41 l 539 -70 q 519 -101 539 -101 l 50 -101 q 34 -95 37 -101 q 31 -74 31 -90 l 31 -57 z "},"`":{"ha":555,"x_min":174,"x_max":303,"o":"m 265 810 l 303 626 q 293 620 303 620 l 272 620 q 258 631 264 620 l 179 779 q 174 804 174 788 q 187 833 174 820 q 220 846 200 846 q 265 810 259 846 z "},"a":{"ha":601,"x_min":31,"x_max":571,"o":"m 390 -19 q 349 18 349 -19 q 415 278 349 62 q 280 89 339 150 q 206 16 220 28 q 130 -18 168 -16 q 125 -18 127 -18 q 55 11 80 -18 q 31 78 31 39 q 37 158 31 117 q 57 244 43 199 q 89 330 70 288 q 135 411 108 373 q 193 479 162 450 q 350 542 261 542 q 389 529 363 542 q 424 505 415 517 q 438 483 432 493 q 453 463 451 463 q 472 519 458 463 q 537 537 476 537 q 560 528 560 537 q 532 420 560 518 q 447 96 447 127 q 463 64 447 64 q 510 103 473 64 q 553 142 547 142 q 564 134 558 142 q 571 121 571 127 q 551 92 571 114 q 504 46 531 71 q 445 1 477 21 q 390 -19 412 -19 m 187 348 q 175 320 187 348 q 147 235 163 293 q 132 147 132 176 q 133 109 132 118 q 137 87 134 99 q 165 64 143 64 q 219 89 187 64 q 285 154 251 114 q 411 329 355 237 q 426 369 421 346 q 432 406 432 393 q 420 434 432 419 q 389 458 408 449 q 316 478 350 478 q 247 440 281 478 q 187 348 212 402 z "},"b":{"ha":629,"x_min":31,"x_max":598,"o":"m 48 1 q 31 17 31 1 q 50 52 31 32 q 57 64 57 62 q 80 183 58 72 q 141 561 101 295 q 180 850 180 826 q 175 873 180 873 l 56 842 q 44 883 44 842 q 54 899 44 896 q 288 951 271 951 q 304 933 304 951 q 280 770 304 924 q 251 587 256 615 q 185 249 246 559 q 304 428 274 390 q 351 484 335 467 q 379 510 366 500 q 409 528 392 519 q 492 543 440 543 q 578 510 544 543 q 598 443 598 489 q 588 346 598 396 q 559 255 577 296 q 515 176 540 213 q 462 109 490 138 q 403 56 434 80 q 343 17 373 32 q 244 -15 281 -15 q 179 -5 207 -15 q 133 14 151 4 q 113 24 116 24 q 85 13 111 24 q 48 1 60 1 m 297 346 q 269 308 297 346 q 201 205 242 270 q 160 109 160 139 q 182 55 160 78 q 242 32 205 32 q 309 52 278 32 q 366 103 340 72 q 417 175 393 135 q 458 255 441 215 q 494 392 494 342 q 466 462 494 444 q 439 469 455 469 q 406 463 422 469 q 375 444 390 456 q 297 346 351 421 z "},"c":{"ha":558,"x_min":31,"x_max":518,"o":"m 397 406 l 399 439 q 384 483 399 465 q 334 502 368 502 q 261 476 299 502 q 193 408 222 451 q 146 308 164 365 q 129 220 129 251 q 130 181 129 189 q 133 157 130 173 q 141 130 136 141 q 156 104 146 118 q 182 81 167 90 q 261 60 217 60 q 340 71 306 60 q 401 98 375 82 q 448 130 427 114 q 482 157 469 146 q 498 168 495 168 q 510 159 502 168 q 518 146 518 151 q 506 128 518 141 q 473 96 494 115 q 424 59 453 78 q 363 22 394 39 q 147 -5 249 -39 q 31 178 31 34 q 136 448 31 336 q 272 536 194 510 q 342 547 308 547 q 460 508 424 547 q 496 430 496 469 q 478 371 496 392 q 432 350 460 350 q 397 406 397 350 z "},"d":{"ha":657,"x_min":31,"x_max":661,"o":"m 36 63 q 31 103 31 81 q 35 155 31 125 q 50 219 40 185 q 74 290 59 254 q 107 361 89 326 q 150 426 125 396 q 201 480 174 457 q 333 531 261 531 q 439 507 392 531 q 454 499 447 502 q 474 510 470 490 q 507 725 490 601 q 526 856 525 850 q 525 867 527 862 q 518 871 522 872 q 458 855 514 869 q 397 840 403 840 q 390 853 390 840 q 391 876 390 867 q 406 895 393 891 q 547 929 478 910 q 620 947 616 947 q 639 922 639 947 q 604 719 639 914 q 500 83 500 132 q 514 67 500 67 q 549 83 527 67 q 590 118 571 99 q 625 153 609 137 q 643 170 640 170 q 654 163 647 170 q 661 154 661 157 q 652 138 661 151 q 629 106 644 125 q 592 66 614 87 q 546 27 570 45 q 436 -14 491 -14 q 406 1 418 -14 q 394 50 394 15 q 445 300 394 85 q 337 136 384 197 q 270 54 291 76 q 142 -10 210 -10 q 36 63 56 -10 m 168 309 q 159 286 168 309 q 140 218 150 262 q 131 138 131 173 q 144 86 131 103 q 182 68 158 68 q 230 84 207 68 q 279 130 253 101 q 389 276 326 183 q 453 422 453 368 q 436 448 453 432 q 390 478 419 465 q 331 492 361 492 q 267 465 300 492 q 211 398 235 439 q 168 309 187 357 z "},"e":{"ha":542,"x_min":31,"x_max":518,"o":"m 138 232 q 131 172 131 232 q 260 53 131 53 q 420 113 336 53 q 456 142 441 129 q 497 174 490 174 q 511 165 505 174 q 518 152 518 157 q 510 137 518 147 q 486 113 502 127 q 449 82 470 98 q 401 49 429 65 q 344 19 373 32 q 210 -11 278 -11 q 66 43 115 -11 q 31 140 31 82 q 43 249 31 198 q 78 344 56 300 q 133 426 101 388 q 203 490 165 464 q 375 547 283 547 q 500 491 472 547 q 508 447 508 474 q 494 390 508 420 q 454 338 479 361 q 325 262 405 291 q 138 232 244 232 m 171 339 q 151 276 151 291 q 180 272 151 272 q 254 285 210 272 q 334 320 299 297 q 410 453 410 370 q 392 491 410 476 q 345 506 374 506 q 171 339 234 506 z "},"f":{"ha":394,"x_min":-178,"x_max":607,"o":"m 52 478 q 44 487 44 478 q 56 521 44 521 l 160 521 q 172 539 171 521 q 179 588 174 556 q 276 825 201 723 q 372 911 317 881 q 502 950 440 950 q 590 921 551 950 q 607 892 607 908 q 579 855 607 875 q 534 835 551 835 q 505 840 516 835 q 483 853 493 845 q 463 868 473 861 q 415 886 438 886 q 268 532 314 886 q 267 524 267 527 q 274 521 267 521 l 394 521 q 399 514 399 521 q 395 493 399 508 q 388 478 391 478 l 274 478 q 261 464 263 478 q 243 340 258 449 q 180 -87 190 -50 q 160 -155 171 -124 q 135 -216 149 -187 q 50 -328 100 -290 q 17 -352 43 -335 q -16 -371 -8 -369 q -35 -379 -23 -374 q -83 -388 -54 -388 q -145 -369 -113 -388 q -178 -332 -178 -351 q -153 -293 -178 -313 q -109 -272 -128 -272 q -71 -281 -90 -272 q 1 -306 -15 -306 q 25 -300 16 -306 q 40 -284 33 -295 q 52 -262 46 -274 q 62 -233 58 -250 q 71 -201 67 -216 q 78 -166 74 -186 q 83 -133 81 -146 q 88 -102 85 -120 q 98 -34 90 -83 q 124 148 106 15 q 165 462 165 446 q 150 478 165 478 l 52 478 z "},"g":{"ha":591,"x_min":-13,"x_max":576,"o":"m 543 588 q 560 588 543 588 q 576 569 576 588 q 561 522 576 551 q 529 470 546 494 q 513 443 513 446 q 519 421 512 439 q 526 363 526 403 q 506 277 526 323 q 450 199 485 231 q 378 150 415 166 q 275 117 342 134 q 149 56 149 81 q 177 29 149 39 q 231 14 205 20 q 319 -2 271 5 q 388 -12 367 -9 q 430 -20 409 -15 q 474 -32 451 -24 q 512 -49 496 -39 q 541 -73 528 -59 q 567 -142 567 -99 q 554 -215 567 -184 q 519 -268 542 -245 q 465 -307 496 -290 q 396 -333 434 -323 q 263 -353 321 -353 q 182 -351 204 -353 q 134 -345 159 -349 q 89 -334 110 -341 q 49 -317 68 -328 q 16 -293 30 -307 q -13 -228 -13 -263 q -3 -170 -13 -194 q 22 -131 7 -147 q 55 -100 36 -114 q 117 -62 83 -77 q 115 -50 131 -57 q 85 -27 99 -42 q 71 1 71 -13 q 96 56 71 16 q 136 101 121 96 l 211 129 q 218 133 218 132 q 214 134 218 134 q 210 135 211 135 q 201 139 209 136 q 178 150 192 142 q 144 173 163 158 q 111 208 125 189 q 79 319 79 253 q 112 440 79 385 q 203 527 146 495 q 333 558 261 558 q 461 503 406 558 q 472 505 467 497 q 488 541 476 514 q 503 574 499 567 q 543 588 509 588 m 142 -85 q 78 -137 103 -105 q 54 -201 54 -169 q 71 -250 54 -232 q 113 -277 88 -267 q 170 -294 138 -287 q 282 -304 225 -304 q 381 -292 339 -304 q 448 -252 423 -279 q 474 -185 474 -224 q 459 -141 474 -154 q 433 -121 444 -128 q 404 -109 421 -115 q 286 -85 374 -101 q 189 -70 199 -70 q 174 -71 180 -70 q 164 -74 168 -73 q 153 -80 160 -76 q 142 -85 145 -83 m 201 422 q 194 409 201 422 q 181 369 188 395 q 175 312 175 342 q 182 254 175 282 q 201 209 190 226 q 226 182 212 193 q 271 164 250 164 q 315 174 293 164 q 357 205 336 184 q 395 252 378 225 q 432 388 432 311 q 382 498 432 458 q 329 518 358 518 q 275 505 300 518 q 232 470 250 491 q 201 422 214 449 z "},"h":{"ha":650,"x_min":31,"x_max":647,"o":"m 469 93 q 494 67 469 67 q 570 127 517 67 q 626 188 624 188 q 640 181 632 188 q 647 170 647 175 q 635 147 647 165 q 601 103 623 129 q 552 54 579 78 q 428 -4 488 -4 q 384 12 402 -4 q 367 50 367 27 q 392 151 367 73 q 468 418 468 388 q 425 476 468 476 q 233 274 354 476 q 218 249 230 268 q 202 222 207 230 q 189 198 198 214 q 176 172 180 182 q 158 125 163 143 l 129 8 q 46 -7 125 -7 q 31 8 31 -7 q 40 55 31 12 q 65 177 50 99 q 98 354 81 256 q 167 860 140 587 q 161 881 170 881 q 96 862 146 881 q 44 844 46 844 q 36 867 36 844 q 48 895 36 889 q 165 925 91 909 q 265 942 239 942 q 278 917 278 942 q 156 205 270 767 q 420 528 295 491 q 480 536 447 536 q 538 518 514 536 q 563 467 563 500 q 548 374 563 434 q 516 259 533 314 q 469 93 469 112 z "},"i":{"ha":375,"x_min":31,"x_max":331,"o":"m 113 170 q 130 224 113 170 q 162 341 147 279 q 178 427 178 403 q 164 451 178 451 q 125 431 151 451 q 78 390 99 410 q 50 370 56 370 q 37 377 44 370 q 31 391 31 384 q 57 420 31 397 q 117 469 83 443 q 242 536 207 536 q 276 502 276 536 q 231 290 276 461 q 186 107 186 119 q 186 91 186 95 q 199 81 188 81 q 235 103 210 81 q 283 147 261 125 q 311 170 306 170 q 323 162 316 170 q 331 145 331 154 q 287 97 331 137 q 191 23 243 58 q 117 -13 138 -13 q 79 17 79 -13 q 113 170 79 60 m 237 692 q 223 692 237 692 q 191 714 209 692 q 174 764 174 737 q 190 811 174 792 q 235 830 206 830 q 282 808 264 830 q 300 758 300 785 q 283 711 300 731 q 237 692 266 692 z "},"j":{"ha":412,"x_min":-100,"x_max":340,"o":"m 130 -100 q 139 -55 130 -100 q 182 196 148 -11 q 215 427 215 403 q 204 451 215 451 q 170 432 192 451 q 127 390 148 413 q 66 328 72 328 q 52 334 60 328 q 44 346 44 340 q 61 372 44 351 q 105 419 78 392 q 164 473 133 447 q 282 536 237 536 q 305 526 295 536 q 315 498 315 517 q 308 426 315 480 q 290 303 301 372 q 269 173 279 234 q 249 56 259 112 q 237 -15 240 1 q 231 -51 235 -31 q 220 -102 228 -71 q 203 -159 213 -133 q 180 -212 193 -184 q 104 -304 152 -268 q -12 -358 30 -358 q -77 -343 -54 -358 q -100 -305 -100 -327 q -85 -268 -100 -284 q -50 -253 -70 -253 q -15 -258 -30 -253 q 8 -270 0 -263 q 48 -288 31 -288 q 72 -283 65 -288 q 85 -267 79 -278 q 96 -244 91 -256 q 105 -214 100 -233 q 130 -100 112 -188 m 278 733 q 264 733 278 733 q 232 756 250 733 q 214 806 214 779 q 230 853 214 833 q 276 872 247 872 q 323 850 305 872 q 340 800 340 827 q 323 753 340 773 q 278 733 306 733 z "},"k":{"ha":625,"x_min":31,"x_max":629,"o":"m 111 -4 l 42 -13 q 31 -3 31 -13 q 49 97 31 7 q 92 302 68 186 q 180 865 156 613 q 172 873 180 873 l 64 846 q 56 860 56 846 q 68 895 56 892 l 168 920 q 282 947 274 947 q 301 928 301 947 q 239 602 301 904 q 172 275 177 299 q 302 464 246 407 q 391 522 349 511 q 469 533 433 533 q 531 520 506 533 q 555 479 555 507 q 546 425 555 451 q 521 379 537 399 q 485 341 506 359 q 443 310 465 323 q 399 286 422 296 q 339 262 358 266 q 304 256 307 256 q 333 235 316 250 q 425 140 398 172 q 460 98 451 107 q 482 76 469 88 q 545 56 507 56 q 583 89 583 56 l 581 117 q 595 138 581 138 q 619 121 609 138 q 629 81 629 105 q 612 40 629 56 q 570 15 595 24 q 478 -7 516 -7 q 408 22 439 -7 q 349 92 385 44 q 301 155 313 139 q 269 194 288 172 q 231 242 231 238 q 232 249 231 246 q 236 256 234 253 q 242 263 239 259 q 248 269 245 267 q 253 274 250 271 q 258 278 255 276 q 276 280 260 280 q 317 291 293 280 q 374 329 341 302 q 429 390 406 355 q 453 455 453 425 q 414 480 453 480 q 265 356 350 480 q 227 299 254 340 q 184 232 200 257 q 152 142 168 206 q 131 43 137 77 q 123 3 126 9 q 111 -4 120 -4 z "},"l":{"ha":378,"x_min":72,"x_max":361,"o":"m 306 947 q 319 932 319 947 q 250 509 319 917 q 180 95 180 102 q 194 70 180 70 q 232 88 208 70 q 277 128 256 106 q 316 168 299 150 q 336 186 334 186 q 350 177 338 186 q 361 164 361 168 q 350 146 361 161 q 319 112 338 132 q 275 69 301 91 q 223 27 250 46 q 117 -18 162 -18 q 85 -4 97 -18 q 72 29 72 11 q 98 188 72 48 q 204 850 179 640 q 203 866 207 861 q 188 868 199 871 q 148 857 176 865 q 85 842 90 842 q 79 842 81 842 q 75 855 75 843 q 76 876 75 867 q 93 896 78 891 q 228 928 155 910 q 306 947 301 947 z "},"m":{"ha":1026,"x_min":17,"x_max":1011,"o":"m 458 164 q 466 190 458 164 q 486 287 473 217 q 498 408 498 357 q 474 458 498 458 q 424 425 451 458 q 379 368 397 392 q 291 225 328 300 q 218 25 253 146 q 201 0 212 5 q 138 -19 151 -19 q 121 0 118 -19 q 161 210 138 72 q 183 411 183 349 q 168 431 183 431 q 95 379 146 431 q 39 327 44 327 q 30 328 34 327 q 17 354 17 333 q 45 388 17 361 q 110 445 73 415 q 190 498 148 475 q 257 522 232 522 q 286 493 286 522 q 282 425 286 465 q 272 356 277 386 q 257 272 267 326 q 243 194 247 218 q 546 531 396 531 q 592 493 579 531 q 597 442 597 478 q 577 318 597 405 q 532 156 556 232 q 634 335 598 284 q 698 422 669 387 q 752 479 727 457 q 865 531 813 531 q 940 479 940 531 q 905 329 940 431 q 839 103 839 134 q 860 72 839 72 q 959 159 876 72 q 991 188 987 188 q 1003 179 994 188 q 1011 166 1011 171 q 986 134 1011 162 q 925 74 960 106 q 848 16 890 42 q 782 -10 807 -10 q 742 3 757 -10 q 726 35 726 16 q 743 110 726 54 q 781 226 760 167 q 835 436 835 383 q 828 454 835 446 q 810 463 821 463 q 737 410 784 463 q 641 281 690 357 q 564 149 592 205 q 515 19 536 93 q 484 -1 510 2 q 438 -4 458 -4 q 418 8 418 -4 q 431 65 418 20 q 458 164 443 111 z "},"n":{"ha":715,"x_min":17,"x_max":699,"o":"m 531 97 q 553 74 531 74 q 602 100 574 74 q 644 142 629 126 q 668 168 658 157 q 679 179 677 179 q 690 170 681 179 q 699 157 699 162 q 685 136 699 153 q 648 95 672 118 q 597 50 625 72 q 472 -3 531 -3 q 437 15 450 -3 q 424 59 424 32 q 441 141 424 86 q 479 248 458 195 q 535 437 535 387 q 527 463 535 453 q 506 474 520 474 q 460 445 491 474 q 393 370 428 416 q 277 209 321 279 q 201 25 227 127 q 178 -7 193 -6 q 112 -13 119 -13 q 100 7 97 -13 q 183 439 183 355 q 170 460 183 460 q 125 438 156 460 q 69 393 95 415 q 39 371 43 371 q 26 379 35 371 q 17 395 17 388 q 33 417 17 401 q 78 452 50 432 q 137 493 106 473 q 260 540 212 540 q 283 532 272 540 q 293 506 293 524 q 290 463 293 488 q 283 417 286 437 q 270 360 279 396 q 257 307 261 325 q 241 247 253 290 q 227 193 230 204 q 432 477 343 397 q 563 540 501 540 q 637 475 637 540 q 584 270 637 430 q 531 97 531 111 z "},"o":{"ha":582,"x_min":31,"x_max":551,"o":"m 62 73 q 54 86 62 73 q 38 129 46 99 q 31 213 31 159 q 55 334 31 267 q 123 450 80 401 q 226 527 165 499 q 343 555 287 555 q 433 540 399 555 q 489 502 468 525 q 526 448 511 478 q 551 330 551 392 q 526 204 551 267 q 457 93 500 141 q 354 15 414 45 q 242 -15 294 -15 q 158 -4 190 -15 q 102 27 125 7 q 62 73 78 46 m 157 338 q 150 320 157 338 q 134 268 142 303 q 125 209 125 233 q 125 174 125 186 q 128 142 126 162 q 134 108 130 122 q 146 77 138 94 q 165 51 154 61 q 228 26 191 26 q 294 44 264 26 q 349 92 325 62 q 393 159 373 121 q 427 237 413 197 q 455 386 455 321 q 390 506 455 478 q 341 515 368 515 q 288 501 315 515 q 237 461 260 486 q 193 404 214 437 q 157 338 172 372 z "},"p":{"ha":675,"x_min":10,"x_max":645,"o":"m 200 422 q 188 443 200 443 q 157 427 176 443 q 119 388 138 411 q 82 342 100 366 q 35 288 40 288 q 21 297 31 288 q 10 309 10 306 q 18 325 10 312 q 40 360 25 338 q 74 407 55 381 q 117 458 93 432 q 168 505 142 484 q 279 553 225 553 q 307 513 307 553 q 268 218 307 441 q 393 454 319 339 q 454 513 416 491 q 526 535 491 535 q 581 528 562 535 q 613 509 601 521 q 632 480 625 498 q 645 402 645 451 q 631 300 645 353 q 594 202 617 247 q 539 116 570 156 q 473 47 507 76 q 328 -14 398 -14 l 250 -4 q 243 -4 246 -4 q 240 -4 241 -4 q 239 -5 240 -5 q 237 -6 238 -6 q 236 -11 237 -7 l 192 -303 q 204 -330 186 -329 q 246 -334 222 -332 q 283 -338 270 -337 q 314 -357 314 -341 q 296 -394 314 -394 q 247 -389 283 -394 q 86 -374 140 -374 q 26 -373 31 -374 q 13 -350 11 -371 q 19 -325 15 -330 q 43 -321 23 -321 l 67 -322 q 92 -294 87 -322 q 179 221 158 84 q 200 422 200 358 m 256 71 q 340 31 256 31 q 412 66 374 31 q 480 153 450 101 q 530 269 510 206 q 550 386 550 333 q 493 471 550 471 q 444 450 464 471 q 412 413 424 428 q 388 377 400 398 q 368 339 376 355 q 348 301 359 323 q 332 270 337 280 q 256 71 256 124 z "},"q":{"ha":632,"x_min":31,"x_max":602,"o":"m 272 -404 q 250 -383 248 -404 q 257 -359 251 -365 q 289 -349 267 -351 q 315 -343 312 -347 q 320 -331 318 -340 q 322 -321 322 -322 q 345 -225 324 -313 q 447 297 377 -87 q 356 147 386 186 q 311 90 326 108 q 275 51 296 72 q 236 17 254 30 q 151 -14 192 -14 q 66 16 102 -14 q 31 103 31 44 q 98 326 31 197 q 214 471 143 411 q 380 533 290 533 q 511 501 449 533 q 522 497 519 497 q 550 511 525 497 q 588 525 574 525 q 602 507 602 525 q 585 465 602 499 q 564 420 569 431 q 546 339 559 409 q 502 87 534 269 q 449 -208 469 -95 q 429 -328 429 -321 q 432 -337 429 -335 q 451 -339 435 -339 q 521 -342 466 -339 q 537 -364 537 -343 q 529 -395 537 -392 q 511 -399 520 -399 l 393 -394 l 272 -404 m 167 276 q 158 256 167 276 q 138 199 149 236 q 128 132 128 163 q 146 81 128 102 q 185 60 164 60 q 229 77 205 60 q 280 125 253 95 q 372 243 331 183 q 471 442 471 390 q 455 469 471 455 q 388 497 424 497 q 320 477 352 497 q 262 426 289 458 q 210 355 235 395 q 167 276 184 316 z "},"r":{"ha":473,"x_min":29,"x_max":464,"o":"m 44 383 q 43 383 44 383 q 35 390 42 383 q 29 403 29 398 q 42 424 29 409 q 76 458 55 439 q 121 496 97 478 q 211 540 177 540 q 244 511 244 540 q 210 276 244 481 q 284 461 261 417 q 394 550 332 550 q 442 535 421 550 q 464 502 464 521 q 461 471 464 483 q 450 449 458 459 q 428 440 441 440 q 402 446 415 440 q 376 459 388 453 q 353 465 363 465 q 322 443 336 465 q 265 327 290 393 q 237 252 239 261 q 231 232 234 243 q 222 194 229 221 q 201 97 216 168 q 182 8 186 27 q 152 -5 180 0 q 105 -10 123 -10 q 87 0 87 -10 q 104 90 87 3 q 154 402 154 349 q 142 455 154 455 q 113 444 129 455 q 83 419 96 433 q 58 395 70 406 q 44 383 47 383 z "},"s":{"ha":467,"x_min":24,"x_max":422,"o":"m 121 3 q 100 10 121 3 q 51 40 79 17 q 24 82 24 62 q 37 113 24 102 q 58 124 50 124 q 72 123 67 124 q 82 121 78 122 q 90 117 86 120 q 97 113 95 115 q 104 108 100 112 q 111 102 109 104 q 117 95 113 100 q 126 87 122 91 q 141 71 130 83 q 157 54 153 59 q 170 43 162 50 q 213 33 184 33 q 270 60 242 33 q 297 131 297 87 q 258 197 297 162 q 219 230 240 213 q 176 265 197 247 q 137 302 155 283 q 97 391 97 346 q 123 475 97 437 q 191 536 148 514 q 277 558 234 558 q 346 550 319 558 q 387 531 373 542 q 409 505 400 519 q 422 468 422 483 q 414 445 422 452 q 393 437 405 437 q 322 489 351 437 q 297 520 306 517 q 277 524 289 524 q 250 519 265 524 q 221 507 235 515 q 190 440 190 487 q 230 354 190 392 q 269 321 248 337 q 312 289 291 306 q 352 253 334 272 q 392 149 392 210 q 337 37 392 85 q 205 -11 282 -11 q 121 3 164 -11 z "},"t":{"ha":394,"x_min":44,"x_max":378,"o":"m 60 471 q 44 480 44 471 l 46 507 q 50 516 46 511 q 61 521 54 521 q 129 521 106 521 q 153 521 152 521 q 154 522 154 522 q 155 523 154 522 q 164 570 156 525 q 177 649 172 616 q 186 688 181 682 q 237 697 196 697 l 247 697 q 280 686 280 697 q 273 650 280 684 q 247 524 245 527 q 257 521 249 521 l 362 521 q 375 504 377 521 q 357 471 371 471 l 249 471 q 237 460 239 471 q 201 251 221 375 q 180 118 180 127 q 203 93 180 93 q 289 157 223 93 q 333 201 313 181 q 355 221 353 221 q 368 212 357 221 q 378 199 378 202 q 365 181 378 196 q 331 142 352 165 q 283 93 311 119 q 228 45 255 67 q 124 -7 165 -7 q 71 44 71 -7 q 108 258 71 59 q 144 460 144 457 l 144 466 q 136 471 144 471 l 60 471 z "},"u":{"ha":724,"x_min":17,"x_max":708,"o":"m 134 146 q 144 185 134 146 q 176 311 155 224 q 197 436 197 398 q 174 474 197 474 q 97 405 150 474 q 42 336 43 336 q 27 343 37 336 q 17 354 17 350 q 26 373 17 358 q 78 444 54 414 q 112 482 103 473 q 135 506 120 492 q 164 528 151 519 q 225 547 197 547 q 271 542 254 547 q 301 524 289 537 q 314 494 314 511 q 292 392 314 476 q 225 107 225 142 q 255 79 225 79 q 313 106 284 79 q 382 191 342 133 q 535 536 509 373 q 547 547 537 545 q 617 554 582 554 q 629 542 629 554 q 591 334 629 530 q 553 124 553 139 q 575 93 553 93 q 643 156 596 93 q 674 200 660 180 q 691 219 689 219 q 701 214 694 219 q 708 206 708 210 q 696 180 708 202 q 662 127 684 158 q 616 67 641 96 q 507 -4 556 -4 q 472 8 487 -4 q 457 40 457 19 q 469 119 457 61 q 498 250 481 176 q 521 361 514 323 q 437 210 476 267 q 193 -11 292 -11 q 113 52 113 -11 q 134 146 113 69 z "},"v":{"ha":615,"x_min":10,"x_max":585,"o":"m 397 498 q 385 525 385 498 q 439 548 385 535 q 523 561 493 561 q 569 549 553 561 q 585 508 585 537 q 580 456 585 479 q 569 411 576 432 q 551 364 563 390 q 528 319 538 338 q 500 272 518 300 q 470 227 482 244 q 436 180 458 210 q 377 104 402 136 q 320 26 334 49 q 298 -4 306 2 q 273 -11 290 -11 q 229 11 256 -11 q 193 41 201 32 q 176 63 184 50 q 165 93 168 76 q 162 135 162 110 q 176 278 162 159 q 190 425 190 396 q 188 460 190 454 q 179 471 185 466 q 146 482 160 482 q 113 468 132 482 q 79 437 94 454 q 38 393 41 393 q 19 401 29 393 q 10 416 10 408 q 28 444 10 423 q 71 489 46 466 q 172 549 135 549 q 237 532 207 549 q 278 503 267 515 q 289 453 289 491 q 272 287 289 414 q 254 142 254 159 q 273 109 254 125 q 303 93 291 93 q 324 103 316 93 q 359 150 332 113 q 397 200 387 188 q 423 239 406 213 q 450 281 440 264 q 473 323 460 298 q 493 369 486 349 q 510 455 510 420 q 502 500 510 490 q 479 511 494 511 q 445 508 465 511 q 412 502 426 505 q 397 498 398 498 z "},"w":{"ha":946,"x_min":10,"x_max":915,"o":"m 701 482 q 689 511 689 482 q 766 536 689 520 q 864 551 843 551 q 915 495 915 551 q 882 364 915 438 q 685 86 816 219 q 642 43 661 63 q 620 19 624 23 q 614 13 617 15 q 606 5 607 5 q 604 4 606 5 q 602 3 603 3 q 599 2 601 2 q 596 1 598 1 l 593 1 q 509 35 543 1 q 475 113 475 68 q 492 212 475 132 q 511 304 509 293 q 374 100 404 138 q 330 42 343 62 q 310 13 317 23 q 278 -5 296 -5 q 230 19 260 -5 q 190 54 200 43 q 171 108 171 75 q 178 187 171 141 q 201 414 201 326 q 181 452 201 430 q 144 474 160 474 q 109 461 129 474 q 75 434 90 449 q 47 407 60 419 q 30 394 35 394 q 17 404 24 394 q 10 421 10 413 q 43 458 10 429 q 119 514 76 488 q 180 540 162 540 q 220 531 198 540 q 254 513 241 522 q 276 495 267 504 q 290 477 286 486 q 296 435 296 465 q 287 329 296 406 q 270 193 278 253 q 261 125 261 133 q 278 98 261 116 q 300 79 294 79 q 310 81 306 79 q 331 102 320 87 q 397 197 342 117 q 467 297 451 276 q 498 360 483 317 q 512 419 512 402 q 495 454 512 436 q 468 478 478 471 q 447 498 447 493 q 468 533 447 513 q 504 553 489 553 q 545 537 520 553 q 588 499 570 521 q 607 460 607 478 q 586 300 607 442 q 565 135 565 158 q 583 94 565 112 q 610 76 600 76 q 629 84 621 76 q 686 149 637 92 q 771 258 735 205 q 821 354 806 310 q 836 449 835 399 q 811 498 836 498 q 739 490 775 498 q 701 482 702 482 z "},"x":{"ha":636,"x_min":17,"x_max":620,"o":"m 574 415 l 575 461 q 555 492 575 492 q 390 308 514 492 q 391 279 385 301 q 411 225 398 256 q 439 158 423 194 q 507 76 478 76 q 560 122 532 76 q 592 168 587 168 q 608 163 596 168 q 620 154 620 159 q 593 97 620 133 q 547 41 567 61 q 460 -8 501 -8 q 375 59 408 -8 q 340 148 357 97 q 320 208 322 200 q 314 216 317 216 q 304 208 311 216 q 278 175 297 200 q 242 127 259 150 q 203 79 226 105 q 159 35 180 53 q 68 -8 112 -8 q 32 2 46 -8 q 17 32 17 12 q 53 160 17 79 q 64 170 58 170 q 76 169 71 170 q 92 154 92 165 q 85 130 92 153 q 78 90 78 107 q 103 64 78 64 q 223 165 134 64 q 289 243 282 232 q 296 256 295 255 q 297 259 297 257 q 298 260 297 260 q 298 262 298 261 l 298 264 q 297 267 298 265 q 297 269 297 269 q 296 272 296 270 q 289 292 295 275 q 272 336 283 309 q 248 390 261 362 q 220 437 234 418 q 160 479 190 479 q 95 439 132 479 q 70 411 81 424 q 54 399 59 399 q 43 407 50 399 q 36 422 36 415 q 61 460 36 434 q 105 504 85 487 q 205 543 154 543 q 274 523 250 543 q 343 409 310 493 q 355 376 348 396 q 365 350 363 356 q 369 343 368 343 q 371 343 370 342 q 378 352 373 345 q 395 379 383 360 q 416 412 407 398 q 438 446 425 427 q 463 479 451 466 q 488 508 474 493 q 517 532 503 523 q 572 554 548 554 q 617 494 617 554 q 606 414 617 485 q 590 408 606 408 q 574 415 574 408 z "},"y":{"ha":586,"x_min":-22,"x_max":569,"o":"m 5 -406 q -1 -406 5 -406 q -15 -392 -8 -406 q -22 -363 -22 -378 q -16 -335 -22 -347 q 4 -316 -9 -323 q 28 -304 17 -308 q 58 -294 39 -299 q 90 -284 77 -289 q 124 -260 104 -279 q 163 -206 144 -241 q 200 -133 183 -170 q 225 -66 217 -95 q 237 24 237 -21 q 236 112 237 68 q 231 208 234 156 q 221 304 228 260 q 204 385 214 348 q 146 464 184 464 q 94 442 117 464 q 61 408 72 421 q 43 387 50 395 q 33 378 36 378 q 20 383 31 378 q 8 393 8 389 q 18 412 8 397 q 44 448 27 427 q 83 488 61 468 q 192 535 134 535 q 278 471 250 535 q 314 268 305 407 q 323 75 317 235 q 361 144 333 94 q 404 226 388 195 q 492 476 481 372 q 495 513 493 491 q 515 551 498 551 q 555 538 541 551 q 569 515 569 525 q 321 -13 569 402 l 307 -39 q 184 -272 211 -225 q 144 -332 158 -319 q 118 -352 131 -345 q 93 -368 105 -360 q 74 -379 80 -375 q 56 -389 67 -383 q 37 -398 45 -395 q 5 -406 18 -406 z "},"z":{"ha":575,"x_min":31,"x_max":545,"o":"m 519 139 l 531 17 q 519 -2 531 1 q 483 -7 503 -7 l 467 -7 q 292 4 434 -7 q 90 15 150 15 q 82 7 88 15 q 54 -18 65 -18 q 31 3 31 -18 q 41 34 31 21 q 75 70 54 48 l 401 433 q 404 436 402 434 q 405 439 405 438 q 399 438 405 439 q 378 437 393 437 q 323 449 363 437 q 245 471 282 460 q 191 482 208 482 q 157 471 174 482 q 129 448 140 460 q 110 425 119 435 q 97 414 101 414 q 84 420 94 414 q 75 430 75 427 q 82 446 75 433 q 104 477 90 459 q 135 513 118 495 q 175 542 153 530 q 219 554 198 554 q 274 545 241 554 q 337 524 308 535 q 450 493 415 493 q 473 511 460 493 q 519 545 497 545 q 537 537 530 545 q 545 516 545 529 q 534 492 545 504 q 510 473 523 480 q 461 443 468 450 l 156 104 q 163 95 147 95 l 167 95 l 468 75 q 482 79 479 75 q 485 96 485 82 l 483 138 q 487 146 483 144 q 503 147 491 147 l 510 147 q 519 139 519 147 z "},"{":{"ha":426,"x_min":52,"x_max":375,"o":"m 73 359 q 68 360 73 359 q 57 366 63 361 q 52 380 52 371 q 56 394 52 389 q 68 400 61 399 q 85 404 76 401 q 105 412 95 408 q 125 428 115 416 q 142 457 134 440 q 158 578 158 496 l 158 689 q 164 834 158 810 q 176 878 170 857 q 193 909 183 899 q 218 931 203 919 q 252 948 232 943 q 333 961 299 961 q 370 957 366 961 q 375 938 375 952 q 369 921 375 925 q 346 917 363 917 q 312 914 328 917 q 281 903 296 911 q 258 882 267 896 q 239 793 239 853 l 239 586 q 235 484 239 504 q 227 451 231 465 q 217 429 223 438 q 202 412 211 420 q 166 390 187 397 q 145 380 144 382 q 158 374 145 378 q 182 364 171 370 q 202 349 193 358 q 217 332 211 341 q 227 310 223 323 q 234 285 231 297 q 237 253 236 273 q 239 175 239 223 l 239 -32 q 253 -113 239 -92 q 281 -142 267 -135 q 335 -156 306 -156 q 369 -160 364 -156 q 375 -177 375 -163 q 370 -195 375 -191 q 339 -200 366 -200 q 282 -194 313 -200 q 231 -179 252 -188 q 196 -150 210 -171 q 174 -113 182 -130 q 163 -62 167 -97 q 158 72 158 -14 l 158 183 q 94 354 158 337 q 73 359 82 357 z "},"|":{"ha":343,"x_min":135,"x_max":208,"o":"m 135 -260 l 135 1036 q 142 1057 135 1053 q 164 1062 149 1062 l 174 1062 q 202 1058 195 1062 q 208 1035 208 1054 l 208 -260 q 202 -291 208 -287 q 188 -294 195 -294 l 158 -294 q 138 -288 142 -294 q 135 -260 135 -282 z "},"}":{"ha":426,"x_min":52,"x_max":375,"o":"m 94 -200 q 77 -200 94 -200 q 56 -195 60 -200 q 52 -177 52 -191 q 57 -160 52 -163 q 83 -156 63 -156 q 123 -151 104 -156 q 157 -134 142 -146 q 188 -32 188 -109 l 188 175 q 191 277 188 257 q 200 310 195 297 q 210 332 204 323 q 224 349 216 341 q 262 372 239 364 q 284 380 284 380 q 270 387 284 382 q 245 397 256 391 q 225 412 233 403 q 210 429 216 420 q 200 451 204 438 q 193 477 195 465 q 189 508 191 489 q 188 586 188 538 l 188 793 q 177 866 188 846 q 158 894 167 885 q 136 908 149 903 q 87 917 112 917 q 57 921 63 917 q 52 938 52 925 q 56 957 52 952 q 81 961 60 961 q 125 959 101 961 q 167 950 148 957 q 200 937 185 944 q 225 918 214 931 q 243 895 235 905 q 255 864 250 884 q 262 830 260 844 q 267 788 265 815 q 268 689 268 745 l 268 578 q 280 468 268 496 q 302 428 292 440 q 322 412 312 416 q 341 404 332 408 q 358 400 351 401 q 375 380 375 397 q 354 359 375 364 q 311 342 323 353 q 290 314 299 331 q 268 183 268 276 l 268 72 q 262 -71 268 -46 q 250 -117 257 -96 q 233 -148 243 -138 q 209 -170 223 -158 q 175 -187 194 -182 q 94 -200 127 -200 z "},"~":{"ha":1101,"x_min":58,"x_max":1036,"o":"m 60 156 q 59 156 60 156 q 59 159 59 157 q 58 165 58 160 q 63 187 58 171 q 74 221 68 204 q 92 261 80 238 q 117 305 103 284 q 151 346 131 325 q 195 382 172 367 q 302 415 248 415 q 400 404 357 415 q 479 376 442 393 q 553 337 516 358 q 625 294 590 315 q 693 255 660 273 q 829 215 768 215 q 943 292 891 215 q 984 374 973 335 q 1001 414 995 412 q 1013 414 1007 416 q 1023 411 1019 412 q 1027 410 1026 411 q 1031 409 1028 410 q 1034 407 1033 408 q 1036 398 1036 403 q 1032 376 1036 393 q 1016 330 1027 359 q 982 266 1004 300 q 933 208 960 233 q 781 149 870 149 q 614 186 698 149 q 494 248 559 211 q 395 302 429 286 q 256 340 319 340 q 104 168 148 340 q 103 164 104 167 q 102 160 102 161 q 92 146 98 146 q 80 147 86 146 q 71 149 74 149 q 68 150 69 150 q 65 151 67 151 q 63 152 64 152 q 61 154 62 153 q 60 156 60 155 z "},"":{"ha":278,"x_min":0,"x_max":0,"o":""},"":{"ha":306,"x_min":3,"x_max":219,"o":"m 3 13 q 5 31 3 17 q 125 693 53 240 q 140 703 126 703 l 151 703 q 168 693 168 703 q 135 399 168 665 q 93 19 102 133 q 48 -15 91 -15 l 42 -15 q 3 13 3 -15 m 152 772 q 141 772 152 772 q 108 795 130 772 q 86 839 86 819 q 93 875 86 860 q 110 899 100 890 q 153 917 131 917 q 197 893 175 917 q 219 845 219 869 q 197 796 219 821 q 152 772 174 772 z "},"":{"ha":565,"x_min":54,"x_max":517,"o":"m 412 12 q 400 6 412 12 q 352 -9 388 -1 q 297 -18 317 -18 l 275 -18 q 273 -18 274 -18 q 272 -18 273 -18 q 271 -19 272 -19 q 270 -20 271 -20 q 270 -22 270 -21 q 262 -65 268 -25 q 253 -121 255 -105 q 247 -154 250 -137 q 236 -185 241 -185 l 228 -185 q 210 -181 210 -185 q 213 -158 210 -177 q 235 -17 238 -19 q 223 -13 233 -15 q 99 63 143 3 q 54 198 54 122 q 70 326 54 273 q 112 419 85 380 q 172 487 138 458 q 321 555 240 545 q 330 559 329 556 q 335 582 332 563 q 348 673 347 656 q 357 689 350 689 l 365 689 q 388 682 388 689 q 384 661 388 682 q 367 559 366 561 q 369 557 368 557 q 371 556 371 556 q 379 554 372 555 q 476 508 436 543 q 517 428 517 474 q 496 388 517 404 q 456 371 475 371 q 432 389 437 371 q 427 412 430 397 q 422 435 424 427 q 417 456 420 444 q 410 475 414 468 q 400 490 406 482 q 376 507 390 504 q 360 509 362 511 q 357 498 358 507 l 286 67 q 286 61 287 63 q 287 57 286 59 q 288 56 288 56 q 298 53 289 54 q 331 52 307 52 q 385 58 355 52 q 433 72 415 64 q 466 86 451 80 q 485 93 481 93 q 497 78 499 93 q 467 46 496 66 q 412 12 437 25 m 317 511 q 226 458 263 497 q 149 253 149 377 q 172 144 149 193 q 247 68 197 93 q 250 72 250 68 l 321 500 q 317 511 323 511 z "},"":{"ha":679,"x_min":24,"x_max":649,"o":"m 529 40 q 604 87 604 40 q 585 125 604 103 q 561 161 561 153 q 575 174 561 170 q 603 179 588 179 q 629 168 618 179 q 649 110 649 146 q 633 48 649 74 q 591 7 617 22 q 485 -24 539 -24 q 295 -4 431 -24 q 153 15 159 15 q 134 5 146 15 q 109 -18 121 -6 q 50 -52 77 -52 q 32 -45 40 -52 q 24 -26 24 -38 q 27 -7 24 -14 q 34 4 30 -1 q 45 13 38 9 q 58 19 52 17 q 73 24 63 21 q 87 27 82 26 q 111 31 110 30 q 161 151 143 36 q 178 301 178 266 q 178 338 179 335 q 170 340 177 340 l 68 340 q 58 361 58 340 q 68 382 58 382 l 172 382 q 183 383 182 382 q 185 387 185 384 q 186 418 185 391 q 201 565 191 494 q 225 680 211 635 q 261 765 239 725 q 380 886 305 847 q 478 911 433 911 q 551 902 524 911 q 600 875 578 893 q 647 758 647 836 q 608 668 647 668 q 586 677 595 668 q 571 725 571 694 l 579 804 q 550 847 579 825 q 480 869 520 869 q 323 720 363 869 q 308 653 313 680 q 301 611 303 626 q 295 572 298 596 q 290 536 292 547 q 286 496 289 525 q 282 462 283 468 q 278 425 281 455 q 275 392 275 394 q 282 382 275 382 l 437 382 q 449 378 446 382 q 451 361 451 373 q 448 345 451 349 q 436 340 445 340 l 283 340 q 271 339 273 340 q 265 321 269 337 q 180 75 239 193 q 174 53 169 53 q 196 60 180 53 q 270 72 226 72 q 413 56 313 72 q 529 40 512 40 z "},"":{"ha":686,"x_min":31,"x_max":649,"o":"m 486 81 q 338 32 419 32 q 193 79 257 32 l 108 -5 q 71 -26 90 -26 q 41 -15 52 -26 q 31 6 31 -4 q 32 21 31 16 q 37 30 33 25 q 42 37 40 35 q 49 45 43 39 q 56 52 55 51 l 138 135 q 90 284 90 202 q 136 429 90 366 l 56 512 q 31 551 31 532 q 42 580 31 569 q 65 590 53 590 q 85 586 77 590 q 110 567 95 581 l 193 483 q 340 531 258 531 q 486 483 422 531 l 572 569 q 607 590 588 590 q 637 579 626 590 q 649 558 649 568 q 647 543 649 548 q 643 534 646 538 q 637 527 639 529 q 630 519 636 525 q 624 512 624 513 l 540 428 q 590 280 590 357 q 540 136 590 203 l 624 52 q 649 13 649 32 q 637 -16 649 -5 q 615 -28 625 -28 q 601 -26 605 -28 q 594 -24 597 -25 q 587 -19 591 -23 q 581 -14 582 -16 q 486 81 569 -3 m 253 433 q 234 421 253 433 q 192 368 214 409 q 170 280 170 327 q 193 194 170 233 q 255 132 216 155 q 339 110 294 110 q 423 133 384 110 q 486 196 463 156 q 510 276 510 235 q 496 348 510 316 q 459 404 482 380 q 339 457 408 457 q 253 433 293 457 z "},"":{"ha":851,"x_min":24,"x_max":828,"o":"m 128 475 q 121 496 121 475 q 128 517 121 517 l 275 517 l 115 883 l 53 883 q 31 888 38 883 q 24 908 24 892 q 31 929 24 925 q 53 933 37 933 l 193 929 l 317 933 q 335 928 331 933 q 339 906 339 922 q 334 887 339 890 q 311 883 329 883 l 256 883 q 257 877 256 882 q 269 838 259 871 q 342 649 279 805 q 408 490 406 493 q 414 490 410 488 q 423 500 418 493 q 434 518 427 507 q 477 581 441 528 q 541 676 513 634 q 600 766 569 718 q 665 883 665 867 l 596 883 q 572 887 578 883 q 567 906 567 890 q 571 928 567 922 q 590 933 576 933 l 699 929 l 806 933 q 824 929 820 933 q 828 908 828 925 q 823 887 828 891 q 806 883 819 883 l 753 883 q 645 741 739 869 q 485 517 551 613 l 663 517 q 669 496 669 517 q 663 475 669 475 l 455 475 l 446 460 q 435 429 438 446 l 421 347 l 635 347 q 642 326 642 347 q 635 306 642 306 l 414 306 l 388 144 q 374 51 374 60 q 375 42 374 42 l 464 42 q 479 37 476 42 q 483 18 483 32 q 479 -3 483 3 q 464 -8 476 -8 l 318 -4 l 185 -8 q 168 -3 171 -8 q 164 18 164 3 q 169 37 164 32 q 190 42 173 42 l 251 42 q 300 306 258 48 l 101 306 q 93 326 93 306 q 101 347 93 347 l 307 347 l 310 362 q 317 418 317 402 q 293 475 317 418 l 128 475 z "},"":{"ha":343,"x_min":135,"x_max":208,"o":"m 135 -260 l 135 262 q 154 286 135 286 l 189 286 q 208 262 208 286 l 208 -260 q 202 -291 208 -287 q 188 -294 195 -294 l 158 -294 q 138 -288 142 -294 q 135 -260 135 -282 m 135 526 l 135 1036 q 142 1057 135 1053 q 164 1062 149 1062 l 174 1062 q 202 1058 195 1062 q 208 1035 208 1054 l 208 526 q 203 502 208 508 q 185 496 198 496 l 160 496 q 140 501 145 496 q 135 526 135 507 z "},"":{"ha":529,"x_min":52,"x_max":478,"o":"m 233 -318 q 86 -253 86 -318 q 99 -227 86 -237 q 126 -217 112 -217 q 150 -219 140 -217 q 173 -227 159 -222 q 212 -242 186 -233 q 285 -251 238 -251 q 385 -183 385 -251 q 319 -54 385 -144 q 254 32 289 -14 q 183 129 218 78 q 118 230 147 180 q 52 431 52 342 q 70 509 52 478 q 103 555 89 539 q 149 597 124 579 q 145 618 157 603 q 121 655 133 634 q 83 782 83 718 q 132 896 83 847 q 261 944 180 944 q 412 905 374 944 q 424 878 424 893 q 368 835 424 835 q 312 846 334 835 q 275 865 289 858 q 207 881 242 881 q 140 825 140 881 q 208 690 140 781 q 273 604 237 650 q 345 506 309 557 q 411 402 381 454 q 478 183 478 285 q 423 78 478 122 q 402 62 415 72 q 374 37 374 42 q 382 18 374 33 q 440 -142 440 -88 q 385 -269 440 -221 q 233 -318 329 -318 m 160 571 q 114 492 114 535 q 343 75 114 392 q 355 64 352 64 q 371 75 358 64 q 414 139 414 116 q 406 192 414 163 q 384 249 397 220 q 351 312 371 277 q 314 375 332 347 q 273 437 296 402 q 235 491 250 471 q 202 537 221 511 q 179 568 183 563 q 174 575 175 574 q 171 577 173 576 q 166 576 168 578 q 160 571 164 575 z "},"":{"ha":555,"x_min":119,"x_max":440,"o":"z "},"":{"ha":1171,"x_min":71,"x_max":1096,"o":"m 89 123 q 80 157 89 123 q 71 262 71 191 q 89 402 71 334 q 139 527 107 469 q 218 632 172 584 q 321 713 265 680 q 445 765 377 746 q 583 783 512 783 q 722 765 655 783 q 845 713 789 747 q 948 633 902 680 q 1027 528 995 585 q 1096 262 1096 407 q 948 -107 1096 44 q 722 -240 854 -204 q 583 -258 655 -258 q 445 -240 512 -258 q 321 -188 377 -221 q 218 -107 265 -155 q 139 -2 172 -59 q 89 123 107 56 m 142 387 q 134 356 142 387 q 126 262 126 326 q 142 138 126 199 q 187 26 158 78 q 258 -68 216 -25 q 350 -142 300 -112 q 460 -189 400 -172 q 583 -205 519 -205 q 707 -189 647 -205 q 817 -142 767 -172 q 909 -68 867 -112 q 979 26 950 -25 q 1024 138 1008 78 q 1040 262 1040 199 q 1024 387 1040 326 q 979 499 1008 447 q 909 593 950 550 q 817 667 867 636 q 707 714 767 697 q 583 730 647 730 q 460 714 519 730 q 350 667 400 697 q 258 593 300 636 q 187 499 216 550 q 142 387 158 447 m 781 370 l 785 450 q 756 483 785 461 q 704 520 727 506 q 584 553 647 553 q 471 517 521 553 q 394 418 422 481 q 367 279 367 355 q 399 142 367 203 q 488 44 432 80 q 595 8 544 8 q 680 16 647 8 q 734 33 713 23 q 770 53 755 43 q 794 71 785 63 q 807 78 803 78 q 818 64 810 78 q 826 47 826 51 q 817 33 826 42 q 786 10 807 23 q 738 -14 765 -3 q 603 -42 672 -42 q 488 -29 534 -42 q 402 9 442 -17 q 332 72 362 35 q 268 279 268 153 q 361 505 268 419 q 590 589 453 589 q 676 577 645 589 q 717 561 707 566 q 738 550 727 556 q 755 539 749 543 q 768 530 760 535 q 780 521 776 524 q 785 525 785 517 l 785 551 q 801 564 785 564 q 822 564 818 564 q 830 551 830 562 l 828 375 q 804 358 828 358 q 781 370 781 358 z "},"":{"ha":526,"x_min":38,"x_max":489,"o":"z "},"":{"ha":567,"x_min":65,"x_max":489,"o":"m 290 245 q 286 250 290 245 q 277 260 281 254 q 274 269 274 265 q 283 283 274 273 q 316 315 292 293 q 356 351 339 336 q 401 395 373 367 q 465 455 462 455 q 478 446 467 455 q 489 433 489 437 q 445 352 489 429 q 401 268 401 275 q 445 185 401 261 q 489 103 489 109 q 478 89 489 98 q 465 81 468 81 q 446 96 462 81 q 401 141 430 112 q 358 183 372 170 q 329 209 343 196 q 307 230 314 223 q 290 245 299 236 m 82 245 q 77 250 82 245 q 69 260 73 254 q 65 269 65 265 q 75 283 65 273 q 108 315 84 293 q 148 351 131 336 q 193 395 164 367 q 257 455 254 455 q 270 446 259 455 q 280 433 280 437 q 237 352 280 429 q 193 268 193 275 q 237 185 193 261 q 280 103 280 109 q 270 89 280 98 q 257 81 259 81 q 238 96 254 81 q 193 141 222 112 q 150 183 164 170 q 121 209 135 196 q 99 230 106 223 q 82 245 91 236 z "},"":{"ha":732,"x_min":39,"x_max":694,"o":"m 624 237 q 592 257 624 257 l 70 257 q 44 266 50 257 q 39 299 39 276 q 70 327 39 327 l 663 327 q 688 320 682 327 q 694 296 694 314 l 694 76 q 668 52 694 52 q 627 66 633 52 q 624 83 624 72 l 624 237 z "},"":{"ha":372,"x_min":38,"x_max":328,"o":"m 314 282 q 180 276 298 281 q 49 271 61 271 q 38 284 38 271 q 46 317 38 297 q 66 339 55 338 q 195 344 76 340 q 321 349 314 349 q 328 334 328 349 q 314 282 328 284 z "},"":{"ha":744,"x_min":31,"x_max":714,"o":"m 57 517 q 44 549 57 517 q 31 653 31 581 q 57 789 31 725 q 128 899 83 853 q 237 973 174 946 q 372 1000 301 1000 q 507 973 444 1000 q 616 900 571 946 q 687 789 661 854 q 714 653 714 725 q 687 517 714 581 q 616 406 661 452 q 507 333 571 360 q 372 306 444 306 q 237 333 301 306 q 128 406 174 360 q 57 517 83 452 m 113 807 q 93 772 113 807 q 74 653 74 736 q 113 499 74 569 q 220 387 152 428 q 362 346 289 346 q 490 370 435 346 q 585 436 546 394 q 648 533 625 477 q 671 653 671 590 q 648 772 671 715 q 585 870 625 829 q 490 935 546 911 q 362 960 435 960 q 220 918 289 960 q 113 807 152 877 m 218 451 q 204 466 204 451 q 208 482 204 480 q 221 485 212 485 l 246 485 q 249 561 249 513 l 249 645 q 243 856 249 826 l 210 854 q 197 857 201 854 q 193 870 193 861 q 196 884 193 880 q 210 889 199 889 l 283 887 l 376 892 q 512 825 483 892 q 521 777 521 804 q 439 669 521 712 q 543 519 538 634 q 545 493 544 502 q 546 485 546 485 l 576 485 q 586 480 584 485 q 588 464 588 476 q 572 451 588 451 l 486 453 q 472 467 472 453 l 472 504 q 466 580 472 561 q 454 610 460 598 q 439 628 448 621 q 393 648 418 645 q 315 651 367 651 l 313 651 q 318 485 313 529 l 354 485 q 365 468 365 485 q 354 451 365 451 l 282 453 l 218 451 m 343 861 l 314 860 q 313 832 313 853 l 313 681 l 315 681 l 401 679 q 453 768 453 705 q 420 836 453 810 q 343 861 388 861 z "},"":{"ha":555,"x_min":135,"x_max":421,"o":"m 406 764 q 421 751 421 764 q 416 708 421 713 q 402 703 411 703 l 151 703 q 138 705 142 703 q 135 717 135 707 q 136 742 135 726 q 141 761 138 758 q 154 764 144 764 l 406 764 z "},"":{"ha":355,"x_min":52,"x_max":304,"o":"m 89 654 q 70 672 89 654 q 52 743 52 691 q 89 832 52 795 q 178 869 125 869 q 267 832 230 869 q 304 743 304 795 q 267 654 304 691 q 178 617 230 617 q 89 654 125 617 m 125 796 q 114 785 125 796 q 103 743 103 774 q 125 690 103 712 q 178 668 146 668 q 231 690 209 668 q 253 743 253 712 q 231 796 253 774 q 178 818 209 818 q 125 796 146 818 z "},"":{"ha":732,"x_min":39,"x_max":693,"o":"m 67 97 q 39 122 39 97 q 52 164 39 158 q 68 167 58 167 l 664 167 q 687 160 681 167 q 693 134 693 152 q 687 107 693 116 q 660 97 681 97 l 67 97 m 400 211 q 375 188 400 188 q 340 192 350 188 q 331 211 331 196 l 331 397 q 328 411 331 409 q 313 414 326 414 l 67 414 q 44 422 47 414 q 39 450 39 433 q 68 485 39 485 l 319 485 q 329 487 327 485 q 331 494 331 489 l 331 688 q 356 712 331 712 q 391 707 382 712 q 400 685 400 701 l 400 496 q 413 485 400 485 l 667 485 q 693 460 693 485 q 688 424 693 429 q 660 414 677 414 l 413 414 q 402 410 405 414 q 400 394 400 406 l 400 211 z "},"":{"ha":500,"x_min":53,"x_max":447,"o":"z "},"":{"ha":500,"x_min":64,"x_max":410,"o":"z "},"":{"ha":555,"x_min":235,"x_max":419,"o":"m 244 620 q 235 624 235 620 q 239 636 235 628 l 323 807 q 367 843 341 843 q 406 834 393 843 q 419 806 419 824 q 406 772 419 788 l 279 629 q 265 620 272 620 l 244 620 z "},"":{"ha":707,"x_min":31,"x_max":663,"o":"m 492 -28 q 440 65 440 -28 q 451 177 440 99 q 463 256 463 254 q 462 259 463 259 q 444 229 462 259 q 403 165 426 199 l 369 115 q 313 40 329 57 q 283 11 297 24 q 254 -8 268 -1 q 145 1 176 -49 q 128 40 133 21 q 120 59 122 59 q 113 37 118 59 q 101 -36 108 15 q 95 -107 95 -86 q 103 -152 95 -129 q 120 -193 111 -175 q 128 -216 128 -211 q 126 -226 128 -220 q 119 -240 123 -232 q 84 -258 107 -258 q 46 -240 61 -258 q 31 -183 31 -222 q 39 -92 31 -144 q 59 1 48 -40 q 117 229 103 166 q 142 340 131 291 q 163 425 154 389 q 178 480 173 461 q 190 510 184 499 q 208 526 198 526 q 267 498 267 526 q 253 441 267 488 q 196 178 210 286 q 192 118 192 124 q 228 57 192 57 q 379 202 287 57 q 506 458 445 307 q 530 518 525 509 q 548 528 535 528 q 581 521 561 528 q 602 503 602 515 q 567 316 602 499 q 532 109 532 133 q 542 75 532 84 q 565 65 551 65 q 592 80 578 65 q 613 112 605 95 q 648 158 633 158 q 663 137 663 158 q 649 87 663 115 q 613 34 635 60 q 558 -10 591 8 q 492 -28 526 -28 z "},"":{"ha":683,"x_min":52,"x_max":632,"o":"m 52 575 q 63 670 52 628 q 95 745 75 713 q 142 803 115 777 q 199 847 169 829 q 261 876 229 864 q 379 899 321 899 q 396 894 392 899 q 400 879 400 890 l 400 225 q 389 210 400 210 q 215 268 309 210 q 101 386 147 311 q 52 575 52 467 m 400 -325 q 385 -310 385 -325 l 385 -285 q 400 -270 385 -270 l 483 -270 q 493 -269 491 -270 q 494 -262 494 -268 l 494 895 q 498 909 494 906 q 511 912 501 912 l 617 912 q 629 908 627 912 q 632 893 632 904 l 632 873 q 627 858 632 860 q 617 857 623 857 l 547 857 q 541 856 542 857 q 540 847 540 854 l 540 -311 q 538 -323 540 -321 q 522 -325 536 -325 l 400 -325 z "},"":{"ha":174,"x_min":31,"x_max":157,"o":"m 94 401 q 80 401 94 401 q 48 424 66 401 q 31 474 31 447 q 47 521 31 502 q 92 540 63 540 q 139 518 121 540 q 157 468 157 495 q 140 421 157 441 q 94 401 122 401 z "},"":{"ha":555,"x_min":147,"x_max":415,"o":"m 207 -143 l 283 0 l 319 0 q 269 -92 273 -83 q 304 -89 283 -89 q 384 -116 354 -89 q 415 -190 415 -144 q 369 -271 415 -236 q 255 -306 323 -306 q 155 -275 190 -306 q 147 -264 147 -268 q 162 -246 147 -246 q 176 -251 165 -246 q 240 -265 207 -265 q 332 -201 332 -265 q 317 -161 332 -178 q 279 -143 303 -143 q 239 -147 256 -143 q 220 -151 222 -151 q 213 -148 218 -151 q 207 -143 207 -145 z "},"":{"ha":500,"x_min":104,"x_max":378,"o":"z "},"":{"ha":524,"x_min":38,"x_max":472,"o":"z "},"":{"ha":567,"x_min":78,"x_max":501,"o":"m 310 81 q 309 81 310 81 q 297 90 308 81 q 286 103 286 99 q 330 184 286 106 q 373 268 373 261 q 330 352 373 275 q 286 433 286 428 q 297 447 286 438 q 310 455 307 455 q 329 440 313 455 q 374 395 345 424 q 417 353 402 367 q 446 327 432 340 q 468 307 460 314 q 485 291 476 300 q 501 269 501 274 q 492 253 501 263 q 459 221 483 243 q 418 184 435 200 q 373 141 402 169 q 310 81 313 81 m 102 81 q 101 81 102 81 q 89 90 99 81 q 78 103 78 99 q 121 184 78 106 q 165 268 165 261 q 121 352 165 275 q 78 433 78 428 q 88 447 78 438 q 102 455 99 455 q 121 440 104 455 q 165 395 137 424 q 209 353 194 367 q 238 327 223 340 q 260 307 252 314 q 276 291 268 300 q 293 269 293 274 q 284 253 293 263 q 251 221 275 243 q 210 184 227 200 q 165 141 194 169 q 102 81 104 81 z "},"":{"ha":1103,"x_min":104,"x_max":1020,"o":"m 893 -14 q 848 -19 869 -19 q 826 -13 827 -19 q 825 0 824 -7 l 857 175 q 847 183 859 183 l 654 183 q 632 196 632 183 q 657 252 632 218 q 766 374 683 286 q 869 487 850 463 q 902 519 889 511 q 918 530 915 527 q 929 542 921 533 q 942 556 937 550 q 955 567 948 561 q 975 579 968 579 q 989 560 989 579 q 971 415 989 541 q 947 250 954 289 q 956 244 947 244 l 1007 244 q 1020 229 1020 244 l 1020 197 q 1003 183 1020 183 l 942 183 q 932 175 934 183 q 906 -3 907 6 q 895 -13 905 -13 l 895 -14 l 893 -14 m 697 244 l 860 244 q 874 268 869 244 q 902 468 898 393 q 761 319 819 385 q 697 244 704 254 m 353 -4 q 340 -20 345 -17 q 310 -22 335 -22 q 285 -14 285 -22 q 289 -6 285 -13 q 293 3 292 1 l 861 917 q 864 922 862 918 q 868 926 867 926 q 872 929 869 927 q 903 932 878 932 q 928 924 928 932 q 925 918 928 922 q 922 912 923 913 l 353 -4 z "},"":{"ha":1172,"x_min":104,"x_max":1119,"o":"m 744 -4 q 725 8 725 -4 q 762 71 725 21 q 807 128 799 121 q 853 171 850 167 q 1019 411 1019 329 q 994 479 1019 452 q 931 506 968 506 q 870 496 894 506 q 830 474 846 487 q 802 447 814 460 q 782 425 790 434 q 768 415 773 415 q 754 422 763 415 q 744 436 744 429 q 755 459 744 444 q 785 494 765 474 q 829 531 805 513 q 952 574 886 574 q 1061 530 1018 574 q 1104 416 1104 486 q 1032 267 1104 346 q 923 169 980 210 q 860 123 865 127 q 846 109 855 118 q 827 86 838 99 q 812 70 815 73 l 1054 70 q 1063 97 1055 72 q 1087 153 1082 153 q 1106 150 1093 153 q 1119 145 1119 148 q 1112 118 1119 143 q 1093 58 1104 92 q 1080 12 1082 23 q 1074 -1 1077 1 q 1061 -4 1070 -4 l 744 -4 m 353 -4 q 340 -20 345 -17 q 310 -22 335 -22 q 285 -14 285 -22 q 289 -6 285 -13 q 293 3 292 1 l 861 917 q 864 922 862 918 q 868 926 867 926 q 872 929 869 927 q 903 932 878 932 q 928 924 928 932 q 925 918 928 922 q 922 912 923 913 l 353 -4 z "},"":{"ha":1103,"x_min":64,"x_max":1020,"o":"m 893 -14 q 848 -19 869 -19 q 826 -13 827 -19 q 825 0 824 -7 l 857 175 q 847 183 859 183 l 654 183 q 632 196 632 183 q 657 252 632 218 q 766 374 683 286 q 869 487 850 463 q 902 519 889 511 q 918 530 915 527 q 929 542 921 533 q 942 556 937 550 q 955 567 948 561 q 975 579 968 579 q 989 560 989 579 q 971 415 989 541 q 947 250 954 289 q 956 244 947 244 l 1007 244 q 1020 229 1020 244 l 1020 197 q 1003 183 1020 183 l 942 183 q 932 175 934 183 q 906 -3 907 6 q 895 -13 905 -13 l 895 -14 l 893 -14 m 697 244 l 860 244 q 874 268 869 244 q 902 468 898 393 q 761 319 819 385 q 697 244 704 254 m 353 -4 q 340 -20 345 -17 q 310 -22 335 -22 q 285 -14 285 -22 q 289 -6 285 -13 q 293 3 292 1 l 861 917 q 864 922 862 918 q 868 926 867 926 q 872 929 869 927 q 903 932 878 932 q 928 924 928 932 q 925 918 928 922 q 922 912 923 913 l 353 -4 z "},"":{"ha":519,"x_min":44,"x_max":413,"o":"m 371 76 q 392 32 392 76 l 392 18 q 376 -6 392 -3 q 260 -15 334 -15 q 143 13 186 -15 q 72 96 100 42 q 44 190 44 150 q 48 251 44 231 q 55 285 51 272 q 68 313 59 298 q 216 475 99 361 q 256 514 247 506 q 279 537 264 523 q 304 562 295 551 q 327 586 314 572 q 351 630 351 614 q 345 660 351 647 q 332 682 339 673 q 319 699 325 691 q 313 709 313 706 q 322 721 313 712 q 336 730 331 730 q 352 720 340 730 q 376 694 363 710 q 407 616 407 655 q 384 542 407 577 q 329 475 361 507 q 266 414 297 443 q 214 364 235 384 q 167 316 193 343 q 126 269 142 289 q 89 189 89 220 q 104 131 89 158 q 139 92 119 104 q 260 72 171 72 l 371 76 m 345 772 q 334 772 345 772 q 301 795 323 772 q 279 839 279 819 q 286 875 279 860 q 303 899 293 890 q 346 917 323 917 q 390 893 368 917 q 413 845 413 869 q 390 796 413 821 q 345 772 367 772 z "},"":{"ha":956,"x_min":24,"x_max":932,"o":"m 554 1136 q 598 1181 554 1181 q 644 1143 625 1181 l 700 1025 q 701 1015 701 1022 q 692 1008 701 1008 l 667 1008 q 658 1013 662 1008 q 654 1018 654 1018 l 569 1101 q 554 1136 554 1117 m 149 -4 l 46 -8 q 28 -3 32 -8 q 24 18 24 2 q 29 38 24 35 q 53 42 35 42 l 97 42 q 205 221 108 55 q 581 850 514 752 q 601 873 588 861 q 648 933 634 907 q 675 958 661 958 q 697 933 694 958 q 721 784 701 908 q 759 557 742 661 q 798 331 777 453 q 856 42 844 66 l 912 42 q 928 37 924 42 q 932 18 932 32 q 928 -3 932 3 q 912 -8 924 -8 l 787 -4 l 632 -8 q 614 -3 618 -8 q 610 19 610 3 q 615 38 610 35 q 639 42 621 42 l 717 42 l 717 53 q 698 220 717 85 q 677 367 679 354 q 674 383 676 380 q 663 386 672 386 l 394 386 q 378 384 382 386 q 369 373 374 381 q 338 315 365 365 q 295 233 312 266 q 254 155 278 201 q 199 42 204 61 l 290 42 q 306 37 302 42 q 310 18 310 32 q 306 -3 310 3 q 290 -8 302 -8 l 149 -4 m 560 720 q 539 681 560 720 q 466 554 517 643 q 407 449 415 464 q 399 431 399 434 q 419 428 399 428 l 651 428 q 665 431 665 428 q 636 620 665 445 q 605 796 607 796 q 560 720 604 796 z "},"":{"ha":956,"x_min":24,"x_max":932,"o":"m 675 1008 q 665 1015 665 1008 q 669 1025 665 1021 l 762 1144 q 814 1181 791 1181 q 858 1147 858 1181 q 832 1101 858 1120 l 716 1018 q 712 1015 715 1017 q 701 1008 706 1008 l 675 1008 m 149 -4 l 46 -8 q 28 -3 32 -8 q 24 18 24 2 q 29 38 24 35 q 53 42 35 42 l 97 42 q 205 221 108 55 q 581 850 514 752 q 601 873 588 861 q 648 933 634 907 q 675 958 661 958 q 697 933 694 958 q 721 784 701 908 q 759 557 742 661 q 798 331 777 453 q 856 42 844 66 l 912 42 q 928 37 924 42 q 932 18 932 32 q 928 -3 932 3 q 912 -8 924 -8 l 787 -4 l 632 -8 q 614 -3 618 -8 q 610 19 610 3 q 615 38 610 35 q 639 42 621 42 l 717 42 l 717 53 q 698 220 717 85 q 677 367 679 354 q 674 383 676 380 q 663 386 672 386 l 394 386 q 378 384 382 386 q 369 373 374 381 q 338 315 365 365 q 295 233 312 266 q 254 155 278 201 q 199 42 204 61 l 290 42 q 306 37 302 42 q 310 18 310 32 q 306 -3 310 3 q 290 -8 302 -8 l 149 -4 m 560 720 q 539 681 560 720 q 466 554 517 643 q 407 449 415 464 q 399 431 399 434 q 419 428 399 428 l 651 428 q 665 431 665 428 q 636 620 665 445 q 605 796 607 796 q 560 720 604 796 z "},"":{"ha":956,"x_min":24,"x_max":932,"o":"m 542 1008 q 533 1013 533 1008 q 542 1025 533 1017 q 674 1159 668 1153 q 699 1170 684 1170 l 726 1170 q 742 1167 738 1170 q 753 1153 746 1164 l 826 1025 q 830 1014 830 1019 q 818 1008 830 1008 l 804 1008 q 789 1018 798 1008 l 701 1090 q 696 1090 700 1092 l 578 1017 q 559 1008 564 1008 l 542 1008 m 149 -4 l 46 -8 q 28 -3 32 -8 q 24 18 24 2 q 29 38 24 35 q 53 42 35 42 l 97 42 q 205 221 108 55 q 581 850 514 752 q 601 873 588 861 q 648 933 634 907 q 675 958 661 958 q 697 933 694 958 q 721 784 701 908 q 759 557 742 661 q 798 331 777 453 q 856 42 844 66 l 912 42 q 928 37 924 42 q 932 18 932 32 q 928 -3 932 3 q 912 -8 924 -8 l 787 -4 l 632 -8 q 614 -3 618 -8 q 610 19 610 3 q 615 38 610 35 q 639 42 621 42 l 717 42 l 717 53 q 698 220 717 85 q 677 367 679 354 q 674 383 676 380 q 663 386 672 386 l 394 386 q 378 384 382 386 q 369 373 374 381 q 338 315 365 365 q 295 233 312 266 q 254 155 278 201 q 199 42 204 61 l 290 42 q 306 37 302 42 q 310 18 310 32 q 306 -3 310 3 q 290 -8 302 -8 l 149 -4 m 560 720 q 539 681 560 720 q 466 554 517 643 q 407 449 415 464 q 399 431 399 434 q 419 428 399 428 l 651 428 q 665 431 665 428 q 636 620 665 445 q 605 796 607 796 q 560 720 604 796 z "},"":{"ha":956,"x_min":24,"x_max":932,"o":"m 149 -4 l 46 -8 q 28 -3 32 -8 q 24 18 24 2 q 29 38 24 35 q 53 42 35 42 l 97 42 q 205 221 108 55 q 581 850 514 752 q 601 873 588 861 q 648 933 634 907 q 675 958 661 958 q 697 933 694 958 q 721 784 701 908 q 759 557 742 661 q 798 331 777 453 q 856 42 844 66 l 912 42 q 928 37 924 42 q 932 18 932 32 q 928 -3 932 3 q 912 -8 924 -8 l 787 -4 l 632 -8 q 614 -3 618 -8 q 610 19 610 3 q 615 38 610 35 q 639 42 621 42 l 717 42 l 717 53 q 698 220 717 85 q 677 367 679 354 q 674 383 676 380 q 663 386 672 386 l 394 386 q 378 384 382 386 q 369 373 374 381 q 338 315 365 365 q 295 233 312 266 q 254 155 278 201 q 199 42 204 61 l 290 42 q 306 37 302 42 q 310 18 310 32 q 306 -3 310 3 q 290 -8 302 -8 l 149 -4 m 560 720 q 539 681 560 720 q 466 554 517 643 q 407 449 415 464 q 399 431 399 434 q 419 428 399 428 l 651 428 q 665 431 665 428 q 636 620 665 445 q 605 796 607 796 q 560 720 604 796 z "},"":{"ha":956,"x_min":24,"x_max":932,"o":"m 149 -4 l 46 -8 q 28 -3 32 -8 q 24 18 24 2 q 29 38 24 35 q 53 42 35 42 l 97 42 q 205 221 108 55 q 581 850 514 752 q 601 873 588 861 q 648 933 634 907 q 675 958 661 958 q 697 933 694 958 q 721 784 701 908 q 759 557 742 661 q 798 331 777 453 q 856 42 844 66 l 912 42 q 928 37 924 42 q 932 18 932 32 q 928 -3 932 3 q 912 -8 924 -8 l 787 -4 l 632 -8 q 614 -3 618 -8 q 610 19 610 3 q 615 38 610 35 q 639 42 621 42 l 717 42 l 717 53 q 698 220 717 85 q 677 367 679 354 q 674 383 676 380 q 663 386 672 386 l 394 386 q 378 384 382 386 q 369 373 374 381 q 338 315 365 365 q 295 233 312 266 q 254 155 278 201 q 199 42 204 61 l 290 42 q 306 37 302 42 q 310 18 310 32 q 306 -3 310 3 q 290 -8 302 -8 l 149 -4 m 560 720 q 539 681 560 720 q 466 554 517 643 q 407 449 415 464 q 399 431 399 434 q 419 428 399 428 l 651 428 q 665 431 665 428 q 636 620 665 445 q 605 796 607 796 q 560 720 604 796 z "},"":{"ha":956,"x_min":24,"x_max":932,"o":"m 149 -4 l 46 -8 q 28 -3 32 -8 q 24 18 24 2 q 29 38 24 35 q 53 42 35 42 l 97 42 q 205 221 108 55 q 581 850 514 752 q 601 873 588 861 q 648 933 634 907 q 675 958 661 958 q 697 933 694 958 q 721 784 701 908 q 759 557 742 661 q 798 331 777 453 q 856 42 844 66 l 912 42 q 928 37 924 42 q 932 18 932 32 q 928 -3 932 3 q 912 -8 924 -8 l 787 -4 l 632 -8 q 614 -3 618 -8 q 610 19 610 3 q 615 38 610 35 q 639 42 621 42 l 717 42 l 717 53 q 698 220 717 85 q 677 367 679 354 q 674 383 676 380 q 663 386 672 386 l 394 386 q 378 384 382 386 q 369 373 374 381 q 338 315 365 365 q 295 233 312 266 q 254 155 278 201 q 199 42 204 61 l 290 42 q 306 37 302 42 q 310 18 310 32 q 306 -3 310 3 q 290 -8 302 -8 l 149 -4 m 560 720 q 539 681 560 720 q 466 554 517 643 q 407 449 415 464 q 399 431 399 434 q 419 428 399 428 l 651 428 q 665 431 665 428 q 636 620 665 445 q 605 796 607 796 q 560 720 604 796 z "},"":{"ha":1344,"x_min":-18,"x_max":1321,"o":"m 107 -4 l 5 -8 q -14 -3 -9 -8 q -18 19 -18 3 q -12 38 -18 35 q 11 42 -7 42 l 56 42 q 367 429 67 42 q 718 879 666 815 l 632 879 q 607 886 612 879 q 602 904 602 893 q 622 928 602 928 l 715 926 q 836 924 807 924 l 1126 928 q 1254 942 1253 928 q 1276 963 1254 963 q 1298 959 1292 963 q 1304 946 1304 955 q 1299 884 1304 936 q 1292 767 1293 832 q 1286 754 1292 757 q 1266 751 1281 751 q 1246 755 1251 751 q 1240 766 1240 759 q 1249 873 1240 774 q 890 882 1188 882 q 855 675 877 844 q 833 501 833 506 q 834 495 833 496 q 850 493 835 493 l 1078 493 q 1139 508 1136 493 l 1154 585 q 1179 594 1156 594 q 1203 582 1203 594 q 1193 527 1203 574 q 1160 355 1162 379 q 1156 328 1158 331 q 1150 325 1154 326 q 1136 323 1145 323 l 1131 323 q 1108 335 1108 323 l 1125 432 q 1107 445 1125 443 q 1060 447 1088 447 l 850 447 q 831 446 834 447 q 826 430 828 445 q 800 256 823 416 q 772 54 777 96 q 778 46 772 46 l 1221 56 q 1245 116 1227 61 q 1267 183 1263 172 q 1277 199 1272 195 q 1292 203 1281 203 q 1312 198 1302 203 q 1321 184 1321 192 q 1313 153 1321 176 q 1289 87 1305 131 q 1266 21 1273 43 q 1253 -4 1259 0 q 1235 -8 1246 -8 l 730 -4 l 588 -8 q 568 -3 573 -8 q 564 19 564 3 q 569 38 564 35 q 593 42 575 42 l 649 42 l 707 414 l 432 414 q 408 401 417 414 q 365 340 398 387 q 305 254 333 294 q 245 167 278 215 q 165 42 175 64 l 256 42 q 271 37 268 42 q 275 18 275 32 q 271 -3 275 3 q 256 -8 268 -8 l 107 -4 m 461 472 q 468 455 449 455 l 712 455 l 740 653 q 749 719 741 659 q 768 867 768 848 q 755 861 768 877 l 461 472 z "},"":{"ha":952,"x_min":44,"x_max":908,"o":"m 414 -143 l 478 -24 q 146 109 262 -18 q 44 404 44 219 q 197 784 44 628 q 421 918 292 881 q 562 936 486 936 q 716 903 637 936 q 844 820 795 870 q 847 830 845 823 q 851 844 849 838 q 854 858 852 851 q 864 872 859 872 q 892 867 877 872 q 908 853 908 862 q 885 730 908 845 q 860 607 862 614 q 857 597 859 600 q 852 594 855 595 q 842 593 847 593 l 838 593 q 813 599 824 593 q 801 612 801 605 l 833 747 q 782 795 822 766 q 709 844 742 825 q 565 889 630 889 q 450 868 499 889 q 359 811 400 847 q 284 727 319 775 q 227 625 250 679 q 178 412 178 510 q 204 244 178 315 q 275 128 230 174 q 510 32 370 32 q 711 91 617 32 q 761 135 757 119 q 796 251 773 168 q 833 267 804 276 q 860 249 860 261 q 814 85 860 238 q 710 21 806 60 q 514 -24 610 -20 q 499 -50 509 -33 q 484 -78 490 -67 q 476 -92 478 -89 q 511 -89 490 -89 q 591 -116 561 -89 q 622 -190 622 -144 q 576 -271 622 -236 q 463 -306 530 -306 q 362 -275 397 -306 q 354 -264 354 -268 q 370 -246 354 -246 q 383 -251 372 -246 q 447 -265 414 -265 q 539 -201 539 -265 q 507 -149 539 -162 q 479 -143 495 -143 q 446 -147 463 -143 q 427 -151 429 -151 q 420 -148 426 -151 q 414 -143 414 -145 z "},"":{"ha":804,"x_min":24,"x_max":781,"o":"m 347 1136 q 392 1181 347 1181 q 437 1143 418 1181 l 493 1025 q 494 1015 494 1022 q 485 1008 494 1008 l 460 1008 q 451 1013 455 1008 q 447 1018 448 1018 l 362 1101 q 347 1136 347 1117 m 190 -4 l 47 -8 q 28 -3 33 -8 q 24 19 24 3 q 29 38 24 35 q 53 42 35 42 l 108 42 q 120 114 109 44 q 142 259 131 184 q 169 436 154 333 q 196 621 184 538 q 223 869 223 821 l 222 879 l 142 879 q 119 887 121 879 q 117 904 117 895 q 135 928 117 928 l 201 926 q 296 924 267 924 q 586 928 296 924 q 714 942 712 928 q 736 963 714 963 q 758 959 751 963 q 764 946 764 955 q 759 884 764 936 q 751 767 753 832 q 746 754 751 757 q 726 751 741 751 q 705 755 711 751 q 700 764 700 759 q 708 873 700 770 q 350 882 648 882 q 315 675 337 844 q 293 501 293 506 q 293 495 293 496 q 310 493 294 493 l 537 493 q 598 508 596 493 l 614 585 q 639 594 615 594 q 663 582 663 594 q 652 527 663 573 q 620 357 622 384 q 614 327 617 330 q 596 323 609 323 l 590 323 q 568 335 568 323 l 585 432 q 566 445 585 443 q 519 447 548 447 l 310 447 q 291 446 294 447 q 285 430 288 445 q 260 256 282 416 q 232 54 237 96 q 237 46 232 46 l 681 56 q 704 116 686 61 q 727 183 723 172 q 736 199 731 195 q 752 203 741 203 q 771 198 762 203 q 781 184 781 192 q 773 153 781 176 q 749 87 765 131 q 726 21 733 43 q 713 -4 719 0 q 694 -8 706 -8 l 190 -4 z "},"":{"ha":804,"x_min":24,"x_max":781,"o":"m 468 1008 q 458 1015 458 1008 q 463 1025 458 1021 l 555 1144 q 607 1181 584 1181 q 651 1147 651 1181 q 625 1101 651 1120 l 510 1018 q 506 1015 509 1017 q 494 1008 499 1008 l 468 1008 m 190 -4 l 47 -8 q 28 -3 33 -8 q 24 19 24 3 q 29 38 24 35 q 53 42 35 42 l 108 42 q 120 114 109 44 q 142 259 131 184 q 169 436 154 333 q 196 621 184 538 q 223 869 223 821 l 222 879 l 142 879 q 119 887 121 879 q 117 904 117 895 q 135 928 117 928 l 201 926 q 296 924 267 924 q 586 928 296 924 q 714 942 712 928 q 736 963 714 963 q 758 959 751 963 q 764 946 764 955 q 759 884 764 936 q 751 767 753 832 q 746 754 751 757 q 726 751 741 751 q 705 755 711 751 q 700 764 700 759 q 708 873 700 770 q 350 882 648 882 q 315 675 337 844 q 293 501 293 506 q 293 495 293 496 q 310 493 294 493 l 537 493 q 598 508 596 493 l 614 585 q 639 594 615 594 q 663 582 663 594 q 652 527 663 573 q 620 357 622 384 q 614 327 617 330 q 596 323 609 323 l 590 323 q 568 335 568 323 l 585 432 q 566 445 585 443 q 519 447 548 447 l 310 447 q 291 446 294 447 q 285 430 288 445 q 260 256 282 416 q 232 54 237 96 q 237 46 232 46 l 681 56 q 704 116 686 61 q 727 183 723 172 q 736 199 731 195 q 752 203 741 203 q 771 198 762 203 q 781 184 781 192 q 773 153 781 176 q 749 87 765 131 q 726 21 733 43 q 713 -4 719 0 q 694 -8 706 -8 l 190 -4 z "},"":{"ha":804,"x_min":24,"x_max":781,"o":"m 335 1008 q 327 1013 327 1008 q 335 1025 327 1017 q 467 1159 461 1153 q 492 1170 477 1170 l 519 1170 q 535 1167 531 1170 q 546 1153 539 1164 l 620 1025 q 624 1014 624 1019 q 611 1008 624 1008 l 597 1008 q 582 1018 591 1008 l 494 1090 q 489 1090 493 1092 l 371 1017 q 353 1008 357 1008 l 335 1008 m 190 -4 l 47 -8 q 28 -3 33 -8 q 24 19 24 3 q 29 38 24 35 q 53 42 35 42 l 108 42 q 120 114 109 44 q 142 259 131 184 q 169 436 154 333 q 196 621 184 538 q 223 869 223 821 l 222 879 l 142 879 q 119 887 121 879 q 117 904 117 895 q 135 928 117 928 l 201 926 q 296 924 267 924 q 586 928 296 924 q 714 942 712 928 q 736 963 714 963 q 758 959 751 963 q 764 946 764 955 q 759 884 764 936 q 751 767 753 832 q 746 754 751 757 q 726 751 741 751 q 705 755 711 751 q 700 764 700 759 q 708 873 700 770 q 350 882 648 882 q 315 675 337 844 q 293 501 293 506 q 293 495 293 496 q 310 493 294 493 l 537 493 q 598 508 596 493 l 614 585 q 639 594 615 594 q 663 582 663 594 q 652 527 663 573 q 620 357 622 384 q 614 327 617 330 q 596 323 609 323 l 590 323 q 568 335 568 323 l 585 432 q 566 445 585 443 q 519 447 548 447 l 310 447 q 291 446 294 447 q 285 430 288 445 q 260 256 282 416 q 232 54 237 96 q 237 46 232 46 l 681 56 q 704 116 686 61 q 727 183 723 172 q 736 199 731 195 q 752 203 741 203 q 771 198 762 203 q 781 184 781 192 q 773 153 781 176 q 749 87 765 131 q 726 21 733 43 q 713 -4 719 0 q 694 -8 706 -8 l 190 -4 z "},"":{"ha":804,"x_min":24,"x_max":781,"o":"m 190 -4 l 47 -8 q 28 -3 33 -8 q 24 19 24 3 q 29 38 24 35 q 53 42 35 42 l 108 42 q 120 114 109 44 q 142 259 131 184 q 169 436 154 333 q 196 621 184 538 q 223 869 223 821 l 222 879 l 142 879 q 119 887 121 879 q 117 904 117 895 q 135 928 117 928 l 201 926 q 296 924 267 924 q 586 928 296 924 q 714 942 712 928 q 736 963 714 963 q 758 959 751 963 q 764 946 764 955 q 759 884 764 936 q 751 767 753 832 q 746 754 751 757 q 726 751 741 751 q 705 755 711 751 q 700 764 700 759 q 708 873 700 770 q 350 882 648 882 q 315 675 337 844 q 293 501 293 506 q 293 495 293 496 q 310 493 294 493 l 537 493 q 598 508 596 493 l 614 585 q 639 594 615 594 q 663 582 663 594 q 652 527 663 573 q 620 357 622 384 q 614 327 617 330 q 596 323 609 323 l 590 323 q 568 335 568 323 l 585 432 q 566 445 585 443 q 519 447 548 447 l 310 447 q 291 446 294 447 q 285 430 288 445 q 260 256 282 416 q 232 54 237 96 q 237 46 232 46 l 681 56 q 704 116 686 61 q 727 183 723 172 q 736 199 731 195 q 752 203 741 203 q 771 198 762 203 q 781 184 781 192 q 773 153 781 176 q 749 87 765 131 q 726 21 733 43 q 713 -4 719 0 q 694 -8 706 -8 l 190 -4 z "},"":{"ha":524,"x_min":24,"x_max":500,"o":"m 205 1136 q 250 1181 205 1181 q 296 1143 276 1181 l 351 1025 q 353 1015 353 1022 q 343 1008 353 1008 l 318 1008 q 309 1013 313 1008 q 306 1018 306 1018 l 221 1101 q 205 1136 205 1117 m 204 -4 l 47 -8 q 28 -3 33 -8 q 24 19 24 3 q 29 38 24 35 q 53 42 35 42 l 133 42 q 201 448 146 80 q 256 850 256 816 q 247 883 256 883 l 154 883 q 135 904 135 883 q 141 929 135 925 q 162 933 147 933 q 325 929 162 933 l 476 933 q 496 928 491 933 q 500 906 500 922 q 495 887 500 890 q 471 883 489 883 l 393 883 q 326 484 378 851 q 274 56 274 118 q 280 42 274 42 l 372 42 q 388 37 384 42 q 392 18 392 32 q 388 -3 392 3 q 372 -8 384 -8 l 204 -4 z "},"":{"ha":524,"x_min":24,"x_max":510,"o":"m 326 1008 q 317 1015 317 1008 q 321 1025 317 1021 l 414 1144 q 466 1181 442 1181 q 510 1147 510 1181 q 483 1101 510 1120 l 368 1018 q 364 1015 367 1017 q 353 1008 357 1008 l 326 1008 m 204 -4 l 47 -8 q 28 -3 33 -8 q 24 19 24 3 q 29 38 24 35 q 53 42 35 42 l 133 42 q 201 448 146 80 q 256 850 256 816 q 247 883 256 883 l 154 883 q 135 904 135 883 q 141 929 135 925 q 162 933 147 933 q 325 929 162 933 l 476 933 q 496 928 491 933 q 500 906 500 922 q 495 887 500 890 q 471 883 489 883 l 393 883 q 326 484 378 851 q 274 56 274 118 q 280 42 274 42 l 372 42 q 388 37 384 42 q 392 18 392 32 q 388 -3 392 3 q 372 -8 384 -8 l 204 -4 z "},"":{"ha":524,"x_min":24,"x_max":500,"o":"m 193 1008 q 185 1013 185 1008 q 193 1025 185 1017 q 325 1159 319 1153 q 350 1170 336 1170 l 378 1170 q 393 1167 389 1170 q 404 1153 398 1164 l 478 1025 q 482 1014 482 1019 q 469 1008 482 1008 l 455 1008 q 440 1018 450 1008 l 353 1090 q 347 1090 351 1092 l 229 1017 q 211 1008 216 1008 l 193 1008 m 204 -4 l 47 -8 q 28 -3 33 -8 q 24 19 24 3 q 29 38 24 35 q 53 42 35 42 l 133 42 q 201 448 146 80 q 256 850 256 816 q 247 883 256 883 l 154 883 q 135 904 135 883 q 141 929 135 925 q 162 933 147 933 q 325 929 162 933 l 476 933 q 496 928 491 933 q 500 906 500 922 q 495 887 500 890 q 471 883 489 883 l 393 883 q 326 484 378 851 q 274 56 274 118 q 280 42 274 42 l 372 42 q 388 37 384 42 q 392 18 392 32 q 388 -3 392 3 q 372 -8 384 -8 l 204 -4 z "},"":{"ha":524,"x_min":24,"x_max":510,"o":"m 204 -4 l 47 -8 q 28 -3 33 -8 q 24 19 24 3 q 29 38 24 35 q 53 42 35 42 l 133 42 q 201 448 146 80 q 256 850 256 816 q 247 883 256 883 l 154 883 q 135 904 135 883 q 141 929 135 925 q 162 933 147 933 q 325 929 162 933 l 476 933 q 496 928 491 933 q 500 906 500 922 q 495 887 500 890 q 471 883 489 883 l 393 883 q 326 484 378 851 q 274 56 274 118 q 280 42 274 42 l 372 42 q 388 37 384 42 q 392 18 392 32 q 388 -3 392 3 q 372 -8 384 -8 l 204 -4 z "},"":{"ha":1030,"x_min":22,"x_max":979,"o":"m 176 -4 l 42 -10 q 26 -5 29 -10 q 22 15 22 0 q 28 35 22 30 q 50 39 35 39 l 107 39 q 170 429 119 74 q 169 440 171 438 q 158 442 167 442 l 68 442 q 61 460 61 442 l 61 468 q 68 483 61 483 l 162 483 q 175 485 173 483 q 178 495 177 486 q 192 599 179 504 q 228 878 228 860 l 228 879 l 129 877 q 112 880 118 877 q 107 898 107 884 q 111 918 107 911 q 129 924 115 924 l 294 922 l 478 925 q 886 770 757 925 q 979 465 979 657 q 769 68 979 197 q 474 -10 643 -10 l 176 -4 m 303 442 q 293 439 295 442 q 266 270 290 436 q 242 75 242 104 q 248 43 242 46 q 329 39 254 39 q 470 51 404 39 q 584 83 535 63 q 672 131 632 102 q 739 190 712 159 q 787 257 766 221 q 819 326 807 293 q 837 394 830 359 q 849 512 849 451 q 834 628 849 572 q 786 730 819 684 q 706 809 754 777 q 439 878 606 878 q 356 874 358 878 q 341 777 354 870 q 313 591 327 685 q 298 493 299 498 q 299 486 298 488 q 308 483 301 483 l 581 483 q 586 463 586 483 q 581 442 586 442 l 303 442 z "},"":{"ha":1144,"x_min":24,"x_max":1121,"o":"m 168 -4 l 47 -8 q 28 -3 33 -8 q 24 19 24 3 q 29 38 24 35 q 53 42 35 42 l 118 42 q 203 530 149 230 q 257 842 257 830 q 257 856 257 854 q 255 858 256 857 q 253 862 255 859 q 248 872 251 865 q 221 883 242 883 l 138 883 q 123 888 126 883 q 121 905 121 892 q 121 923 121 918 q 138 933 123 933 l 296 929 l 358 933 q 390 914 378 933 l 846 221 q 864 205 857 205 q 896 374 872 226 q 961 871 961 781 l 961 883 l 857 883 q 841 888 845 883 q 838 907 838 893 q 841 928 838 922 q 857 933 845 933 l 981 929 l 1097 933 q 1116 928 1112 933 q 1121 906 1121 922 q 1115 887 1121 890 q 1092 883 1109 883 l 1036 883 q 926 239 1021 834 q 907 68 913 153 q 897 -26 902 -18 q 882 -33 892 -33 q 868 -31 873 -33 q 858 -22 863 -28 q 850 -12 853 -17 q 842 1 847 -8 q 672 262 783 99 l 317 782 q 301 799 305 798 q 296 796 298 801 q 295 788 295 791 q 286 734 294 785 q 268 615 278 683 q 245 460 257 547 q 222 296 232 373 q 197 58 197 112 l 199 42 l 315 42 q 331 37 327 42 q 335 18 335 32 q 331 -3 335 3 q 315 -8 327 -8 l 168 -4 z "},"":{"ha":1019,"x_min":44,"x_max":975,"o":"m 468 1136 q 512 1181 468 1181 q 558 1143 538 1181 l 614 1025 q 615 1015 615 1022 q 606 1008 615 1008 l 581 1008 q 572 1013 575 1008 q 568 1018 568 1018 l 483 1101 q 468 1136 468 1117 m 127 110 q 108 134 127 110 q 67 230 89 159 q 44 386 44 301 q 65 546 44 471 q 123 681 86 621 q 210 789 160 740 q 317 871 259 838 q 564 939 437 939 q 784 881 690 939 q 926 721 877 824 q 975 483 975 618 q 826 119 975 271 q 600 -16 730 21 q 465 -35 534 -35 q 334 -20 395 -35 q 220 28 273 -5 q 127 110 166 61 m 195 518 q 180 406 180 457 q 186 315 180 355 q 203 236 192 275 q 233 163 215 197 q 276 100 251 129 q 332 51 301 71 q 488 7 397 7 q 745 179 637 7 q 829 403 804 275 q 840 507 840 463 q 836 587 840 552 q 821 660 831 623 q 795 730 810 696 q 758 793 781 764 q 709 845 736 823 q 569 892 650 892 q 300 736 422 892 q 195 518 225 639 z "},"":{"ha":1019,"x_min":44,"x_max":975,"o":"m 589 1008 q 579 1015 579 1008 q 583 1025 579 1021 l 676 1144 q 728 1181 705 1181 q 772 1147 772 1181 q 746 1101 772 1120 l 630 1018 q 626 1015 629 1017 q 615 1008 620 1008 l 589 1008 m 127 110 q 108 134 127 110 q 67 230 89 159 q 44 386 44 301 q 65 546 44 471 q 123 681 86 621 q 210 789 160 740 q 317 871 259 838 q 564 939 437 939 q 784 881 690 939 q 926 721 877 824 q 975 483 975 618 q 826 119 975 271 q 600 -16 730 21 q 465 -35 534 -35 q 334 -20 395 -35 q 220 28 273 -5 q 127 110 166 61 m 195 518 q 180 406 180 457 q 186 315 180 355 q 203 236 192 275 q 233 163 215 197 q 276 100 251 129 q 332 51 301 71 q 488 7 397 7 q 745 179 637 7 q 829 403 804 275 q 840 507 840 463 q 836 587 840 552 q 821 660 831 623 q 795 730 810 696 q 758 793 781 764 q 709 845 736 823 q 569 892 650 892 q 300 736 422 892 q 195 518 225 639 z "},"":{"ha":1019,"x_min":44,"x_max":975,"o":"m 455 1008 q 447 1013 447 1008 q 455 1025 447 1017 q 588 1159 582 1153 q 612 1170 598 1170 l 640 1170 q 656 1167 651 1170 q 667 1153 660 1164 l 740 1025 q 744 1014 744 1019 q 732 1008 744 1008 l 718 1008 q 703 1018 712 1008 l 615 1090 q 610 1090 613 1092 l 492 1017 q 473 1008 478 1008 l 455 1008 m 127 110 q 108 134 127 110 q 67 230 89 159 q 44 386 44 301 q 65 546 44 471 q 123 681 86 621 q 210 789 160 740 q 317 871 259 838 q 564 939 437 939 q 784 881 690 939 q 926 721 877 824 q 975 483 975 618 q 826 119 975 271 q 600 -16 730 21 q 465 -35 534 -35 q 334 -20 395 -35 q 220 28 273 -5 q 127 110 166 61 m 195 518 q 180 406 180 457 q 186 315 180 355 q 203 236 192 275 q 233 163 215 197 q 276 100 251 129 q 332 51 301 71 q 488 7 397 7 q 745 179 637 7 q 829 403 804 275 q 840 507 840 463 q 836 587 840 552 q 821 660 831 623 q 795 730 810 696 q 758 793 781 764 q 709 845 736 823 q 569 892 650 892 q 300 736 422 892 q 195 518 225 639 z "},"":{"ha":1019,"x_min":44,"x_max":975,"o":"m 127 110 q 108 134 127 110 q 67 230 89 159 q 44 386 44 301 q 65 546 44 471 q 123 681 86 621 q 210 789 160 740 q 317 871 259 838 q 564 939 437 939 q 784 881 690 939 q 926 721 877 824 q 975 483 975 618 q 826 119 975 271 q 600 -16 730 21 q 465 -35 534 -35 q 334 -20 395 -35 q 220 28 273 -5 q 127 110 166 61 m 195 518 q 180 406 180 457 q 186 315 180 355 q 203 236 192 275 q 233 163 215 197 q 276 100 251 129 q 332 51 301 71 q 488 7 397 7 q 745 179 637 7 q 829 403 804 275 q 840 507 840 463 q 836 587 840 552 q 821 660 831 623 q 795 730 810 696 q 758 793 781 764 q 709 845 736 823 q 569 892 650 892 q 300 736 422 892 q 195 518 225 639 z "},"":{"ha":1019,"x_min":44,"x_max":975,"o":"m 127 110 q 108 134 127 110 q 67 230 89 159 q 44 386 44 301 q 65 546 44 471 q 123 681 86 621 q 210 789 160 740 q 317 871 259 838 q 564 939 437 939 q 784 881 690 939 q 926 721 877 824 q 975 483 975 618 q 826 119 975 271 q 600 -16 730 21 q 465 -35 534 -35 q 334 -20 395 -35 q 220 28 273 -5 q 127 110 166 61 m 195 518 q 180 406 180 457 q 186 315 180 355 q 203 236 192 275 q 233 163 215 197 q 276 100 251 129 q 332 51 301 71 q 488 7 397 7 q 745 179 637 7 q 829 403 804 275 q 840 507 840 463 q 836 587 840 552 q 821 660 831 623 q 795 730 810 696 q 758 793 781 764 q 709 845 736 823 q 569 892 650 892 q 300 736 422 892 q 195 518 225 639 z "},"":{"ha":732,"x_min":118,"x_max":612,"o":"m 129 479 q 118 499 118 490 q 134 522 118 507 q 160 537 150 537 q 183 525 171 537 l 345 365 q 369 350 361 348 q 380 356 376 351 l 554 529 q 573 539 564 539 q 598 524 583 539 q 612 499 612 509 q 598 475 612 489 l 431 307 q 421 292 420 296 q 431 278 421 288 l 603 105 q 612 86 612 96 q 597 60 612 76 q 572 44 582 44 q 551 56 563 44 l 380 228 q 362 237 368 241 q 346 222 356 232 l 179 56 q 159 44 168 44 q 135 60 150 44 q 119 84 119 75 q 132 105 119 93 l 299 274 q 310 291 309 284 q 301 307 311 297 l 129 479 z "},"":{"ha":1019,"x_min":44,"x_max":975,"o":"m 210 789 q 438 921 307 885 q 578 939 502 939 q 738 906 655 939 q 750 910 746 903 l 806 1006 q 814 1008 808 1008 q 827 1004 820 1008 q 842 983 846 991 l 787 893 q 789 878 783 884 q 927 718 878 820 q 975 483 975 616 q 826 119 975 271 q 600 -16 730 21 q 451 -35 534 -35 q 288 -5 369 -35 q 276 -2 279 -2 q 268 -8 272 -2 l 228 -76 q 218 -81 223 -81 q 200 -72 212 -81 q 190 -58 187 -63 l 227 4 q 231 19 233 16 q 222 26 229 23 q 44 382 44 138 q 210 789 44 627 m 237 634 q 224 607 237 634 q 195 518 211 580 q 180 385 180 457 q 203 237 180 313 q 271 107 226 161 q 285 104 281 95 q 495 468 290 113 q 704 830 700 824 q 708 842 708 837 q 699 853 708 847 q 583 892 645 892 q 472 872 521 892 q 380 818 422 852 q 301 736 338 784 q 237 634 263 688 m 319 60 q 488 7 390 7 q 745 179 637 7 q 829 403 804 275 q 840 528 840 463 q 817 673 840 594 q 747 807 793 752 q 736 803 741 813 l 319 82 q 317 77 318 80 q 315 73 315 74 q 314 70 314 72 q 314 66 313 68 q 319 60 315 63 z "},"":{"ha":1054,"x_min":79,"x_max":1030,"o":"m 451 1136 q 496 1181 451 1181 q 542 1143 522 1181 l 597 1025 q 598 1015 598 1022 q 589 1008 598 1008 l 564 1008 q 555 1013 559 1008 q 551 1018 552 1018 l 467 1101 q 451 1136 451 1117 m 893 922 l 1007 926 q 1026 921 1022 926 q 1030 899 1030 915 q 1025 880 1030 883 q 1001 877 1019 877 l 960 877 q 944 790 953 846 q 921 656 934 733 q 898 520 908 579 q 868 351 888 460 q 812 82 832 151 q 785 5 792 13 q 766 -3 778 -3 q 742 17 743 -3 q 737 58 740 32 q 730 105 733 105 q 723 104 727 105 q 713 99 720 102 q 701 92 707 95 q 685 83 695 89 q 372 -14 519 -14 q 155 70 233 -14 q 101 210 101 126 q 147 558 101 276 q 193 873 193 840 l 193 877 l 105 877 q 81 885 84 877 q 79 905 79 892 q 85 922 79 918 q 105 926 90 926 l 236 922 l 378 926 q 395 921 392 926 q 399 899 399 916 q 394 880 399 883 q 372 877 390 877 l 327 877 q 293 723 318 859 q 247 439 268 587 q 225 249 225 290 q 236 178 225 208 q 263 129 247 148 q 302 97 279 111 q 345 76 325 83 q 389 65 365 69 q 462 60 419 60 q 568 82 505 60 q 674 131 632 104 q 727 217 711 158 q 767 420 743 277 q 800 609 792 562 q 838 877 828 774 l 746 877 q 720 885 723 877 q 717 905 717 893 q 724 922 717 918 q 746 926 730 926 l 893 922 z "},"":{"ha":1054,"x_min":79,"x_max":1030,"o":"m 572 1008 q 563 1015 563 1008 q 567 1025 563 1021 l 660 1144 q 711 1181 688 1181 q 755 1147 755 1181 q 729 1101 755 1120 l 614 1018 q 610 1015 613 1017 q 598 1008 603 1008 l 572 1008 m 893 922 l 1007 926 q 1026 921 1022 926 q 1030 899 1030 915 q 1025 880 1030 883 q 1001 877 1019 877 l 960 877 q 944 790 953 846 q 921 656 934 733 q 898 520 908 579 q 868 351 888 460 q 812 82 832 151 q 785 5 792 13 q 766 -3 778 -3 q 742 17 743 -3 q 737 58 740 32 q 730 105 733 105 q 723 104 727 105 q 713 99 720 102 q 701 92 707 95 q 685 83 695 89 q 372 -14 519 -14 q 155 70 233 -14 q 101 210 101 126 q 147 558 101 276 q 193 873 193 840 l 193 877 l 105 877 q 81 885 84 877 q 79 905 79 892 q 85 922 79 918 q 105 926 90 926 l 236 922 l 378 926 q 395 921 392 926 q 399 899 399 916 q 394 880 399 883 q 372 877 390 877 l 327 877 q 293 723 318 859 q 247 439 268 587 q 225 249 225 290 q 236 178 225 208 q 263 129 247 148 q 302 97 279 111 q 345 76 325 83 q 389 65 365 69 q 462 60 419 60 q 568 82 505 60 q 674 131 632 104 q 727 217 711 158 q 767 420 743 277 q 800 609 792 562 q 838 877 828 774 l 746 877 q 720 885 723 877 q 717 905 717 893 q 724 922 717 918 q 746 926 730 926 l 893 922 z "},"":{"ha":1054,"x_min":79,"x_max":1030,"o":"m 439 1008 q 431 1013 431 1008 q 439 1025 431 1017 q 571 1159 565 1153 q 596 1170 582 1170 l 624 1170 q 639 1167 635 1170 q 650 1153 644 1164 l 724 1025 q 728 1014 728 1019 q 715 1008 728 1008 l 701 1008 q 686 1018 695 1008 l 598 1090 q 593 1090 597 1092 l 475 1017 q 457 1008 461 1008 l 439 1008 m 893 922 l 1007 926 q 1026 921 1022 926 q 1030 899 1030 915 q 1025 880 1030 883 q 1001 877 1019 877 l 960 877 q 944 790 953 846 q 921 656 934 733 q 898 520 908 579 q 868 351 888 460 q 812 82 832 151 q 785 5 792 13 q 766 -3 778 -3 q 742 17 743 -3 q 737 58 740 32 q 730 105 733 105 q 723 104 727 105 q 713 99 720 102 q 701 92 707 95 q 685 83 695 89 q 372 -14 519 -14 q 155 70 233 -14 q 101 210 101 126 q 147 558 101 276 q 193 873 193 840 l 193 877 l 105 877 q 81 885 84 877 q 79 905 79 892 q 85 922 79 918 q 105 926 90 926 l 236 922 l 378 926 q 395 921 392 926 q 399 899 399 916 q 394 880 399 883 q 372 877 390 877 l 327 877 q 293 723 318 859 q 247 439 268 587 q 225 249 225 290 q 236 178 225 208 q 263 129 247 148 q 302 97 279 111 q 345 76 325 83 q 389 65 365 69 q 462 60 419 60 q 568 82 505 60 q 674 131 632 104 q 727 217 711 158 q 767 420 743 277 q 800 609 792 562 q 838 877 828 774 l 746 877 q 720 885 723 877 q 717 905 717 893 q 724 922 717 918 q 746 926 730 926 l 893 922 z "},"":{"ha":1054,"x_min":79,"x_max":1030,"o":"m 893 922 l 1007 926 q 1026 921 1022 926 q 1030 899 1030 915 q 1025 880 1030 883 q 1001 877 1019 877 l 960 877 q 944 790 953 846 q 921 656 934 733 q 898 520 908 579 q 868 351 888 460 q 812 82 832 151 q 785 5 792 13 q 766 -3 778 -3 q 742 17 743 -3 q 737 58 740 32 q 730 105 733 105 q 723 104 727 105 q 713 99 720 102 q 701 92 707 95 q 685 83 695 89 q 372 -14 519 -14 q 155 70 233 -14 q 101 210 101 126 q 147 558 101 276 q 193 873 193 840 l 193 877 l 105 877 q 81 885 84 877 q 79 905 79 892 q 85 922 79 918 q 105 926 90 926 l 236 922 l 378 926 q 395 921 392 926 q 399 899 399 916 q 394 880 399 883 q 372 877 390 877 l 327 877 q 293 723 318 859 q 247 439 268 587 q 225 249 225 290 q 236 178 225 208 q 263 129 247 148 q 302 97 279 111 q 345 76 325 83 q 389 65 365 69 q 462 60 419 60 q 568 82 505 60 q 674 131 632 104 q 727 217 711 158 q 767 420 743 277 q 800 609 792 562 q 838 877 828 774 l 746 877 q 720 885 723 877 q 717 905 717 893 q 724 922 717 918 q 746 926 730 926 l 893 922 z "},"":{"ha":851,"x_min":24,"x_max":828,"o":"m 453 1008 q 443 1015 443 1008 q 447 1025 443 1021 l 540 1144 q 592 1181 569 1181 q 636 1147 636 1181 q 610 1101 636 1120 l 494 1018 q 490 1015 493 1017 q 479 1008 484 1008 l 453 1008 m 318 -4 l 185 -8 q 168 -3 171 -8 q 164 18 164 3 q 169 37 164 32 q 190 42 173 42 l 251 42 q 279 176 258 51 q 303 322 299 301 q 312 373 307 343 q 317 418 317 402 q 223 636 317 422 q 115 883 130 850 l 53 883 q 31 888 38 883 q 24 908 24 892 q 31 929 24 925 q 53 933 37 933 l 193 929 l 317 933 q 335 928 331 933 q 339 906 339 922 q 334 887 339 890 q 311 883 329 883 l 256 883 q 257 877 256 882 q 269 838 259 871 q 342 649 279 805 q 408 490 406 493 q 414 490 410 488 q 423 500 418 493 q 434 518 427 507 q 477 581 441 528 q 541 676 513 634 q 600 766 569 718 q 665 883 665 867 l 596 883 q 572 887 578 883 q 567 906 567 890 q 571 928 567 922 q 590 933 576 933 l 699 929 l 806 933 q 824 929 820 933 q 828 908 828 925 q 823 887 828 891 q 806 883 819 883 l 753 883 q 618 704 736 866 q 446 460 500 542 q 435 429 438 446 l 388 144 q 374 51 374 60 q 375 42 374 42 l 464 42 q 479 37 476 42 q 483 18 483 32 q 479 -3 483 3 q 464 -8 476 -8 l 318 -4 z "},"":{"ha":786,"x_min":15,"x_max":749,"o":"m 196 -4 l 38 -8 q 19 -3 23 -8 q 15 19 15 3 q 20 38 15 35 q 43 42 25 42 l 125 42 q 192 448 138 80 q 247 850 247 816 q 239 883 247 883 l 144 883 q 126 904 126 883 q 131 929 126 925 q 151 933 136 933 q 317 929 151 933 l 471 933 q 488 928 485 933 q 492 906 492 923 q 487 887 492 890 q 465 883 483 883 l 385 883 q 375 841 381 877 q 365 782 369 805 l 357 739 q 356 729 356 733 q 356 723 356 724 q 360 722 357 722 q 374 724 363 722 q 465 728 407 728 q 579 710 523 728 q 672 659 635 691 q 749 486 749 592 q 664 289 749 359 q 406 213 573 213 l 300 215 q 284 212 288 215 q 268 141 280 210 q 257 44 257 73 l 257 42 l 364 42 q 379 37 376 42 q 383 18 383 32 q 379 -3 383 3 q 364 -8 376 -8 l 196 -4 m 288 261 q 330 250 288 250 q 415 258 372 250 q 499 283 458 265 q 568 326 539 300 q 633 481 633 383 q 575 633 633 579 q 406 686 517 686 q 366 685 380 686 q 349 682 351 684 q 345 665 347 680 l 328 553 q 288 261 288 296 z "},"":{"ha":677,"x_min":-178,"x_max":606,"o":"m 345 140 l 337 82 q 348 33 337 50 q 388 15 359 15 q 439 43 416 15 q 475 114 462 71 q 503 296 503 203 q 375 487 503 464 q 354 490 364 489 q 342 492 343 491 q 331 506 331 492 q 333 523 331 519 q 352 530 337 529 q 389 543 366 531 q 435 576 412 554 q 476 628 458 598 q 517 790 517 694 q 473 893 517 862 q 423 910 451 910 q 377 901 396 910 q 345 872 358 891 q 323 836 332 853 q 307 789 314 818 q 293 715 297 744 q 285 655 290 687 q 244 357 280 623 q 195 3 209 91 q 176 -105 180 -86 q 160 -155 171 -124 q 135 -216 149 -187 q 50 -328 100 -290 q 17 -352 43 -335 q -16 -371 -8 -369 q -35 -379 -23 -374 q -83 -388 -54 -388 q -145 -369 -113 -388 q -178 -332 -178 -351 q -153 -293 -178 -313 q -109 -272 -128 -272 q -71 -281 -90 -272 q 1 -306 -15 -306 q 25 -300 16 -306 q 40 -284 33 -295 q 52 -262 46 -274 q 62 -233 58 -250 q 71 -201 67 -216 q 78 -166 74 -186 q 83 -133 81 -146 q 88 -102 85 -120 q 104 5 90 -83 q 134 219 118 94 q 166 477 151 343 q 188 662 182 611 q 206 753 194 713 q 239 829 218 793 q 287 890 259 864 q 430 946 346 946 q 560 897 515 946 q 606 772 606 849 q 514 573 606 653 q 444 525 473 537 q 415 511 415 512 q 425 506 415 510 q 446 498 435 503 q 478 483 458 494 q 514 461 499 472 q 547 430 530 449 q 577 390 565 412 q 604 277 604 340 q 588 160 604 214 q 544 67 572 106 q 385 -18 483 -18 q 273 30 308 -18 q 256 85 256 55 q 270 131 256 116 q 306 153 285 146 q 345 140 345 166 z "},"":{"ha":601,"x_min":31,"x_max":571,"o":"m 382 810 l 419 626 q 410 620 419 620 l 389 620 q 375 631 380 620 l 296 779 q 290 804 290 788 q 303 833 290 820 q 337 846 316 846 q 382 810 375 846 m 390 -19 q 349 18 349 -19 q 415 278 349 62 q 280 89 339 150 q 206 16 220 28 q 130 -18 168 -16 q 125 -18 127 -18 q 55 11 80 -18 q 31 78 31 39 q 37 158 31 117 q 57 244 43 199 q 89 330 70 288 q 135 411 108 373 q 193 479 162 450 q 350 542 261 542 q 389 529 363 542 q 424 505 415 517 q 438 483 432 493 q 453 463 451 463 q 472 519 458 463 q 537 537 476 537 q 560 528 560 537 q 532 420 560 518 q 447 96 447 127 q 463 64 447 64 q 510 103 473 64 q 553 142 547 142 q 564 134 558 142 q 571 121 571 127 q 551 92 571 114 q 504 46 531 71 q 445 1 477 21 q 390 -19 412 -19 m 187 348 q 175 320 187 348 q 147 235 163 293 q 132 147 132 176 q 133 109 132 118 q 137 87 134 99 q 165 64 143 64 q 219 89 187 64 q 285 154 251 114 q 411 329 355 237 q 426 369 421 346 q 432 406 432 393 q 420 434 432 419 q 389 458 408 449 q 316 478 350 478 q 247 440 281 478 q 187 348 212 402 z "},"":{"ha":601,"x_min":31,"x_max":571,"o":"m 361 620 q 351 624 351 620 q 355 636 351 628 l 440 807 q 484 843 458 843 q 523 834 509 843 q 536 806 536 824 q 522 772 536 788 l 396 629 q 382 620 389 620 l 361 620 m 390 -19 q 349 18 349 -19 q 415 278 349 62 q 280 89 339 150 q 206 16 220 28 q 130 -18 168 -16 q 125 -18 127 -18 q 55 11 80 -18 q 31 78 31 39 q 37 158 31 117 q 57 244 43 199 q 89 330 70 288 q 135 411 108 373 q 193 479 162 450 q 350 542 261 542 q 389 529 363 542 q 424 505 415 517 q 438 483 432 493 q 453 463 451 463 q 472 519 458 463 q 537 537 476 537 q 560 528 560 537 q 532 420 560 518 q 447 96 447 127 q 463 64 447 64 q 510 103 473 64 q 553 142 547 142 q 564 134 558 142 q 571 121 571 127 q 551 92 571 114 q 504 46 531 71 q 445 1 477 21 q 390 -19 412 -19 m 187 348 q 175 320 187 348 q 147 235 163 293 q 132 147 132 176 q 133 109 132 118 q 137 87 134 99 q 165 64 143 64 q 219 89 187 64 q 285 154 251 114 q 411 329 355 237 q 426 369 421 346 q 432 406 432 393 q 420 434 432 419 q 389 458 408 449 q 316 478 350 478 q 247 440 281 478 q 187 348 212 402 z "},"":{"ha":601,"x_min":31,"x_max":571,"o":"m 244 635 q 236 638 236 635 q 237 644 236 642 q 241 649 239 646 q 244 653 243 651 l 371 797 q 386 813 382 811 q 401 815 390 815 l 429 815 q 444 812 440 815 q 455 796 448 810 l 529 653 q 534 638 534 642 q 521 635 534 635 l 504 635 q 497 639 500 635 q 492 645 493 643 l 408 726 q 402 730 404 730 q 393 726 399 730 l 280 645 q 265 635 268 635 l 244 635 m 390 -19 q 349 18 349 -19 q 415 278 349 62 q 280 89 339 150 q 206 16 220 28 q 130 -18 168 -16 q 125 -18 127 -18 q 55 11 80 -18 q 31 78 31 39 q 37 158 31 117 q 57 244 43 199 q 89 330 70 288 q 135 411 108 373 q 193 479 162 450 q 350 542 261 542 q 389 529 363 542 q 424 505 415 517 q 438 483 432 493 q 453 463 451 463 q 472 519 458 463 q 537 537 476 537 q 560 528 560 537 q 532 420 560 518 q 447 96 447 127 q 463 64 447 64 q 510 103 473 64 q 553 142 547 142 q 564 134 558 142 q 571 121 571 127 q 551 92 571 114 q 504 46 531 71 q 445 1 477 21 q 390 -19 412 -19 m 187 348 q 175 320 187 348 q 147 235 163 293 q 132 147 132 176 q 133 109 132 118 q 137 87 134 99 q 165 64 143 64 q 219 89 187 64 q 285 154 251 114 q 411 329 355 237 q 426 369 421 346 q 432 406 432 393 q 420 434 432 419 q 389 458 408 449 q 316 478 350 478 q 247 440 281 478 q 187 348 212 402 z "},"":{"ha":601,"x_min":31,"x_max":571,"o":"m 267 681 l 259 681 l 244 681 q 240 686 240 681 q 258 729 240 699 q 302 779 276 759 q 345 799 328 799 q 379 791 362 799 q 408 774 395 783 q 458 749 439 749 q 510 792 488 749 q 512 797 511 794 q 514 801 513 800 q 515 803 514 802 q 525 804 518 804 l 543 804 q 544 800 544 804 q 543 790 544 797 q 540 781 541 784 q 490 706 519 731 q 439 681 461 681 q 400 688 416 681 q 374 705 385 696 q 325 729 346 729 q 294 719 304 729 q 278 700 283 709 q 272 688 273 690 q 270 684 271 685 q 269 683 270 684 q 267 681 268 681 m 390 -19 q 349 18 349 -19 q 415 278 349 62 q 280 89 339 150 q 206 16 220 28 q 130 -18 168 -16 q 125 -18 127 -18 q 55 11 80 -18 q 31 78 31 39 q 37 158 31 117 q 57 244 43 199 q 89 330 70 288 q 135 411 108 373 q 193 479 162 450 q 350 542 261 542 q 389 529 363 542 q 424 505 415 517 q 438 483 432 493 q 453 463 451 463 q 472 519 458 463 q 537 537 476 537 q 560 528 560 537 q 532 420 560 518 q 447 96 447 127 q 463 64 447 64 q 510 103 473 64 q 553 142 547 142 q 564 134 558 142 q 571 121 571 127 q 551 92 571 114 q 504 46 531 71 q 445 1 477 21 q 390 -19 412 -19 m 187 348 q 175 320 187 348 q 147 235 163 293 q 132 147 132 176 q 133 109 132 118 q 137 87 134 99 q 165 64 143 64 q 219 89 187 64 q 285 154 251 114 q 411 329 355 237 q 426 369 421 346 q 432 406 432 393 q 420 434 432 419 q 389 458 408 449 q 316 478 350 478 q 247 440 281 478 q 187 348 212 402 z "},"":{"ha":601,"x_min":31,"x_max":571,"o":"m 390 -19 q 349 18 349 -19 q 415 278 349 62 q 280 89 339 150 q 206 16 220 28 q 130 -18 168 -16 q 125 -18 127 -18 q 55 11 80 -18 q 31 78 31 39 q 37 158 31 117 q 57 244 43 199 q 89 330 70 288 q 135 411 108 373 q 193 479 162 450 q 350 542 261 542 q 389 529 363 542 q 424 505 415 517 q 438 483 432 493 q 453 463 451 463 q 472 519 458 463 q 537 537 476 537 q 560 528 560 537 q 532 420 560 518 q 447 96 447 127 q 463 64 447 64 q 510 103 473 64 q 553 142 547 142 q 564 134 558 142 q 571 121 571 127 q 551 92 571 114 q 504 46 531 71 q 445 1 477 21 q 390 -19 412 -19 m 187 348 q 175 320 187 348 q 147 235 163 293 q 132 147 132 176 q 133 109 132 118 q 137 87 134 99 q 165 64 143 64 q 219 89 187 64 q 285 154 251 114 q 411 329 355 237 q 426 369 421 346 q 432 406 432 393 q 420 434 432 419 q 389 458 408 449 q 316 478 350 478 q 247 440 281 478 q 187 348 212 402 z "},"":{"ha":601,"x_min":31,"x_max":571,"o":"m 325 668 q 310 682 325 668 q 296 738 296 697 q 325 807 296 778 q 394 836 354 836 q 464 807 435 836 q 493 738 493 778 q 464 668 493 697 q 394 639 435 639 q 325 668 354 639 m 358 774 q 350 767 358 774 q 343 738 343 760 q 358 701 343 715 q 394 686 372 686 q 431 701 416 686 q 446 738 446 715 q 431 774 446 760 q 394 789 416 789 q 358 774 372 789 m 390 -19 q 349 18 349 -19 q 415 278 349 62 q 280 89 339 150 q 206 16 220 28 q 130 -18 168 -16 q 125 -18 127 -18 q 55 11 80 -18 q 31 78 31 39 q 37 158 31 117 q 57 244 43 199 q 89 330 70 288 q 135 411 108 373 q 193 479 162 450 q 350 542 261 542 q 389 529 363 542 q 424 505 415 517 q 438 483 432 493 q 453 463 451 463 q 472 519 458 463 q 537 537 476 537 q 560 528 560 537 q 532 420 560 518 q 447 96 447 127 q 463 64 447 64 q 510 103 473 64 q 553 142 547 142 q 564 134 558 142 q 571 121 571 127 q 551 92 571 114 q 504 46 531 71 q 445 1 477 21 q 390 -19 412 -19 m 187 348 q 175 320 187 348 q 147 235 163 293 q 132 147 132 176 q 133 109 132 118 q 137 87 134 99 q 165 64 143 64 q 219 89 187 64 q 285 154 251 114 q 411 329 355 237 q 426 369 421 346 q 432 406 432 393 q 420 434 432 419 q 389 458 408 449 q 316 478 350 478 q 247 440 281 478 q 187 348 212 402 z "},"":{"ha":883,"x_min":31,"x_max":860,"o":"m 479 232 q 472 172 472 232 q 602 53 472 53 q 762 113 677 53 q 798 142 783 129 q 839 174 832 174 q 853 165 846 174 q 860 151 860 157 q 844 129 860 146 q 799 88 828 112 q 732 42 769 65 q 551 -11 645 -11 q 408 43 457 -11 q 372 137 372 82 q 378 219 372 192 q 268 77 315 126 q 206 16 220 28 q 130 -18 168 -16 q 125 -18 127 -18 q 55 11 80 -18 q 31 78 31 39 q 37 158 31 117 q 57 244 43 199 q 89 330 70 288 q 135 411 108 373 q 193 479 162 450 q 350 542 261 542 q 440 483 408 542 q 454 463 451 463 q 466 497 458 469 q 478 527 474 524 q 488 532 482 530 q 500 534 495 533 q 533 538 506 535 q 560 526 560 541 q 557 512 560 524 q 553 496 554 500 q 717 547 630 547 q 842 491 814 547 q 850 447 850 474 q 836 390 850 420 q 796 338 821 361 q 666 262 747 291 q 479 232 586 232 m 167 64 q 234 106 189 64 q 411 329 330 197 q 426 369 421 346 q 432 409 432 393 q 413 442 432 424 q 322 478 375 478 q 269 453 297 478 q 218 389 241 428 q 175 303 194 349 q 135 135 135 205 q 167 64 135 64 m 512 339 q 493 276 493 292 q 522 272 493 272 q 596 285 551 272 q 675 320 641 297 q 751 453 751 370 q 733 491 751 476 q 686 506 715 506 q 512 339 575 506 z "},"":{"ha":558,"x_min":31,"x_max":518,"o":"m 154 -265 q 246 -201 246 -265 q 214 -149 246 -162 q 186 -143 202 -143 q 153 -147 170 -143 q 134 -151 136 -151 q 126 -148 132 -151 q 121 -142 121 -145 q 189 -15 121 -139 q 51 78 89 -3 q 31 177 31 121 q 44 284 31 233 q 81 376 58 336 q 136 448 105 415 q 201 503 166 481 q 349 547 274 547 q 460 508 424 547 q 496 430 496 469 q 478 371 496 392 q 432 350 460 350 q 397 406 397 350 l 399 439 q 384 483 399 465 q 334 502 368 502 q 261 476 299 502 q 193 408 222 451 q 146 308 164 365 q 129 220 129 251 q 130 181 129 189 q 133 157 130 173 q 141 130 136 141 q 156 104 146 118 q 182 81 167 90 q 261 60 217 60 q 340 71 306 60 q 401 98 375 82 q 448 130 427 114 q 482 157 469 146 q 498 168 495 168 q 510 159 502 168 q 518 146 518 151 q 506 128 518 141 q 473 96 494 115 q 424 59 453 78 q 363 22 394 39 q 225 -17 291 -17 l 223 -17 q 183 -92 197 -64 q 218 -89 197 -89 q 298 -116 268 -89 q 329 -190 329 -144 q 283 -271 329 -236 q 170 -306 237 -306 q 69 -275 104 -306 q 61 -264 61 -268 q 76 -246 61 -246 q 90 -251 79 -246 q 154 -265 121 -265 z "},"":{"ha":542,"x_min":31,"x_max":518,"o":"m 380 810 l 418 626 q 408 620 418 620 l 387 620 q 373 631 379 620 l 294 779 q 289 804 289 788 q 302 833 289 820 q 335 846 315 846 q 380 810 374 846 m 138 232 q 131 172 131 232 q 260 53 131 53 q 420 113 336 53 q 456 142 441 129 q 497 174 490 174 q 511 165 505 174 q 518 152 518 157 q 510 137 518 147 q 486 113 502 127 q 449 82 470 98 q 401 49 429 65 q 344 19 373 32 q 210 -11 278 -11 q 66 43 115 -11 q 31 140 31 82 q 43 249 31 198 q 78 344 56 300 q 133 426 101 388 q 203 490 165 464 q 375 547 283 547 q 500 491 472 547 q 508 447 508 474 q 494 390 508 420 q 454 338 479 361 q 325 262 405 291 q 138 232 244 232 m 171 339 q 151 276 151 291 q 180 272 151 272 q 254 285 210 272 q 334 320 299 297 q 410 453 410 370 q 392 491 410 476 q 345 506 374 506 q 171 339 234 506 z "},"":{"ha":542,"x_min":31,"x_max":535,"o":"m 359 620 q 350 624 350 620 q 354 636 350 628 l 439 807 q 482 843 457 843 q 521 834 508 843 q 535 806 535 824 q 521 772 535 788 l 394 629 q 380 620 387 620 l 359 620 m 138 232 q 131 172 131 232 q 260 53 131 53 q 420 113 336 53 q 456 142 441 129 q 497 174 490 174 q 511 165 505 174 q 518 152 518 157 q 510 137 518 147 q 486 113 502 127 q 449 82 470 98 q 401 49 429 65 q 344 19 373 32 q 210 -11 278 -11 q 66 43 115 -11 q 31 140 31 82 q 43 249 31 198 q 78 344 56 300 q 133 426 101 388 q 203 490 165 464 q 375 547 283 547 q 500 491 472 547 q 508 447 508 474 q 494 390 508 420 q 454 338 479 361 q 325 262 405 291 q 138 232 244 232 m 171 339 q 151 276 151 291 q 180 272 151 272 q 254 285 210 272 q 334 320 299 297 q 410 453 410 370 q 392 491 410 476 q 345 506 374 506 q 171 339 234 506 z "},"":{"ha":542,"x_min":31,"x_max":533,"o":"m 243 635 q 235 638 235 635 q 236 644 235 642 q 240 649 237 646 q 243 653 242 651 l 369 797 q 385 813 381 811 q 400 815 388 815 l 428 815 q 443 812 439 815 q 454 796 447 810 l 528 653 q 533 638 533 642 q 519 635 533 635 l 503 635 q 495 639 498 635 q 490 645 492 643 l 407 726 q 400 730 403 730 q 392 726 398 730 l 279 645 q 264 635 267 635 l 243 635 m 138 232 q 131 172 131 232 q 260 53 131 53 q 420 113 336 53 q 456 142 441 129 q 497 174 490 174 q 511 165 505 174 q 518 152 518 157 q 510 137 518 147 q 486 113 502 127 q 449 82 470 98 q 401 49 429 65 q 344 19 373 32 q 210 -11 278 -11 q 66 43 115 -11 q 31 140 31 82 q 43 249 31 198 q 78 344 56 300 q 133 426 101 388 q 203 490 165 464 q 375 547 283 547 q 500 491 472 547 q 508 447 508 474 q 494 390 508 420 q 454 338 479 361 q 325 262 405 291 q 138 232 244 232 m 171 339 q 151 276 151 291 q 180 272 151 272 q 254 285 210 272 q 334 320 299 297 q 410 453 410 370 q 392 491 410 476 q 345 506 374 506 q 171 339 234 506 z "},"":{"ha":542,"x_min":31,"x_max":555,"o":"m 138 232 q 131 172 131 232 q 260 53 131 53 q 420 113 336 53 q 456 142 441 129 q 497 174 490 174 q 511 165 505 174 q 518 152 518 157 q 510 137 518 147 q 486 113 502 127 q 449 82 470 98 q 401 49 429 65 q 344 19 373 32 q 210 -11 278 -11 q 66 43 115 -11 q 31 140 31 82 q 43 249 31 198 q 78 344 56 300 q 133 426 101 388 q 203 490 165 464 q 375 547 283 547 q 500 491 472 547 q 508 447 508 474 q 494 390 508 420 q 454 338 479 361 q 325 262 405 291 q 138 232 244 232 m 171 339 q 151 276 151 291 q 180 272 151 272 q 254 285 210 272 q 334 320 299 297 q 410 453 410 370 q 392 491 410 476 q 345 506 374 506 q 171 339 234 506 z "},"":{"ha":375,"x_min":31,"x_max":331,"o":"m 246 810 l 283 626 q 274 620 283 620 l 253 620 q 239 631 244 620 l 160 779 q 154 804 154 788 q 167 833 154 820 q 201 846 180 846 q 246 810 239 846 m 113 170 q 130 224 113 170 q 162 341 147 279 q 178 427 178 403 q 164 451 178 451 q 125 431 151 451 q 78 390 99 410 q 50 370 56 370 q 37 377 44 370 q 31 391 31 384 q 57 420 31 397 q 117 469 83 443 q 242 536 207 536 q 276 502 276 536 q 231 290 276 461 q 186 107 186 119 q 186 91 186 95 q 199 81 188 81 q 235 103 210 81 q 283 147 261 125 q 311 170 306 170 q 323 162 316 170 q 331 145 331 154 q 287 97 331 137 q 191 23 243 58 q 117 -13 138 -13 q 79 17 79 -13 q 113 170 79 60 z "},"":{"ha":375,"x_min":31,"x_max":400,"o":"m 225 620 q 215 624 215 620 q 219 636 215 628 l 304 807 q 348 843 322 843 q 387 834 373 843 q 400 806 400 824 q 386 772 400 788 l 260 629 q 246 620 253 620 l 225 620 m 113 170 q 130 224 113 170 q 162 341 147 279 q 178 427 178 403 q 164 451 178 451 q 125 431 151 451 q 78 390 99 410 q 50 370 56 370 q 37 377 44 370 q 31 391 31 384 q 57 420 31 397 q 117 469 83 443 q 242 536 207 536 q 276 502 276 536 q 231 290 276 461 q 186 107 186 119 q 186 91 186 95 q 199 81 188 81 q 235 103 210 81 q 283 147 261 125 q 311 170 306 170 q 323 162 316 170 q 331 145 331 154 q 287 97 331 137 q 191 23 243 58 q 117 -13 138 -13 q 79 17 79 -13 q 113 170 79 60 z "},"":{"ha":375,"x_min":31,"x_max":398,"o":"m 108 635 q 100 638 100 635 q 101 644 100 642 q 105 649 103 646 q 108 653 107 651 l 235 797 q 250 813 246 811 q 265 815 254 815 l 293 815 q 308 812 304 815 q 319 796 312 810 l 393 653 q 398 638 398 642 q 385 635 398 635 l 368 635 q 361 639 364 635 q 356 645 357 643 l 272 726 q 266 730 268 730 q 257 726 263 730 l 144 645 q 129 635 132 635 l 108 635 m 113 170 q 130 224 113 170 q 162 341 147 279 q 178 427 178 403 q 164 451 178 451 q 125 431 151 451 q 78 390 99 410 q 50 370 56 370 q 37 377 44 370 q 31 391 31 384 q 57 420 31 397 q 117 469 83 443 q 242 536 207 536 q 276 502 276 536 q 231 290 276 461 q 186 107 186 119 q 186 91 186 95 q 199 81 188 81 q 235 103 210 81 q 283 147 261 125 q 311 170 306 170 q 323 162 316 170 q 331 145 331 154 q 287 97 331 137 q 191 23 243 58 q 117 -13 138 -13 q 79 17 79 -13 q 113 170 79 60 z "},"":{"ha":375,"x_min":31,"x_max":411,"o":"m 113 170 q 130 224 113 170 q 162 341 147 279 q 178 427 178 403 q 164 451 178 451 q 125 431 151 451 q 78 390 99 410 q 50 370 56 370 q 37 377 44 370 q 31 391 31 384 q 57 420 31 397 q 117 469 83 443 q 242 536 207 536 q 276 502 276 536 q 231 290 276 461 q 186 107 186 119 q 186 91 186 95 q 199 81 188 81 q 235 103 210 81 q 283 147 261 125 q 311 170 306 170 q 323 162 316 170 q 331 145 331 154 q 287 97 331 137 q 191 23 243 58 q 117 -13 138 -13 q 79 17 79 -13 q 113 170 79 60 z "},"":{"ha":571,"x_min":31,"x_max":581,"o":"m 80 48 q 68 63 80 48 q 43 114 56 77 q 31 196 31 151 q 41 289 31 242 q 72 376 52 336 q 121 449 92 416 q 186 505 151 481 q 353 553 260 553 q 432 533 389 553 q 402 627 423 574 q 369 699 380 680 q 355 718 358 717 q 276 698 352 719 q 196 676 200 676 q 183 692 192 676 q 174 714 174 708 q 245 734 174 716 q 323 754 316 753 q 331 757 330 756 q 333 758 332 757 q 334 759 334 758 q 333 761 334 760 q 332 763 333 761 q 329 767 330 765 q 207 915 274 852 q 210 933 189 933 l 271 935 q 407 783 292 935 q 419 781 411 778 q 561 817 557 817 q 573 801 565 817 q 581 781 581 786 q 512 762 581 779 q 440 743 444 745 q 436 742 436 742 q 447 721 435 741 q 475 663 458 701 q 507 578 492 625 q 540 383 540 478 q 517 218 540 289 q 452 96 493 147 q 353 15 411 45 q 237 -15 294 -15 q 142 2 180 -15 q 80 48 104 19 m 446 386 q 337 515 446 515 q 191 404 262 515 q 138 287 151 341 q 125 211 125 233 q 125 181 125 189 q 126 157 125 173 q 129 130 127 141 q 134 105 131 120 q 143 80 138 90 q 156 59 148 70 q 174 42 164 48 q 229 26 198 26 q 291 44 261 26 q 344 92 321 62 q 387 159 367 122 q 419 237 407 197 q 446 386 446 322 z "},"":{"ha":715,"x_min":17,"x_max":699,"o":"m 362 681 l 354 681 l 339 681 q 335 686 335 681 q 353 729 335 699 q 397 779 371 759 q 440 799 422 799 q 473 791 457 799 q 502 774 490 783 q 553 749 534 749 q 604 792 582 749 q 607 797 605 794 q 608 801 608 800 q 610 803 609 802 q 620 804 612 804 l 637 804 q 639 800 639 804 q 637 790 639 797 q 634 781 636 784 q 585 706 614 731 q 533 681 555 681 q 495 688 511 681 q 469 705 479 696 q 420 729 440 729 q 388 719 399 729 q 372 700 377 709 q 366 688 367 690 q 365 684 365 685 q 364 683 365 684 q 362 681 363 681 m 531 97 q 553 74 531 74 q 602 100 574 74 q 644 142 629 126 q 668 168 658 157 q 679 179 677 179 q 690 170 681 179 q 699 157 699 162 q 685 136 699 153 q 648 95 672 118 q 597 50 625 72 q 472 -3 531 -3 q 437 15 450 -3 q 424 59 424 32 q 441 141 424 86 q 479 248 458 195 q 535 437 535 387 q 527 463 535 453 q 506 474 520 474 q 460 445 491 474 q 393 370 428 416 q 277 209 321 279 q 201 25 227 127 q 178 -7 193 -6 q 112 -13 119 -13 q 100 7 97 -13 q 183 439 183 355 q 170 460 183 460 q 125 438 156 460 q 69 393 95 415 q 39 371 43 371 q 26 379 35 371 q 17 395 17 388 q 33 417 17 401 q 78 452 50 432 q 137 493 106 473 q 260 540 212 540 q 283 532 272 540 q 293 506 293 524 q 290 463 293 488 q 283 417 286 437 q 270 360 279 396 q 257 307 261 325 q 241 247 253 290 q 227 193 230 204 q 432 477 343 397 q 563 540 501 540 q 637 475 637 540 q 584 270 637 430 q 531 97 531 111 z "},"":{"ha":582,"x_min":31,"x_max":551,"o":"m 390 810 l 428 626 q 418 620 428 620 l 397 620 q 383 631 389 620 l 304 779 q 299 804 299 788 q 312 833 299 820 q 345 846 325 846 q 390 810 384 846 m 62 73 q 54 86 62 73 q 38 129 46 99 q 31 213 31 159 q 55 334 31 267 q 123 450 80 401 q 226 527 165 499 q 343 555 287 555 q 433 540 399 555 q 489 502 468 525 q 526 448 511 478 q 551 330 551 392 q 526 204 551 267 q 457 93 500 141 q 354 15 414 45 q 242 -15 294 -15 q 158 -4 190 -15 q 102 27 125 7 q 62 73 78 46 m 157 338 q 150 320 157 338 q 134 268 142 303 q 125 209 125 233 q 125 174 125 186 q 128 142 126 162 q 134 108 130 122 q 146 77 138 94 q 165 51 154 61 q 228 26 191 26 q 294 44 264 26 q 349 92 325 62 q 393 159 373 121 q 427 237 413 197 q 455 386 455 321 q 390 506 455 478 q 341 515 368 515 q 288 501 315 515 q 237 461 260 486 q 193 404 214 437 q 157 338 172 372 z "},"":{"ha":582,"x_min":31,"x_max":551,"o":"m 369 620 q 360 624 360 620 q 364 636 360 628 l 449 807 q 492 843 467 843 q 531 834 518 843 q 545 806 545 824 q 531 772 545 788 l 404 629 q 390 620 397 620 l 369 620 m 62 73 q 54 86 62 73 q 38 129 46 99 q 31 213 31 159 q 55 334 31 267 q 123 450 80 401 q 226 527 165 499 q 343 555 287 555 q 433 540 399 555 q 489 502 468 525 q 526 448 511 478 q 551 330 551 392 q 526 204 551 267 q 457 93 500 141 q 354 15 414 45 q 242 -15 294 -15 q 158 -4 190 -15 q 102 27 125 7 q 62 73 78 46 m 157 338 q 150 320 157 338 q 134 268 142 303 q 125 209 125 233 q 125 174 125 186 q 128 142 126 162 q 134 108 130 122 q 146 77 138 94 q 165 51 154 61 q 228 26 191 26 q 294 44 264 26 q 349 92 325 62 q 393 159 373 121 q 427 237 413 197 q 455 386 455 321 q 390 506 455 478 q 341 515 368 515 q 288 501 315 515 q 237 461 260 486 q 193 404 214 437 q 157 338 172 372 z "},"":{"ha":582,"x_min":31,"x_max":551,"o":"m 253 635 q 244 638 244 635 q 246 644 244 642 q 249 649 247 646 q 253 653 252 651 l 379 797 q 394 813 391 811 q 410 815 398 815 l 437 815 q 453 812 449 815 q 464 796 457 810 l 537 653 q 543 638 543 642 q 529 635 543 635 l 512 635 q 505 639 508 635 q 500 645 502 643 l 417 726 q 410 730 413 730 q 401 726 408 730 l 289 645 q 274 635 277 635 l 253 635 m 62 73 q 54 86 62 73 q 38 129 46 99 q 31 213 31 159 q 55 334 31 267 q 123 450 80 401 q 226 527 165 499 q 343 555 287 555 q 433 540 399 555 q 489 502 468 525 q 526 448 511 478 q 551 330 551 392 q 526 204 551 267 q 457 93 500 141 q 354 15 414 45 q 242 -15 294 -15 q 158 -4 190 -15 q 102 27 125 7 q 62 73 78 46 m 157 338 q 150 320 157 338 q 134 268 142 303 q 125 209 125 233 q 125 174 125 186 q 128 142 126 162 q 134 108 130 122 q 146 77 138 94 q 165 51 154 61 q 228 26 191 26 q 294 44 264 26 q 349 92 325 62 q 393 159 373 121 q 427 237 413 197 q 455 386 455 321 q 390 506 455 478 q 341 515 368 515 q 288 501 315 515 q 237 461 260 486 q 193 404 214 437 q 157 338 172 372 z "},"":{"ha":582,"x_min":31,"x_max":553,"o":"m 276 681 l 268 681 l 253 681 q 249 686 249 681 q 267 729 249 699 q 310 779 284 759 q 353 799 336 799 q 387 791 371 799 q 416 774 404 783 q 467 749 448 749 q 518 792 496 749 q 520 797 519 794 q 522 801 522 800 q 524 803 523 802 q 533 804 526 804 l 551 804 q 553 800 553 804 q 551 790 553 797 q 548 781 550 784 q 499 706 528 731 q 447 681 469 681 q 409 688 425 681 q 382 705 393 696 q 333 729 354 729 q 302 719 313 729 q 286 700 291 709 q 280 688 281 690 q 279 684 279 685 q 278 683 278 684 q 276 681 277 681 m 62 73 q 54 86 62 73 q 38 129 46 99 q 31 213 31 159 q 55 334 31 267 q 123 450 80 401 q 226 527 165 499 q 343 555 287 555 q 433 540 399 555 q 489 502 468 525 q 526 448 511 478 q 551 330 551 392 q 526 204 551 267 q 457 93 500 141 q 354 15 414 45 q 242 -15 294 -15 q 158 -4 190 -15 q 102 27 125 7 q 62 73 78 46 m 157 338 q 150 320 157 338 q 134 268 142 303 q 125 209 125 233 q 125 174 125 186 q 128 142 126 162 q 134 108 130 122 q 146 77 138 94 q 165 51 154 61 q 228 26 191 26 q 294 44 264 26 q 349 92 325 62 q 393 159 373 121 q 427 237 413 197 q 455 386 455 321 q 390 506 455 478 q 341 515 368 515 q 288 501 315 515 q 237 461 260 486 q 193 404 214 437 q 157 338 172 372 z "},"":{"ha":582,"x_min":31,"x_max":565,"o":"m 62 73 q 54 86 62 73 q 38 129 46 99 q 31 213 31 159 q 55 334 31 267 q 123 450 80 401 q 226 527 165 499 q 343 555 287 555 q 433 540 399 555 q 489 502 468 525 q 526 448 511 478 q 551 330 551 392 q 526 204 551 267 q 457 93 500 141 q 354 15 414 45 q 242 -15 294 -15 q 158 -4 190 -15 q 102 27 125 7 q 62 73 78 46 m 157 338 q 150 320 157 338 q 134 268 142 303 q 125 209 125 233 q 125 174 125 186 q 128 142 126 162 q 134 108 130 122 q 146 77 138 94 q 165 51 154 61 q 228 26 191 26 q 294 44 264 26 q 349 92 325 62 q 393 159 373 121 q 427 237 413 197 q 455 386 455 321 q 390 506 455 478 q 341 515 368 515 q 288 501 315 515 q 237 461 260 486 q 193 404 214 437 q 157 338 172 372 z "},"":{"ha":732,"x_min":39,"x_max":693,"o":"m 308 402 q 299 411 308 402 q 290 445 290 420 q 309 487 290 469 q 353 506 328 506 q 395 488 378 506 q 413 446 413 471 q 395 403 413 421 q 351 385 376 385 q 308 402 326 385 m 360 79 q 347 79 360 79 q 316 97 335 79 q 297 140 297 115 q 315 183 297 165 q 358 200 333 200 q 401 182 383 200 q 419 139 419 164 q 402 96 419 114 q 360 79 385 79 m 39 281 q 39 294 39 285 q 40 307 39 302 q 43 317 40 312 q 68 327 48 327 l 667 327 q 688 319 684 327 q 693 292 693 311 q 687 265 693 273 q 660 257 682 257 l 67 257 q 39 281 40 257 z "},"":{"ha":582,"x_min":31,"x_max":551,"o":"m 108 22 q 31 204 31 82 q 55 334 31 267 q 123 450 80 401 q 226 527 165 499 q 356 555 287 555 q 396 551 376 555 q 417 548 415 547 q 426 561 420 550 l 465 631 q 488 630 471 641 q 504 611 508 617 l 467 547 q 461 537 462 539 q 459 534 460 536 q 459 531 458 532 q 460 528 459 530 q 468 521 462 526 q 544 396 525 477 q 551 315 551 363 q 526 204 551 267 q 457 93 500 141 q 354 15 414 45 q 242 -15 294 -15 q 171 -9 191 -15 q 149 -3 152 -2 q 143 -13 147 -4 l 100 -87 q 91 -92 96 -92 q 74 -84 85 -92 q 64 -72 64 -77 q 67 -64 64 -67 l 105 4 q 108 9 106 6 q 110 12 110 11 q 111 15 111 13 q 112 17 112 17 q 108 22 110 20 m 157 338 q 150 320 157 338 q 134 268 142 303 q 125 182 125 233 q 135 106 125 132 q 147 80 144 80 q 156 90 149 79 l 386 493 q 391 504 391 503 q 390 506 390 505 q 388 507 389 507 q 385 508 387 508 q 341 515 367 515 q 288 501 315 515 q 237 461 260 486 q 193 404 214 437 q 157 338 172 372 m 183 58 q 178 42 176 45 q 227 26 190 26 q 294 44 264 26 q 349 92 325 62 q 393 159 373 121 q 427 237 413 197 q 455 378 455 321 q 436 468 455 434 q 428 476 431 477 q 421 468 425 476 l 183 58 z "},"":{"ha":724,"x_min":17,"x_max":708,"o":"m 429 810 l 467 626 q 457 620 467 620 l 436 620 q 422 631 428 620 l 343 779 q 338 804 338 788 q 351 833 338 820 q 384 846 364 846 q 429 810 423 846 m 134 146 q 144 185 134 146 q 176 311 155 224 q 197 436 197 398 q 174 474 197 474 q 97 405 150 474 q 42 336 43 336 q 27 343 37 336 q 17 354 17 350 q 26 373 17 358 q 78 444 54 414 q 112 482 103 473 q 135 506 120 492 q 164 528 151 519 q 225 547 197 547 q 271 542 254 547 q 301 524 289 537 q 314 494 314 511 q 292 392 314 476 q 225 107 225 142 q 255 79 225 79 q 313 106 284 79 q 382 191 342 133 q 535 536 509 373 q 547 547 537 545 q 617 554 582 554 q 629 542 629 554 q 591 334 629 530 q 553 124 553 139 q 575 93 553 93 q 643 156 596 93 q 674 200 660 180 q 691 219 689 219 q 701 214 694 219 q 708 206 708 210 q 696 180 708 202 q 662 127 684 158 q 616 67 641 96 q 507 -4 556 -4 q 472 8 487 -4 q 457 40 457 19 q 469 119 457 61 q 498 250 481 176 q 521 361 514 323 q 437 210 476 267 q 193 -11 292 -11 q 113 52 113 -11 q 134 146 113 69 z "},"":{"ha":724,"x_min":17,"x_max":708,"o":"m 408 620 q 399 624 399 620 q 403 636 399 628 l 488 807 q 531 843 506 843 q 570 834 557 843 q 584 806 584 824 q 570 772 584 788 l 443 629 q 429 620 436 620 l 408 620 m 134 146 q 144 185 134 146 q 176 311 155 224 q 197 436 197 398 q 174 474 197 474 q 97 405 150 474 q 42 336 43 336 q 27 343 37 336 q 17 354 17 350 q 26 373 17 358 q 78 444 54 414 q 112 482 103 473 q 135 506 120 492 q 164 528 151 519 q 225 547 197 547 q 271 542 254 547 q 301 524 289 537 q 314 494 314 511 q 292 392 314 476 q 225 107 225 142 q 255 79 225 79 q 313 106 284 79 q 382 191 342 133 q 535 536 509 373 q 547 547 537 545 q 617 554 582 554 q 629 542 629 554 q 591 334 629 530 q 553 124 553 139 q 575 93 553 93 q 643 156 596 93 q 674 200 660 180 q 691 219 689 219 q 701 214 694 219 q 708 206 708 210 q 696 180 708 202 q 662 127 684 158 q 616 67 641 96 q 507 -4 556 -4 q 472 8 487 -4 q 457 40 457 19 q 469 119 457 61 q 498 250 481 176 q 521 361 514 323 q 437 210 476 267 q 193 -11 292 -11 q 113 52 113 -11 q 134 146 113 69 z "},"":{"ha":724,"x_min":17,"x_max":708,"o":"m 292 635 q 283 638 283 635 q 285 644 283 642 q 288 649 286 646 q 292 653 291 651 l 418 797 q 433 813 430 811 q 449 815 437 815 l 476 815 q 492 812 488 815 q 503 796 496 810 l 576 653 q 582 638 582 642 q 568 635 582 635 l 551 635 q 544 639 547 635 q 539 645 541 643 l 456 726 q 449 730 452 730 q 440 726 447 730 l 328 645 q 313 635 316 635 l 292 635 m 134 146 q 144 185 134 146 q 176 311 155 224 q 197 436 197 398 q 174 474 197 474 q 97 405 150 474 q 42 336 43 336 q 27 343 37 336 q 17 354 17 350 q 26 373 17 358 q 78 444 54 414 q 112 482 103 473 q 135 506 120 492 q 164 528 151 519 q 225 547 197 547 q 271 542 254 547 q 301 524 289 537 q 314 494 314 511 q 292 392 314 476 q 225 107 225 142 q 255 79 225 79 q 313 106 284 79 q 382 191 342 133 q 535 536 509 373 q 547 547 537 545 q 617 554 582 554 q 629 542 629 554 q 591 334 629 530 q 553 124 553 139 q 575 93 553 93 q 643 156 596 93 q 674 200 660 180 q 691 219 689 219 q 701 214 694 219 q 708 206 708 210 q 696 180 708 202 q 662 127 684 158 q 616 67 641 96 q 507 -4 556 -4 q 472 8 487 -4 q 457 40 457 19 q 469 119 457 61 q 498 250 481 176 q 521 361 514 323 q 437 210 476 267 q 193 -11 292 -11 q 113 52 113 -11 q 134 146 113 69 z "},"":{"ha":724,"x_min":17,"x_max":708,"o":"m 134 146 q 144 185 134 146 q 176 311 155 224 q 197 436 197 398 q 174 474 197 474 q 97 405 150 474 q 42 336 43 336 q 27 343 37 336 q 17 354 17 350 q 26 373 17 358 q 78 444 54 414 q 112 482 103 473 q 135 506 120 492 q 164 528 151 519 q 225 547 197 547 q 271 542 254 547 q 301 524 289 537 q 314 494 314 511 q 292 392 314 476 q 225 107 225 142 q 255 79 225 79 q 313 106 284 79 q 382 191 342 133 q 535 536 509 373 q 547 547 537 545 q 617 554 582 554 q 629 542 629 554 q 591 334 629 530 q 553 124 553 139 q 575 93 553 93 q 643 156 596 93 q 674 200 660 180 q 691 219 689 219 q 701 214 694 219 q 708 206 708 210 q 696 180 708 202 q 662 127 684 158 q 616 67 641 96 q 507 -4 556 -4 q 472 8 487 -4 q 457 40 457 19 q 469 119 457 61 q 498 250 481 176 q 521 361 514 323 q 437 210 476 267 q 193 -11 292 -11 q 113 52 113 -11 q 134 146 113 69 z "},"":{"ha":586,"x_min":-22,"x_max":569,"o":"m 354 620 q 345 624 345 620 q 349 636 345 628 l 433 807 q 477 843 451 843 q 516 834 503 843 q 529 806 529 824 q 515 772 529 788 l 389 629 q 375 620 382 620 l 354 620 m 5 -406 q -1 -406 5 -406 q -15 -392 -8 -406 q -22 -363 -22 -378 q -16 -335 -22 -347 q 4 -316 -9 -323 q 28 -304 17 -308 q 58 -294 39 -299 q 90 -284 77 -289 q 124 -260 104 -279 q 163 -206 144 -241 q 200 -133 183 -170 q 225 -66 217 -95 q 237 24 237 -21 q 236 112 237 68 q 231 208 234 156 q 221 304 228 260 q 204 385 214 348 q 146 464 184 464 q 94 442 117 464 q 61 408 72 421 q 43 387 50 395 q 33 378 36 378 q 20 383 31 378 q 8 393 8 389 q 18 412 8 397 q 44 448 27 427 q 83 488 61 468 q 192 535 134 535 q 278 471 250 535 q 314 268 305 407 q 323 75 317 235 q 361 144 333 94 q 404 226 388 195 q 492 476 481 372 q 495 513 493 491 q 515 551 498 551 q 555 538 541 551 q 569 515 569 525 q 321 -13 569 402 l 307 -39 q 184 -272 211 -225 q 144 -332 158 -319 q 118 -352 131 -345 q 93 -368 105 -360 q 74 -379 80 -375 q 56 -389 67 -383 q 37 -398 45 -395 q 5 -406 18 -406 z "},"":{"ha":597,"x_min":-65,"x_max":567,"o":"m -38 -374 q -65 -358 -65 -374 q -60 -327 -65 -333 q -35 -321 -55 -321 l -11 -322 q 14 -294 9 -322 q 74 43 50 -104 q 141 437 97 191 q 195 772 184 684 q 203 866 207 861 q 188 868 199 871 q 148 857 176 865 q 85 842 90 842 q 79 842 81 842 q 75 855 75 843 q 76 876 75 867 q 93 896 78 891 q 228 928 155 910 q 306 947 301 947 q 319 930 319 947 q 271 637 319 898 q 193 225 223 376 q 315 454 245 347 q 376 513 339 491 q 449 535 413 535 q 504 528 484 535 q 535 509 523 521 q 554 481 547 498 q 567 402 567 451 q 553 300 567 353 q 516 202 539 247 q 461 116 492 156 q 395 47 429 76 q 250 -14 320 -14 l 172 -4 q 166 -4 168 -4 q 163 -4 163 -4 q 161 -5 162 -5 q 160 -6 160 -6 q 158 -11 159 -7 l 114 -301 q 127 -330 110 -329 q 168 -334 145 -332 q 205 -338 192 -337 q 236 -357 236 -341 q 218 -394 236 -394 q 169 -389 205 -394 q -38 -374 62 -374 m 178 71 q 262 31 178 31 q 334 66 296 31 q 402 153 372 101 q 452 269 432 206 q 472 386 472 333 q 415 471 472 471 q 366 450 386 471 q 334 413 346 428 q 311 377 323 398 q 290 339 298 355 q 271 301 282 323 q 254 270 260 280 q 178 71 178 123 z "},"":{"ha":586,"x_min":-22,"x_max":569,"o":"m 5 -406 q -1 -406 5 -406 q -15 -392 -8 -406 q -22 -363 -22 -378 q -16 -335 -22 -347 q 4 -316 -9 -323 q 28 -304 17 -308 q 58 -294 39 -299 q 90 -284 77 -289 q 124 -260 104 -279 q 163 -206 144 -241 q 200 -133 183 -170 q 225 -66 217 -95 q 237 24 237 -21 q 236 112 237 68 q 231 208 234 156 q 221 304 228 260 q 204 385 214 348 q 146 464 184 464 q 94 442 117 464 q 61 408 72 421 q 43 387 50 395 q 33 378 36 378 q 20 383 31 378 q 8 393 8 389 q 18 412 8 397 q 44 448 27 427 q 83 488 61 468 q 192 535 134 535 q 278 471 250 535 q 314 268 305 407 q 323 75 317 235 q 361 144 333 94 q 404 226 388 195 q 492 476 481 372 q 495 513 493 491 q 515 551 498 551 q 555 538 541 551 q 569 515 569 525 q 321 -13 569 402 l 307 -39 q 184 -272 211 -225 q 144 -332 158 -319 q 118 -352 131 -345 q 93 -368 105 -360 q 74 -379 80 -375 q 56 -389 67 -383 q 37 -398 45 -395 q 5 -406 18 -406 z "},"":{"ha":956,"x_min":24,"x_max":932,"o":"m 830 1139 q 839 1129 839 1139 q 837 1100 839 1118 q 832 1080 834 1082 q 824 1078 830 1078 l 567 1078 q 554 1080 556 1078 q 553 1092 553 1083 q 555 1117 553 1101 q 559 1136 556 1134 q 569 1139 561 1139 l 830 1139 m 149 -4 l 46 -8 q 28 -3 32 -8 q 24 18 24 2 q 29 38 24 35 q 53 42 35 42 l 97 42 q 205 221 108 55 q 581 850 514 752 q 601 873 588 861 q 648 933 634 907 q 675 958 661 958 q 697 933 694 958 q 721 784 701 908 q 759 557 742 661 q 798 331 777 453 q 856 42 844 66 l 912 42 q 928 37 924 42 q 932 18 932 32 q 928 -3 932 3 q 912 -8 924 -8 l 787 -4 l 632 -8 q 614 -3 618 -8 q 610 19 610 3 q 615 38 610 35 q 639 42 621 42 l 717 42 l 717 53 q 698 220 717 85 q 677 367 679 354 q 674 383 676 380 q 663 386 672 386 l 394 386 q 378 384 382 386 q 369 373 374 381 q 338 315 365 365 q 295 233 312 266 q 254 155 278 201 q 199 42 204 61 l 290 42 q 306 37 302 42 q 310 18 310 32 q 306 -3 310 3 q 290 -8 302 -8 l 149 -4 m 560 720 q 539 681 560 720 q 466 554 517 643 q 407 449 415 464 q 399 431 399 434 q 419 428 399 428 l 651 428 q 665 431 665 428 q 636 620 665 445 q 605 796 607 796 q 560 720 604 796 z "},"":{"ha":601,"x_min":31,"x_max":571,"o":"m 522 764 q 537 751 537 764 q 533 708 537 713 q 519 703 528 703 l 268 703 q 255 705 258 703 q 251 717 251 707 q 253 742 251 726 q 258 761 255 758 q 271 764 261 764 l 522 764 m 390 -19 q 349 18 349 -19 q 415 278 349 62 q 280 89 339 150 q 206 16 220 28 q 130 -18 168 -16 q 125 -18 127 -18 q 55 11 80 -18 q 31 78 31 39 q 37 158 31 117 q 57 244 43 199 q 89 330 70 288 q 135 411 108 373 q 193 479 162 450 q 350 542 261 542 q 389 529 363 542 q 424 505 415 517 q 438 483 432 493 q 453 463 451 463 q 472 519 458 463 q 537 537 476 537 q 560 528 560 537 q 532 420 560 518 q 447 96 447 127 q 463 64 447 64 q 510 103 473 64 q 553 142 547 142 q 564 134 558 142 q 571 121 571 127 q 551 92 571 114 q 504 46 531 71 q 445 1 477 21 q 390 -19 412 -19 m 187 348 q 175 320 187 348 q 147 235 163 293 q 132 147 132 176 q 133 109 132 118 q 137 87 134 99 q 165 64 143 64 q 219 89 187 64 q 285 154 251 114 q 411 329 355 237 q 426 369 421 346 q 432 406 432 393 q 420 434 432 419 q 389 458 408 449 q 316 478 350 478 q 247 440 281 478 q 187 348 212 402 z "},"":{"ha":956,"x_min":24,"x_max":932,"o":"m 596 1045 q 590 1054 596 1045 q 578 1082 584 1062 q 572 1135 572 1102 q 579 1168 572 1168 l 600 1168 q 606 1161 606 1168 q 626 1101 606 1119 q 707 1082 646 1082 q 800 1126 767 1082 q 812 1152 807 1137 q 819 1168 818 1168 l 847 1168 l 847 1164 q 763 1030 835 1073 q 691 1008 728 1008 q 632 1018 654 1008 q 596 1045 609 1028 m 149 -4 l 46 -8 q 28 -3 32 -8 q 24 18 24 2 q 29 38 24 35 q 53 42 35 42 l 97 42 q 205 221 108 55 q 581 850 514 752 q 601 873 588 861 q 648 933 634 907 q 675 958 661 958 q 697 933 694 958 q 721 784 701 908 q 759 557 742 661 q 798 331 777 453 q 856 42 844 66 l 912 42 q 928 37 924 42 q 932 18 932 32 q 928 -3 932 3 q 912 -8 924 -8 l 787 -4 l 632 -8 q 614 -3 618 -8 q 610 19 610 3 q 615 38 610 35 q 639 42 621 42 l 717 42 l 717 53 q 698 220 717 85 q 677 367 679 354 q 674 383 676 380 q 663 386 672 386 l 394 386 q 378 384 382 386 q 369 373 374 381 q 338 315 365 365 q 295 233 312 266 q 254 155 278 201 q 199 42 204 61 l 290 42 q 306 37 302 42 q 310 18 310 32 q 306 -3 310 3 q 290 -8 302 -8 l 149 -4 m 560 720 q 539 681 560 720 q 466 554 517 643 q 407 449 415 464 q 399 431 399 434 q 419 428 399 428 l 651 428 q 665 431 665 428 q 636 620 665 445 q 605 796 607 796 q 560 720 604 796 z "},"":{"ha":601,"x_min":31,"x_max":571,"o":"m 548 811 q 462 656 534 704 q 391 633 427 633 q 333 645 355 633 q 298 675 310 656 q 273 764 273 713 q 283 815 273 815 l 301 815 q 307 806 307 815 q 312 771 307 796 q 397 714 322 714 q 478 740 450 714 q 508 781 501 761 q 526 815 521 815 l 542 815 q 548 811 548 815 m 390 -19 q 349 18 349 -19 q 415 278 349 62 q 280 89 339 150 q 206 16 220 28 q 130 -18 168 -16 q 125 -18 127 -18 q 55 11 80 -18 q 31 78 31 39 q 37 158 31 117 q 57 244 43 199 q 89 330 70 288 q 135 411 108 373 q 193 479 162 450 q 350 542 261 542 q 389 529 363 542 q 424 505 415 517 q 438 483 432 493 q 453 463 451 463 q 472 519 458 463 q 537 537 476 537 q 560 528 560 537 q 532 420 560 518 q 447 96 447 127 q 463 64 447 64 q 510 103 473 64 q 553 142 547 142 q 564 134 558 142 q 571 121 571 127 q 551 92 571 114 q 504 46 531 71 q 445 1 477 21 q 390 -19 412 -19 m 187 348 q 175 320 187 348 q 147 235 163 293 q 132 147 132 176 q 133 109 132 118 q 137 87 134 99 q 165 64 143 64 q 219 89 187 64 q 285 154 251 114 q 411 329 355 237 q 426 369 421 346 q 432 406 432 393 q 420 434 432 419 q 389 458 408 449 q 316 478 350 478 q 247 440 281 478 q 187 348 212 402 z "},"":{"ha":956,"x_min":24,"x_max":932,"o":"m 149 -4 l 46 -8 q 28 -3 32 -8 q 24 18 24 2 q 29 38 24 35 q 53 42 35 42 l 97 42 q 205 221 108 55 q 581 850 514 752 q 601 873 588 861 q 648 933 634 907 q 675 958 661 958 q 697 933 694 958 q 721 784 701 908 q 759 557 742 661 q 798 331 777 453 q 856 42 844 66 l 912 42 q 928 37 924 42 q 932 18 932 32 q 928 -3 932 3 q 912 -8 924 -8 l 804 -4 q 659 -246 659 -137 q 678 -305 659 -278 q 721 -332 698 -332 q 767 -322 744 -332 q 806 -301 790 -313 q 851 -271 846 -271 q 861 -280 856 -271 q 867 -293 867 -290 q 856 -307 867 -296 q 826 -333 846 -318 q 782 -362 806 -348 q 660 -396 723 -396 q 606 -377 631 -396 q 557 -275 557 -339 q 689 -62 557 -191 q 726 -27 707 -45 q 746 -8 745 -9 q 748 -6 747 -7 q 750 -4 749 -5 l 632 -8 q 614 -3 618 -8 q 610 19 610 3 q 615 38 610 35 q 639 42 621 42 l 717 42 l 717 53 q 698 220 717 85 q 677 367 679 354 q 674 383 676 380 q 663 386 672 386 l 394 386 q 378 384 382 386 q 369 373 374 381 q 338 315 365 365 q 295 233 312 266 q 254 155 278 201 q 199 42 204 61 l 290 42 q 306 37 302 42 q 310 18 310 32 q 306 -3 310 3 q 290 -8 302 -8 l 149 -4 m 560 720 q 539 681 560 720 q 466 554 517 643 q 407 449 415 464 q 399 431 399 434 q 419 428 399 428 l 651 428 q 665 431 665 428 q 636 620 665 445 q 605 796 607 796 q 560 720 604 796 z "},"":{"ha":601,"x_min":31,"x_max":571,"o":"m 532 420 q 518 372 532 420 q 475 218 504 323 q 447 89 447 113 q 463 64 447 64 q 510 103 473 64 q 553 142 547 142 q 564 134 558 142 q 571 122 571 127 q 567 111 571 117 q 480 27 541 74 q 403 -38 420 -19 q 292 -246 292 -152 q 311 -305 292 -278 q 354 -332 331 -332 q 400 -322 377 -332 q 439 -301 424 -313 q 484 -271 480 -271 q 494 -280 489 -271 q 500 -293 500 -290 q 490 -307 500 -296 q 459 -333 479 -318 q 415 -362 439 -348 q 293 -396 356 -396 q 240 -377 264 -396 q 190 -275 190 -339 q 202 -218 190 -242 q 222 -181 214 -195 q 245 -149 230 -168 q 270 -119 260 -130 q 299 -87 279 -107 q 371 -17 347 -38 q 349 27 349 -9 q 415 278 349 62 q 280 89 339 150 q 206 16 220 28 q 130 -18 168 -16 q 125 -18 127 -18 q 55 11 80 -18 q 31 78 31 39 q 37 158 31 117 q 57 244 43 199 q 89 330 70 288 q 135 411 108 373 q 193 479 162 450 q 350 542 261 542 q 440 483 408 542 q 453 463 452 463 q 472 519 458 463 q 537 537 476 537 q 560 528 560 537 q 532 420 560 518 m 167 64 q 234 106 189 64 q 411 329 330 197 q 426 369 421 346 q 432 409 432 393 q 413 442 432 424 q 322 478 375 478 q 269 453 297 478 q 218 389 241 428 q 175 303 194 349 q 135 135 135 205 q 167 64 135 64 z "},"":{"ha":952,"x_min":44,"x_max":908,"o":"m 546 1008 q 536 1015 536 1008 q 540 1025 536 1021 l 633 1144 q 685 1181 662 1181 q 729 1147 729 1181 q 703 1101 729 1120 l 587 1018 q 583 1015 586 1017 q 572 1008 577 1008 l 546 1008 m 801 612 l 833 747 q 782 795 822 766 q 709 844 742 825 q 565 889 630 889 q 450 868 499 889 q 359 811 400 847 q 284 727 319 775 q 227 625 250 679 q 178 412 178 510 q 204 244 178 315 q 275 128 230 174 q 510 32 370 32 q 711 91 617 32 q 761 135 757 119 q 783 205 770 161 q 796 251 795 249 q 833 267 803 277 q 860 249 860 261 q 814 85 860 238 q 703 19 806 59 q 500 -24 595 -24 q 153 102 275 -24 q 44 404 44 213 q 197 784 44 628 q 421 918 292 881 q 562 936 486 936 q 716 903 637 936 q 844 820 795 870 q 847 830 845 823 q 851 844 849 838 q 854 858 852 851 q 864 872 859 872 q 892 867 877 872 q 908 853 908 862 q 897 791 908 847 l 880 704 q 867 641 873 672 q 860 605 861 610 q 857 597 859 600 q 852 594 855 595 q 842 593 848 593 l 838 593 q 813 599 824 593 q 801 612 801 605 z "},"":{"ha":558,"x_min":31,"x_max":528,"o":"m 353 620 q 343 624 343 620 q 347 636 343 628 l 432 807 q 476 843 450 843 q 515 834 501 843 q 528 806 528 824 q 514 772 528 788 l 388 629 q 374 620 380 620 l 353 620 m 397 406 l 399 439 q 384 483 399 465 q 334 502 368 502 q 261 476 299 502 q 193 408 222 451 q 146 308 164 365 q 129 220 129 251 q 130 181 129 189 q 133 157 130 173 q 141 130 136 141 q 156 104 146 118 q 182 81 167 90 q 261 60 217 60 q 340 71 306 60 q 401 98 375 82 q 448 130 427 114 q 482 157 469 146 q 498 168 495 168 q 510 159 502 168 q 518 146 518 151 q 506 128 518 141 q 473 96 494 115 q 424 59 453 78 q 363 22 394 39 q 147 -5 249 -39 q 31 178 31 34 q 136 448 31 336 q 272 536 194 510 q 342 547 308 547 q 460 508 424 547 q 496 430 496 469 q 478 371 496 392 q 432 350 460 350 q 397 406 397 350 z "},"":{"ha":952,"x_min":44,"x_max":908,"o":"m 412 1008 q 404 1013 404 1008 q 412 1025 404 1017 q 545 1159 539 1153 q 569 1170 555 1170 l 597 1170 q 613 1167 608 1170 q 624 1153 617 1164 l 697 1025 q 701 1014 701 1019 q 689 1008 701 1008 l 675 1008 q 660 1018 669 1008 l 572 1090 q 567 1090 570 1092 l 449 1017 q 430 1008 435 1008 l 412 1008 m 801 612 l 833 747 q 782 795 822 766 q 709 844 742 825 q 565 889 630 889 q 450 868 499 889 q 359 811 400 847 q 284 727 319 775 q 227 625 250 679 q 178 412 178 510 q 204 244 178 315 q 275 128 230 174 q 510 32 370 32 q 711 91 617 32 q 761 135 757 119 q 783 205 770 161 q 796 251 795 249 q 833 267 803 277 q 860 249 860 261 q 814 85 860 238 q 703 19 806 59 q 500 -24 595 -24 q 153 102 275 -24 q 44 404 44 213 q 197 784 44 628 q 421 918 292 881 q 562 936 486 936 q 716 903 637 936 q 844 820 795 870 q 847 830 845 823 q 851 844 849 838 q 854 858 852 851 q 864 872 859 872 q 892 867 877 872 q 908 853 908 862 q 897 791 908 847 l 880 704 q 867 641 873 672 q 860 605 861 610 q 857 597 859 600 q 852 594 855 595 q 842 593 848 593 l 838 593 q 813 599 824 593 q 801 612 801 605 z "},"":{"ha":558,"x_min":31,"x_max":526,"o":"m 236 635 q 228 638 228 635 q 229 644 228 642 q 233 649 231 646 q 236 653 235 651 l 362 797 q 378 813 374 811 q 393 815 381 815 l 421 815 q 436 812 432 815 q 447 796 440 810 l 521 653 q 526 638 526 642 q 513 635 526 635 l 496 635 q 488 639 492 635 q 484 645 485 643 l 400 726 q 394 730 396 730 q 385 726 391 730 l 272 645 q 257 635 260 635 l 236 635 m 397 406 l 399 439 q 384 483 399 465 q 334 502 368 502 q 261 476 299 502 q 193 408 222 451 q 146 308 164 365 q 129 220 129 251 q 130 181 129 189 q 133 157 130 173 q 141 130 136 141 q 156 104 146 118 q 182 81 167 90 q 261 60 217 60 q 340 71 306 60 q 401 98 375 82 q 448 130 427 114 q 482 157 469 146 q 498 168 495 168 q 510 159 502 168 q 518 146 518 151 q 506 128 518 141 q 473 96 494 115 q 424 59 453 78 q 363 22 394 39 q 147 -5 249 -39 q 31 178 31 34 q 136 448 31 336 q 272 536 194 510 q 342 547 308 547 q 460 508 424 547 q 496 430 496 469 q 478 371 496 392 q 432 350 460 350 q 397 406 397 350 z "},"":{"ha":952,"x_min":44,"x_max":908,"o":"m 801 612 l 833 747 q 782 795 822 766 q 709 844 742 825 q 565 889 630 889 q 450 868 499 889 q 359 811 400 847 q 284 727 319 775 q 227 625 250 679 q 178 412 178 510 q 204 244 178 315 q 275 128 230 174 q 510 32 370 32 q 711 91 617 32 q 761 135 757 119 q 783 205 770 161 q 796 251 795 249 q 833 267 803 277 q 860 249 860 261 q 814 85 860 238 q 703 19 806 59 q 500 -24 595 -24 q 153 102 275 -24 q 44 404 44 213 q 197 784 44 628 q 421 918 292 881 q 562 936 486 936 q 716 903 637 936 q 844 820 795 870 q 847 830 845 823 q 851 844 849 838 q 854 858 852 851 q 864 872 859 872 q 892 867 877 872 q 908 853 908 862 q 897 791 908 847 l 880 704 q 867 641 873 672 q 860 605 861 610 q 857 597 859 600 q 852 594 855 595 q 842 593 848 593 l 838 593 q 813 599 824 593 q 801 612 801 605 z "},"":{"ha":558,"x_min":31,"x_max":518,"o":"m 397 406 l 399 439 q 384 483 399 465 q 334 502 368 502 q 261 476 299 502 q 193 408 222 451 q 146 308 164 365 q 129 220 129 251 q 130 181 129 189 q 133 157 130 173 q 141 130 136 141 q 156 104 146 118 q 182 81 167 90 q 261 60 217 60 q 340 71 306 60 q 401 98 375 82 q 448 130 427 114 q 482 157 469 146 q 498 168 495 168 q 510 159 502 168 q 518 146 518 151 q 506 128 518 141 q 473 96 494 115 q 424 59 453 78 q 363 22 394 39 q 147 -5 249 -39 q 31 178 31 34 q 136 448 31 336 q 272 536 194 510 q 342 547 308 547 q 460 508 424 547 q 496 430 496 469 q 478 371 496 392 q 432 350 460 350 q 397 406 397 350 z "},"":{"ha":952,"x_min":44,"x_max":908,"o":"m 441 1153 q 437 1164 437 1159 q 450 1170 437 1170 l 464 1170 q 479 1160 469 1170 l 567 1087 q 572 1087 569 1085 l 690 1161 q 708 1170 704 1170 l 726 1170 q 734 1165 734 1170 q 726 1153 734 1161 q 594 1019 600 1025 q 569 1008 584 1008 l 542 1008 q 526 1011 530 1008 q 515 1025 522 1014 l 441 1153 m 801 612 l 833 747 q 782 795 822 766 q 709 844 742 825 q 565 889 630 889 q 450 868 499 889 q 359 811 400 847 q 284 727 319 775 q 227 625 250 679 q 178 412 178 510 q 204 244 178 315 q 275 128 230 174 q 510 32 370 32 q 711 91 617 32 q 761 135 757 119 q 783 205 770 161 q 796 251 795 249 q 833 267 803 277 q 860 249 860 261 q 814 85 860 238 q 703 19 806 59 q 500 -24 595 -24 q 153 102 275 -24 q 44 404 44 213 q 197 784 44 628 q 421 918 292 881 q 562 936 486 936 q 716 903 637 936 q 844 820 795 870 q 847 830 845 823 q 851 844 849 838 q 854 858 852 851 q 864 872 859 872 q 892 867 877 872 q 908 853 908 862 q 897 791 908 847 l 880 704 q 867 641 873 672 q 860 605 861 610 q 857 597 859 600 q 852 594 855 595 q 842 593 848 593 l 838 593 q 813 599 824 593 q 801 612 801 605 z "},"":{"ha":558,"x_min":31,"x_max":554,"o":"m 261 797 q 256 812 256 808 q 270 815 256 815 l 286 815 q 294 811 290 815 q 299 806 297 807 l 382 724 q 389 720 386 720 q 397 724 391 720 l 510 806 q 525 815 522 815 l 546 815 q 554 812 554 815 q 553 806 554 808 q 549 801 551 804 q 546 797 547 799 l 419 653 q 404 637 408 639 q 389 635 400 635 l 361 635 q 346 637 350 635 q 335 654 342 640 l 261 797 m 397 406 l 399 439 q 384 483 399 465 q 334 502 368 502 q 261 476 299 502 q 193 408 222 451 q 146 308 164 365 q 129 220 129 251 q 130 181 129 189 q 133 157 130 173 q 141 130 136 141 q 156 104 146 118 q 182 81 167 90 q 261 60 217 60 q 340 71 306 60 q 401 98 375 82 q 448 130 427 114 q 482 157 469 146 q 498 168 495 168 q 510 159 502 168 q 518 146 518 151 q 506 128 518 141 q 473 96 494 115 q 424 59 453 78 q 363 22 394 39 q 147 -5 249 -39 q 31 178 31 34 q 136 448 31 336 q 272 536 194 510 q 342 547 308 547 q 460 508 424 547 q 496 430 496 469 q 478 371 496 392 q 432 350 460 350 q 397 406 397 350 z "},"":{"ha":1030,"x_min":22,"x_max":979,"o":"m 369 1153 q 365 1164 365 1159 q 378 1170 365 1170 l 392 1170 q 407 1160 397 1170 l 494 1087 q 500 1087 497 1085 l 618 1161 q 636 1170 632 1170 l 654 1170 q 662 1165 662 1170 q 654 1153 662 1161 q 522 1019 528 1025 q 497 1008 511 1008 l 469 1008 q 454 1011 458 1008 q 443 1025 449 1014 l 369 1153 m 176 -4 l 42 -10 q 26 -5 29 -10 q 22 15 22 0 q 28 35 22 30 q 50 39 35 39 l 107 39 q 164 405 117 72 q 228 868 212 739 q 225 879 228 872 l 129 877 q 112 880 118 877 q 107 898 107 884 q 111 918 107 911 q 129 924 115 924 q 294 922 129 924 l 478 925 q 886 770 757 925 q 979 465 979 657 q 769 68 979 197 q 474 -10 643 -10 l 176 -4 m 263 242 q 258 206 263 242 q 247 124 253 171 q 242 62 242 77 q 248 43 242 46 q 329 39 254 39 q 470 51 404 39 q 584 83 535 63 q 672 131 632 102 q 739 190 712 159 q 787 257 766 221 q 819 326 807 293 q 837 394 830 359 q 849 512 849 451 q 834 628 849 572 q 786 730 819 684 q 706 809 754 777 q 439 878 606 878 q 356 872 356 878 q 337 751 354 867 q 307 549 320 635 q 283 388 294 463 q 263 242 273 313 z "},"":{"ha":657,"x_min":31,"x_max":799,"o":"m 667 681 q 660 687 660 681 q 668 725 660 693 q 689 805 676 756 q 707 875 702 853 q 758 922 719 922 q 789 911 779 922 q 799 890 799 900 q 796 872 799 879 q 792 860 794 864 q 786 847 790 855 q 781 836 782 838 l 704 700 q 687 681 698 681 l 667 681 m 36 63 q 31 103 31 81 q 35 155 31 125 q 50 219 40 185 q 74 290 59 254 q 107 361 89 326 q 150 426 125 396 q 201 480 174 457 q 333 531 261 531 q 439 507 392 531 q 454 499 447 502 q 474 510 470 490 q 507 725 490 601 q 526 856 525 850 q 525 867 527 862 q 518 871 522 872 q 458 855 514 869 q 397 840 403 840 q 390 853 390 840 q 391 876 390 867 q 406 895 393 891 q 547 929 478 910 q 620 947 616 947 q 639 922 639 947 q 604 719 639 914 q 500 83 500 132 q 514 67 500 67 q 549 83 527 67 q 590 118 571 99 q 625 153 609 137 q 643 170 640 170 q 654 163 647 170 q 661 154 661 157 q 652 138 661 151 q 629 106 644 125 q 592 66 614 87 q 546 27 570 45 q 436 -14 491 -14 q 406 1 418 -14 q 394 50 394 15 q 445 300 394 85 q 337 136 384 197 q 270 54 291 76 q 142 -10 210 -10 q 36 63 56 -10 m 168 309 q 159 286 168 309 q 140 218 150 262 q 131 138 131 173 q 144 86 131 103 q 182 68 158 68 q 230 84 207 68 q 279 130 253 101 q 389 276 326 183 q 453 422 453 368 q 436 448 453 432 q 390 478 419 465 q 331 492 361 492 q 267 465 300 492 q 211 398 235 439 q 168 309 187 357 z "},"":{"ha":1030,"x_min":22,"x_max":979,"o":"m 176 -4 l 42 -10 q 26 -5 29 -10 q 22 15 22 0 q 28 35 22 30 q 50 39 35 39 l 107 39 q 170 429 119 74 q 169 440 171 438 q 158 442 167 442 l 68 442 q 61 460 61 442 l 61 468 q 68 483 61 483 l 162 483 q 175 485 173 483 q 178 495 177 486 q 192 599 179 504 q 228 878 228 860 l 228 879 l 129 877 q 112 880 118 877 q 107 898 107 884 q 111 918 107 911 q 129 924 115 924 l 294 922 l 478 925 q 886 770 757 925 q 979 465 979 657 q 769 68 979 197 q 474 -10 643 -10 l 176 -4 m 303 442 q 293 439 295 442 q 266 270 290 436 q 242 75 242 104 q 248 43 242 46 q 329 39 254 39 q 470 51 404 39 q 584 83 535 63 q 672 131 632 102 q 739 190 712 159 q 787 257 766 221 q 819 326 807 293 q 837 394 830 359 q 849 512 849 451 q 834 628 849 572 q 786 730 819 684 q 706 809 754 777 q 439 878 606 878 q 356 874 358 878 q 341 777 354 870 q 313 591 327 685 q 298 493 299 498 q 299 486 298 488 q 308 483 301 483 l 581 483 q 586 463 586 483 q 581 442 586 442 l 303 442 z "},"":{"ha":657,"x_min":31,"x_max":703,"o":"m 454 499 q 457 497 454 499 q 465 496 460 495 q 477 529 471 497 q 491 612 483 561 q 498 665 498 662 q 493 668 498 668 l 289 668 q 282 689 282 668 q 289 710 282 710 l 497 710 q 506 718 504 710 q 515 782 510 748 q 526 856 525 850 q 525 867 527 862 q 518 871 522 872 q 458 855 514 869 q 397 840 403 840 q 390 853 390 840 q 391 876 390 867 q 406 895 393 891 q 547 929 478 910 q 620 947 616 947 q 639 922 639 947 q 622 816 639 917 q 605 713 604 715 q 614 710 606 710 l 696 710 q 703 689 703 710 q 696 668 703 668 l 607 668 q 597 667 599 668 q 556 441 595 666 q 500 83 500 123 q 514 67 500 67 q 549 83 527 67 q 590 118 571 99 q 625 153 609 137 q 643 170 640 170 q 654 163 647 170 q 661 154 661 157 q 652 138 661 151 q 629 106 644 125 q 592 66 614 87 q 546 27 570 45 q 436 -14 491 -14 q 406 1 418 -14 q 394 50 394 15 q 445 300 394 85 q 337 136 384 197 q 270 54 291 76 q 142 -10 210 -10 q 36 63 56 -10 q 31 103 31 81 q 35 155 31 125 q 50 219 40 185 q 74 290 59 254 q 107 361 89 326 q 150 426 125 396 q 201 480 174 457 q 333 531 261 531 q 439 507 392 531 q 454 499 447 502 m 168 309 q 159 286 168 309 q 140 218 150 262 q 131 138 131 173 q 144 86 131 103 q 182 68 158 68 q 230 84 207 68 q 279 130 253 101 q 389 276 326 183 q 453 422 453 368 q 436 448 453 432 q 390 478 419 465 q 331 492 361 492 q 267 465 300 492 q 211 398 235 439 q 168 309 187 357 z "},"":{"ha":804,"x_min":24,"x_max":781,"o":"m 624 1139 q 632 1129 632 1139 q 630 1100 632 1118 q 625 1080 628 1082 q 617 1078 623 1078 l 360 1078 q 347 1080 349 1078 q 346 1092 346 1083 q 348 1117 346 1101 q 352 1136 350 1134 q 362 1139 354 1139 l 624 1139 m 190 -4 l 47 -8 q 28 -3 33 -8 q 24 19 24 3 q 29 38 24 35 q 53 42 35 42 l 108 42 q 120 114 109 44 q 142 259 131 184 q 169 436 154 333 q 196 621 184 538 q 223 869 223 821 l 222 879 l 142 879 q 119 887 121 879 q 117 904 117 895 q 135 928 117 928 l 201 926 q 296 924 267 924 q 586 928 296 924 q 714 942 712 928 q 736 963 714 963 q 758 959 751 963 q 764 946 764 955 q 759 884 764 936 q 751 767 753 832 q 746 754 751 757 q 726 751 741 751 q 705 755 711 751 q 700 764 700 759 q 708 873 700 770 q 350 882 648 882 q 315 675 337 844 q 293 501 293 506 q 293 495 293 496 q 310 493 294 493 l 537 493 q 598 508 596 493 l 614 585 q 639 594 615 594 q 663 582 663 594 q 652 527 663 573 q 620 357 622 384 q 614 327 617 330 q 596 323 609 323 l 590 323 q 568 335 568 323 l 585 432 q 566 445 585 443 q 519 447 548 447 l 310 447 q 291 446 294 447 q 285 430 288 445 q 260 256 282 416 q 232 54 237 96 q 237 46 232 46 l 681 56 q 704 116 686 61 q 727 183 723 172 q 736 199 731 195 q 752 203 741 203 q 771 198 762 203 q 781 184 781 192 q 773 153 781 176 q 749 87 765 131 q 726 21 733 43 q 713 -4 719 0 q 694 -8 706 -8 l 190 -4 z "},"":{"ha":542,"x_min":31,"x_max":536,"o":"m 521 764 q 536 751 536 764 q 531 708 536 713 q 518 703 527 703 l 267 703 q 253 705 257 703 q 250 717 250 707 q 252 742 250 726 q 257 761 254 758 q 269 764 260 764 l 521 764 m 138 232 q 131 172 131 232 q 260 53 131 53 q 420 113 336 53 q 456 142 441 129 q 497 174 490 174 q 511 165 505 174 q 518 152 518 157 q 510 137 518 147 q 486 113 502 127 q 449 82 470 98 q 401 49 429 65 q 344 19 373 32 q 210 -11 278 -11 q 66 43 115 -11 q 31 140 31 82 q 43 249 31 198 q 78 344 56 300 q 133 426 101 388 q 203 490 165 464 q 375 547 283 547 q 500 491 472 547 q 508 447 508 474 q 494 390 508 420 q 454 338 479 361 q 325 262 405 291 q 138 232 244 232 m 171 339 q 151 276 151 291 q 180 272 151 272 q 254 285 210 272 q 334 320 299 297 q 410 453 410 370 q 392 491 410 476 q 345 506 374 506 q 171 339 234 506 z "},"":{"ha":804,"x_min":24,"x_max":781,"o":"m 390 1045 q 383 1054 390 1045 q 371 1082 377 1062 q 365 1135 365 1102 q 372 1168 365 1168 l 393 1168 q 399 1161 399 1168 q 419 1101 399 1119 q 500 1082 439 1082 q 593 1126 561 1082 q 606 1152 601 1137 q 612 1168 611 1168 l 640 1168 l 640 1164 q 556 1030 628 1073 q 484 1008 521 1008 q 425 1018 447 1008 q 390 1045 402 1028 m 190 -4 l 47 -8 q 28 -3 33 -8 q 24 19 24 3 q 29 38 24 35 q 53 42 35 42 l 108 42 q 120 114 109 44 q 142 259 131 184 q 169 436 154 333 q 196 621 184 538 q 223 869 223 821 l 222 879 l 142 879 q 119 887 121 879 q 117 904 117 895 q 135 928 117 928 l 201 926 q 296 924 267 924 q 586 928 296 924 q 714 942 712 928 q 736 963 714 963 q 758 959 751 963 q 764 946 764 955 q 759 884 764 936 q 751 767 753 832 q 746 754 751 757 q 726 751 741 751 q 705 755 711 751 q 700 764 700 759 q 708 873 700 770 q 350 882 648 882 q 315 675 337 844 q 293 501 293 506 q 293 495 293 496 q 310 493 294 493 l 537 493 q 598 508 596 493 l 614 585 q 639 594 615 594 q 663 582 663 594 q 652 527 663 573 q 620 357 622 384 q 614 327 617 330 q 596 323 609 323 l 590 323 q 568 335 568 323 l 585 432 q 566 445 585 443 q 519 447 548 447 l 310 447 q 291 446 294 447 q 285 430 288 445 q 260 256 282 416 q 232 54 237 96 q 237 46 232 46 l 681 56 q 704 116 686 61 q 727 183 723 172 q 736 199 731 195 q 752 203 741 203 q 771 198 762 203 q 781 184 781 192 q 773 153 781 176 q 749 87 765 131 q 726 21 733 43 q 713 -4 719 0 q 694 -8 706 -8 l 190 -4 z "},"":{"ha":542,"x_min":31,"x_max":547,"o":"m 547 811 q 460 656 532 704 q 390 633 426 633 q 331 645 354 633 q 296 675 309 656 q 272 764 272 713 q 282 815 272 815 l 300 815 q 306 806 306 815 q 310 771 306 796 q 396 714 321 714 q 477 740 449 714 q 507 781 500 761 q 525 815 519 815 l 540 815 q 547 811 547 815 m 138 232 q 131 172 131 232 q 260 53 131 53 q 420 113 336 53 q 456 142 441 129 q 497 174 490 174 q 511 165 505 174 q 518 152 518 157 q 510 137 518 147 q 486 113 502 127 q 449 82 470 98 q 401 49 429 65 q 344 19 373 32 q 210 -11 278 -11 q 66 43 115 -11 q 31 140 31 82 q 43 249 31 198 q 78 344 56 300 q 133 426 101 388 q 203 490 165 464 q 375 547 283 547 q 500 491 472 547 q 508 447 508 474 q 494 390 508 420 q 454 338 479 361 q 325 262 405 291 q 138 232 244 232 m 171 339 q 151 276 151 291 q 180 272 151 272 q 254 285 210 272 q 334 320 299 297 q 410 453 410 370 q 392 491 410 476 q 345 506 374 506 q 171 339 234 506 z "},"":{"ha":804,"x_min":24,"x_max":781,"o":"m 190 -4 l 47 -8 q 28 -3 33 -8 q 24 19 24 3 q 29 38 24 35 q 53 42 35 42 l 108 42 q 120 114 109 44 q 142 259 131 184 q 169 436 154 333 q 196 621 184 538 q 223 869 223 821 l 222 879 l 142 879 q 119 887 121 879 q 117 904 117 895 q 135 928 117 928 l 201 926 q 296 924 267 924 q 586 928 296 924 q 714 942 712 928 q 736 963 714 963 q 758 959 751 963 q 764 946 764 955 q 759 884 764 936 q 751 767 753 832 q 746 754 751 757 q 726 751 741 751 q 705 755 711 751 q 700 764 700 759 q 708 873 700 770 q 350 882 648 882 q 315 675 337 844 q 293 501 293 506 q 293 495 293 496 q 310 493 294 493 l 537 493 q 598 508 596 493 l 614 585 q 639 594 615 594 q 663 582 663 594 q 652 527 663 573 q 620 357 622 384 q 614 327 617 330 q 596 323 609 323 l 590 323 q 568 335 568 323 l 585 432 q 566 445 585 443 q 519 447 548 447 l 310 447 q 291 446 294 447 q 285 430 288 445 q 260 256 282 416 q 232 54 237 96 q 237 46 232 46 l 681 56 q 704 116 686 61 q 727 183 723 172 q 736 199 731 195 q 752 203 741 203 q 771 198 762 203 q 781 184 781 192 q 773 153 781 176 q 749 87 765 131 q 726 21 733 43 q 713 -4 719 0 q 694 -8 706 -8 l 190 -4 z "},"":{"ha":542,"x_min":31,"x_max":518,"o":"m 138 232 q 131 172 131 232 q 260 53 131 53 q 420 113 336 53 q 456 142 441 129 q 497 174 490 174 q 511 165 505 174 q 518 152 518 157 q 510 137 518 147 q 486 113 502 127 q 449 82 470 98 q 401 49 429 65 q 344 19 373 32 q 210 -11 278 -11 q 66 43 115 -11 q 31 140 31 82 q 43 249 31 198 q 78 344 56 300 q 133 426 101 388 q 203 490 165 464 q 375 547 283 547 q 500 491 472 547 q 508 447 508 474 q 494 390 508 420 q 454 338 479 361 q 325 262 405 291 q 138 232 244 232 m 171 339 q 151 276 151 291 q 180 272 151 272 q 254 285 210 272 q 334 320 299 297 q 410 453 410 370 q 392 491 410 476 q 345 506 374 506 q 171 339 234 506 z "},"":{"ha":804,"x_min":24,"x_max":781,"o":"m 190 -4 l 47 -8 q 28 -3 33 -8 q 24 19 24 3 q 29 38 24 35 q 53 42 35 42 l 108 42 q 120 114 109 44 q 142 259 131 184 q 169 436 154 333 q 196 621 184 538 q 223 869 223 821 l 222 879 l 142 879 q 119 887 121 879 q 117 904 117 895 q 135 928 117 928 l 201 926 q 296 924 267 924 q 586 928 296 924 q 714 942 712 928 q 736 963 714 963 q 758 959 751 963 q 764 946 764 955 q 759 884 764 936 q 751 767 753 832 q 746 754 751 757 q 726 751 741 751 q 705 755 711 751 q 700 764 700 759 q 708 873 700 770 q 350 882 648 882 q 315 675 337 844 q 293 501 293 506 q 293 495 293 496 q 310 493 294 493 l 537 493 q 598 508 596 493 l 614 585 q 639 594 615 594 q 663 582 663 594 q 652 527 663 573 q 620 357 622 384 q 614 327 617 330 q 596 323 609 323 l 590 323 q 568 335 568 323 l 585 432 q 566 445 585 443 q 519 447 548 447 l 310 447 q 291 446 294 447 q 285 430 288 445 q 260 256 282 416 q 232 54 237 96 q 237 46 232 46 l 681 56 q 704 116 686 61 q 727 183 723 172 q 736 199 731 195 q 752 203 741 203 q 771 198 762 203 q 781 184 781 192 q 773 153 781 176 q 749 87 765 131 q 726 21 733 43 q 713 -4 719 0 q 694 -8 706 -8 l 610 -8 q 472 -244 472 -157 q 533 -332 472 -332 q 617 -301 576 -332 q 662 -271 657 -271 q 672 -280 667 -271 q 678 -293 678 -290 q 667 -307 678 -296 q 637 -333 657 -318 q 593 -362 617 -348 q 480 -396 534 -396 q 399 -366 427 -396 q 371 -285 371 -335 q 563 -7 371 -185 q 190 -4 282 -4 z "},"":{"ha":542,"x_min":31,"x_max":518,"o":"m 138 232 q 131 172 131 232 q 260 53 131 53 q 420 113 336 53 q 456 142 441 129 q 497 174 490 174 q 511 165 505 174 q 518 149 518 157 q 474 103 518 141 q 401 36 429 65 q 344 -27 373 7 q 289 -100 316 -61 q 228 -246 228 -188 q 289 -332 228 -332 q 372 -301 331 -332 q 418 -271 414 -271 q 428 -280 422 -271 q 433 -293 433 -290 q 423 -307 433 -296 q 392 -332 412 -317 q 348 -362 373 -348 q 236 -396 290 -396 q 154 -366 182 -396 q 126 -285 126 -335 q 151 -203 126 -241 q 188 -147 175 -165 q 230 -95 200 -128 q 297 -21 268 -53 q 331 14 327 10 q 224 -11 269 -11 q 154 -5 180 -11 q 105 13 128 0 q 66 43 82 25 q 31 140 31 82 q 43 249 31 198 q 78 344 56 300 q 133 426 101 388 q 203 490 165 464 q 375 547 283 547 q 500 491 472 547 q 508 447 508 474 q 494 390 508 420 q 454 338 479 361 q 325 262 405 291 q 138 232 244 232 m 171 339 q 151 276 151 291 q 180 272 151 272 q 254 285 210 272 q 334 320 299 297 q 410 453 410 370 q 392 491 410 476 q 345 506 374 506 q 171 339 234 506 z "},"":{"ha":804,"x_min":24,"x_max":781,"o":"m 364 1153 q 360 1164 360 1159 q 372 1170 360 1170 l 386 1170 q 401 1160 392 1170 l 489 1087 q 494 1087 492 1085 l 612 1161 q 631 1170 627 1170 l 649 1170 q 657 1165 657 1170 q 649 1153 657 1161 q 516 1019 522 1025 q 492 1008 506 1008 l 464 1008 q 448 1011 453 1008 q 437 1025 444 1014 l 364 1153 m 190 -4 l 47 -8 q 28 -3 33 -8 q 24 19 24 3 q 29 38 24 35 q 53 42 35 42 l 108 42 q 120 114 109 44 q 142 259 131 184 q 169 436 154 333 q 196 621 184 538 q 223 869 223 821 l 222 879 l 142 879 q 119 887 121 879 q 117 904 117 895 q 135 928 117 928 l 201 926 q 296 924 267 924 q 586 928 296 924 q 714 942 712 928 q 736 963 714 963 q 758 959 751 963 q 764 946 764 955 q 759 884 764 936 q 751 767 753 832 q 746 754 751 757 q 726 751 741 751 q 705 755 711 751 q 700 764 700 759 q 708 873 700 770 q 350 882 648 882 q 315 675 337 844 q 293 501 293 506 q 293 495 293 496 q 310 493 294 493 l 537 493 q 598 508 596 493 l 614 585 q 639 594 615 594 q 663 582 663 594 q 652 527 663 573 q 620 357 622 384 q 614 327 617 330 q 596 323 609 323 l 590 323 q 568 335 568 323 l 585 432 q 566 445 585 443 q 519 447 548 447 l 310 447 q 291 446 294 447 q 285 430 288 445 q 260 256 282 416 q 232 54 237 96 q 237 46 232 46 l 681 56 q 704 116 686 61 q 727 183 723 172 q 736 199 731 195 q 752 203 741 203 q 771 198 762 203 q 781 184 781 192 q 773 153 781 176 q 749 87 765 131 q 726 21 733 43 q 713 -4 719 0 q 694 -8 706 -8 l 190 -4 z "},"":{"ha":542,"x_min":31,"x_max":561,"o":"m 268 797 q 262 812 262 808 q 276 815 262 815 l 293 815 q 301 811 297 815 q 306 806 304 807 l 389 724 q 395 720 393 720 q 404 724 398 720 l 516 806 q 532 815 528 815 l 553 815 q 561 812 561 815 q 559 806 561 808 q 556 801 558 804 q 553 797 554 799 l 426 653 q 411 637 415 639 q 396 635 407 635 l 368 635 q 353 637 357 635 q 341 654 349 640 l 268 797 m 138 232 q 131 172 131 232 q 260 53 131 53 q 420 113 336 53 q 456 142 441 129 q 497 174 490 174 q 511 165 505 174 q 518 152 518 157 q 510 137 518 147 q 486 113 502 127 q 449 82 470 98 q 401 49 429 65 q 344 19 373 32 q 210 -11 278 -11 q 66 43 115 -11 q 31 140 31 82 q 43 249 31 198 q 78 344 56 300 q 133 426 101 388 q 203 490 165 464 q 375 547 283 547 q 500 491 472 547 q 508 447 508 474 q 494 390 508 420 q 454 338 479 361 q 325 262 405 291 q 138 232 244 232 m 171 339 q 151 276 151 291 q 180 272 151 272 q 254 285 210 272 q 334 320 299 297 q 410 453 410 370 q 392 491 410 476 q 345 506 374 506 q 171 339 234 506 z "},"":{"ha":1001,"x_min":44,"x_max":964,"o":"m 432 1008 q 424 1013 424 1008 q 432 1025 424 1017 q 564 1159 558 1153 q 589 1170 575 1170 l 617 1170 q 632 1167 628 1170 q 643 1153 637 1164 l 717 1025 q 721 1014 721 1019 q 708 1008 721 1008 l 694 1008 q 679 1018 689 1008 l 592 1090 q 586 1090 590 1092 l 468 1017 q 450 1008 455 1008 l 432 1008 m 842 647 q 865 790 861 743 q 783 838 853 806 q 585 899 649 899 q 470 877 522 899 q 375 818 418 855 q 297 730 333 781 q 237 623 261 680 q 185 401 185 504 q 210 229 185 299 q 279 113 236 159 q 503 15 371 15 q 706 76 632 15 q 725 99 723 89 q 750 286 746 179 l 750 295 q 742 301 750 301 l 621 301 q 608 326 608 301 q 622 351 608 351 l 806 347 l 951 351 q 964 335 964 351 l 964 321 q 951 301 964 301 l 872 301 q 858 199 867 284 q 848 104 849 114 q 822 76 847 94 q 755 39 798 59 q 661 1 712 19 q 428 -40 541 -40 q 168 56 280 -40 q 44 370 44 163 q 118 655 44 521 q 308 862 189 784 q 582 942 430 942 q 871 858 733 942 q 874 875 873 864 q 877 893 876 886 q 896 910 879 910 q 929 893 932 910 q 904 712 912 782 q 895 638 896 643 q 866 626 890 626 q 842 647 842 626 z "},"":{"ha":591,"x_min":-13,"x_max":576,"o":"m 205 632 q 197 636 197 632 q 199 641 197 639 q 202 646 200 644 q 205 650 204 649 l 332 794 q 347 810 343 808 q 362 812 351 812 l 390 812 q 406 810 401 812 q 417 793 410 807 l 490 650 q 496 636 496 639 q 482 632 496 632 l 465 632 q 458 636 461 632 q 453 642 455 640 l 370 724 q 363 728 366 728 q 354 724 361 728 l 242 642 q 227 632 230 632 l 205 632 m 543 588 q 560 588 543 588 q 576 569 576 588 q 561 522 576 551 q 529 470 546 494 q 513 443 513 446 q 519 421 512 439 q 526 363 526 403 q 506 277 526 323 q 450 199 485 231 q 378 150 415 166 q 275 117 342 134 q 149 56 149 81 q 177 29 149 39 q 231 14 205 20 q 319 -2 271 5 q 388 -12 367 -9 q 430 -20 409 -15 q 474 -32 451 -24 q 512 -49 496 -39 q 541 -73 528 -59 q 567 -142 567 -99 q 554 -215 567 -184 q 519 -268 542 -245 q 465 -307 496 -290 q 396 -333 434 -323 q 263 -353 321 -353 q 182 -351 204 -353 q 134 -345 159 -349 q 89 -334 110 -341 q 49 -317 68 -328 q 16 -293 30 -307 q -13 -228 -13 -263 q -3 -170 -13 -194 q 22 -131 7 -147 q 55 -100 36 -114 q 117 -62 83 -77 q 115 -50 131 -57 q 85 -27 99 -42 q 71 1 71 -13 q 96 56 71 16 q 136 101 121 96 l 211 129 q 218 133 218 132 q 214 134 218 134 q 210 135 211 135 q 201 139 209 136 q 178 150 192 142 q 144 173 163 158 q 111 208 125 189 q 79 319 79 253 q 112 440 79 385 q 203 527 146 495 q 333 558 261 558 q 461 503 406 558 q 472 505 467 497 q 488 541 476 514 q 503 574 499 567 q 543 588 509 588 m 142 -85 q 78 -137 103 -105 q 54 -201 54 -169 q 71 -250 54 -232 q 113 -277 88 -267 q 170 -294 138 -287 q 282 -304 225 -304 q 381 -292 339 -304 q 448 -252 423 -279 q 474 -185 474 -224 q 459 -141 474 -154 q 433 -121 444 -128 q 404 -109 421 -115 q 286 -85 374 -101 q 189 -70 199 -70 q 174 -71 180 -70 q 164 -74 168 -73 q 153 -80 160 -76 q 142 -85 145 -83 m 201 422 q 194 409 201 422 q 181 369 188 395 q 175 312 175 342 q 182 254 175 282 q 201 209 190 226 q 226 182 212 193 q 271 164 250 164 q 315 174 293 164 q 357 205 336 184 q 395 252 378 225 q 432 388 432 311 q 382 498 432 458 q 329 518 358 518 q 275 505 300 518 q 232 470 250 491 q 201 422 214 449 z "},"":{"ha":1001,"x_min":44,"x_max":964,"o":"m 487 1045 q 481 1054 487 1045 q 468 1082 474 1062 q 463 1135 463 1102 q 470 1168 463 1168 l 490 1168 q 496 1161 496 1168 q 516 1101 496 1119 q 597 1082 536 1082 q 690 1126 658 1082 q 703 1152 698 1137 q 710 1168 708 1168 l 738 1168 l 738 1164 q 654 1030 725 1073 q 581 1008 618 1008 q 522 1018 545 1008 q 487 1045 499 1028 m 842 647 q 865 790 861 743 q 783 838 853 806 q 585 899 649 899 q 470 877 522 899 q 375 818 418 855 q 297 730 333 781 q 237 623 261 680 q 185 401 185 504 q 210 229 185 299 q 279 113 236 159 q 503 15 371 15 q 706 76 632 15 q 725 99 723 89 q 750 286 746 179 l 750 295 q 742 301 750 301 l 621 301 q 608 326 608 301 q 622 351 608 351 l 806 347 l 951 351 q 964 335 964 351 l 964 321 q 951 301 964 301 l 872 301 q 858 199 867 284 q 848 104 849 114 q 822 76 847 94 q 755 39 798 59 q 661 1 712 19 q 428 -40 541 -40 q 168 56 280 -40 q 44 370 44 163 q 118 655 44 521 q 308 862 189 784 q 582 942 430 942 q 871 858 733 942 q 874 875 873 864 q 877 893 876 886 q 896 910 879 910 q 929 893 932 910 q 904 712 912 782 q 895 638 896 643 q 866 626 890 626 q 842 647 842 626 z "},"":{"ha":591,"x_min":-13,"x_max":576,"o":"m 510 808 q 423 654 495 702 q 352 631 388 631 q 294 642 317 631 q 259 673 272 653 q 235 761 235 710 q 244 812 235 812 l 262 812 q 268 803 268 812 q 273 768 268 793 q 358 711 284 711 q 440 737 412 711 q 470 779 463 758 q 488 812 482 812 l 503 812 q 510 808 510 812 m 543 588 q 560 588 543 588 q 576 569 576 588 q 561 522 576 551 q 529 470 546 494 q 513 443 513 446 q 519 421 512 439 q 526 363 526 403 q 506 277 526 323 q 450 199 485 231 q 378 150 415 166 q 275 117 342 134 q 149 56 149 81 q 177 29 149 39 q 231 14 205 20 q 319 -2 271 5 q 388 -12 367 -9 q 430 -20 409 -15 q 474 -32 451 -24 q 512 -49 496 -39 q 541 -73 528 -59 q 567 -142 567 -99 q 554 -215 567 -184 q 519 -268 542 -245 q 465 -307 496 -290 q 396 -333 434 -323 q 263 -353 321 -353 q 182 -351 204 -353 q 134 -345 159 -349 q 89 -334 110 -341 q 49 -317 68 -328 q 16 -293 30 -307 q -13 -228 -13 -263 q -3 -170 -13 -194 q 22 -131 7 -147 q 55 -100 36 -114 q 117 -62 83 -77 q 115 -50 131 -57 q 85 -27 99 -42 q 71 1 71 -13 q 96 56 71 16 q 136 101 121 96 l 211 129 q 218 133 218 132 q 214 134 218 134 q 210 135 211 135 q 201 139 209 136 q 178 150 192 142 q 144 173 163 158 q 111 208 125 189 q 79 319 79 253 q 112 440 79 385 q 203 527 146 495 q 333 558 261 558 q 461 503 406 558 q 472 505 467 497 q 488 541 476 514 q 503 574 499 567 q 543 588 509 588 m 142 -85 q 78 -137 103 -105 q 54 -201 54 -169 q 71 -250 54 -232 q 113 -277 88 -267 q 170 -294 138 -287 q 282 -304 225 -304 q 381 -292 339 -304 q 448 -252 423 -279 q 474 -185 474 -224 q 459 -141 474 -154 q 433 -121 444 -128 q 404 -109 421 -115 q 286 -85 374 -101 q 189 -70 199 -70 q 174 -71 180 -70 q 164 -74 168 -73 q 153 -80 160 -76 q 142 -85 145 -83 m 201 422 q 194 409 201 422 q 181 369 188 395 q 175 312 175 342 q 182 254 175 282 q 201 209 190 226 q 226 182 212 193 q 271 164 250 164 q 315 174 293 164 q 357 205 336 184 q 395 252 378 225 q 432 388 432 311 q 382 498 432 458 q 329 518 358 518 q 275 505 300 518 q 232 470 250 491 q 201 422 214 449 z "},"":{"ha":1001,"x_min":44,"x_max":964,"o":"m 842 647 q 865 790 861 743 q 783 838 853 806 q 585 899 649 899 q 470 877 522 899 q 375 818 418 855 q 297 730 333 781 q 237 623 261 680 q 185 401 185 504 q 210 229 185 299 q 279 113 236 159 q 503 15 371 15 q 706 76 632 15 q 725 99 723 89 q 750 286 746 179 l 750 295 q 742 301 750 301 l 621 301 q 608 326 608 301 q 622 351 608 351 l 806 347 l 951 351 q 964 335 964 351 l 964 321 q 951 301 964 301 l 872 301 q 858 199 867 284 q 848 104 849 114 q 822 76 847 94 q 755 39 798 59 q 661 1 712 19 q 428 -40 541 -40 q 168 56 280 -40 q 44 370 44 163 q 118 655 44 521 q 308 862 189 784 q 582 942 430 942 q 871 858 733 942 q 874 875 873 864 q 877 893 876 886 q 896 910 879 910 q 929 893 932 910 q 904 712 912 782 q 895 638 896 643 q 866 626 890 626 q 842 647 842 626 z "},"":{"ha":591,"x_min":-13,"x_max":576,"o":"m 543 588 q 560 588 543 588 q 576 569 576 588 q 561 522 576 551 q 529 470 546 494 q 513 443 513 446 q 519 421 512 439 q 526 363 526 403 q 506 277 526 323 q 450 199 485 231 q 378 150 415 166 q 275 117 342 134 q 149 56 149 81 q 177 29 149 39 q 231 14 205 20 q 319 -2 271 5 q 388 -12 367 -9 q 430 -20 409 -15 q 474 -32 451 -24 q 512 -49 496 -39 q 541 -73 528 -59 q 567 -142 567 -99 q 554 -215 567 -184 q 519 -268 542 -245 q 465 -307 496 -290 q 396 -333 434 -323 q 263 -353 321 -353 q 182 -351 204 -353 q 134 -345 159 -349 q 89 -334 110 -341 q 49 -317 68 -328 q 16 -293 30 -307 q -13 -228 -13 -263 q -3 -170 -13 -194 q 22 -131 7 -147 q 55 -100 36 -114 q 117 -62 83 -77 q 115 -50 131 -57 q 85 -27 99 -42 q 71 1 71 -13 q 96 56 71 16 q 136 101 121 96 l 211 129 q 218 133 218 132 q 214 134 218 134 q 210 135 211 135 q 201 139 209 136 q 178 150 192 142 q 144 173 163 158 q 111 208 125 189 q 79 319 79 253 q 112 440 79 385 q 203 527 146 495 q 333 558 261 558 q 461 503 406 558 q 472 505 467 497 q 488 541 476 514 q 503 574 499 567 q 543 588 509 588 m 142 -85 q 78 -137 103 -105 q 54 -201 54 -169 q 71 -250 54 -232 q 113 -277 88 -267 q 170 -294 138 -287 q 282 -304 225 -304 q 381 -292 339 -304 q 448 -252 423 -279 q 474 -185 474 -224 q 459 -141 474 -154 q 433 -121 444 -128 q 404 -109 421 -115 q 286 -85 374 -101 q 189 -70 199 -70 q 174 -71 180 -70 q 164 -74 168 -73 q 153 -80 160 -76 q 142 -85 145 -83 m 201 422 q 194 409 201 422 q 181 369 188 395 q 175 312 175 342 q 182 254 175 282 q 201 209 190 226 q 226 182 212 193 q 271 164 250 164 q 315 174 293 164 q 357 205 336 184 q 395 252 378 225 q 432 388 432 311 q 382 498 432 458 q 329 518 358 518 q 275 505 300 518 q 232 470 250 491 q 201 422 214 449 z "}}}
